SplineFontDB: 3.0
FontName: Nobile
FullName: Nobile-bold
FamilyName: Nobile-bold
Weight: Bold
Copyright: Copyright (c) 2007-10 by vernon adams. All rights reserved.
Version: 1.000;PS 001.000;hotconv 1.0.38
ItalicAngle: 0
UnderlinePosition: -292
UnderlineWidth: 40
Ascent: 1638
Descent: 410
LayerCount: 2
Layer: 0 1 "Back"  1
Layer: 1 1 "Fore"  0
XUID: [1021 579 912382147 11222169]
FSType: 0
OS2Version: 2
OS2_WeightWidthSlopeOnly: 0
OS2_UseTypoMetrics: 1
CreationTime: 1275036748
ModificationTime: 1275170470
PfmFamily: 17
TTFWeight: 700
TTFWidth: 5
LineGap: 0
VLineGap: 0
Panose: 2 0 8 3 0 0 0 0 0 0
OS2TypoAscent: 0
OS2TypoAOffset: 1
OS2TypoDescent: 0
OS2TypoDOffset: 1
OS2TypoLinegap: 0
OS2WinAscent: 0
OS2WinAOffset: 1
OS2WinDescent: 0
OS2WinDOffset: 1
HheadAscent: 0
HheadAOffset: 1
HheadDescent: 0
HheadDOffset: 1
OS2SubXSize: 1331
OS2SubYSize: 1433
OS2SubXOff: 0
OS2SubYOff: 286
OS2SupXSize: 1331
OS2SupYSize: 1433
OS2SupXOff: 0
OS2SupYOff: 983
OS2StrikeYSize: 102
OS2StrikeYPos: 530
OS2Vendor: 'pyrs'
OS2CodePages: 00000001.00000000
OS2UnicodeRanges: 00000001.00000000.00000000.00000000
DEI: 91125
TtTable: prep
PUSHW_1
 511
SCANCTRL
PUSHB_1
 1
SCANTYPE
SVTCA[y-axis]
MPPEM
PUSHB_1
 8
LT
IF
PUSHB_2
 1
 1
INSTCTRL
EIF
PUSHB_2
 70
 6
CALL
IF
POP
PUSHB_1
 16
EIF
MPPEM
PUSHB_1
 20
GT
IF
POP
PUSHB_1
 128
EIF
SCVTCI
PUSHB_1
 6
CALL
NOT
IF
SVTCA[y-axis]
PUSHB_1
 6
DUP
RCVT
PUSHB_1
 3
CALL
WCVTP
PUSHB_1
 10
DUP
RCVT
PUSHB_3
 6
 126
 2
CALL
PUSHB_1
 3
CALL
WCVTP
PUSHB_1
 9
DUP
RCVT
PUSHB_3
 10
 74
 2
CALL
PUSHB_1
 3
CALL
WCVTP
PUSHB_1
 8
DUP
RCVT
PUSHB_3
 9
 39
 2
CALL
PUSHB_1
 3
CALL
WCVTP
PUSHB_1
 7
DUP
RCVT
PUSHB_3
 8
 22
 2
CALL
PUSHB_1
 3
CALL
WCVTP
PUSHB_1
 11
DUP
RCVT
PUSHB_3
 6
 195
 2
CALL
PUSHB_1
 3
CALL
WCVTP
PUSHB_1
 12
DUP
RCVT
PUSHB_3
 11
 65
 2
CALL
PUSHB_1
 3
CALL
WCVTP
PUSHB_1
 13
DUP
RCVT
PUSHB_3
 12
 47
 2
CALL
PUSHB_1
 3
CALL
WCVTP
PUSHB_1
 14
DUP
RCVT
PUSHW_3
 13
 285
 2
CALL
PUSHB_1
 3
CALL
WCVTP
PUSHB_1
 15
DUP
RCVT
PUSHB_3
 14
 11
 2
CALL
PUSHB_1
 3
CALL
WCVTP

StartChar: .notdef
Encoding: 65536 -1 0
Width: 748
Flags: W
HStem: 0 68<136 544> 1297 68<136 544>
VStem: 68 68<68 1297> 544 68<68 1297>
LayerCount: 2
Fore
SplineSet
68 0 m 1,0,-1
 68 1365 l 1,1,-1
 612 1365 l 1,2,-1
 612 0 l 1,3,-1
 68 0 l 1,0,-1
136 68 m 1,4,-1
 544 68 l 1,5,-1
 544 1297 l 1,6,-1
 136 1297 l 1,7,-1
 136 68 l 1,4,-1
EndSplineSet
EndChar

StartChar: exclam
Encoding: 33 33 4
Width: 731
GlyphClass: 2
Flags: W
HStem: -12 388<251.947 499.45>
VStem: 187 378<54.1479 309.852> 259 210<464 601.677>
LayerCount: 2
Fore
SplineSet
577 1530 m 1,0,-1
 469 464 l 1,1,-1
 259 464 l 1,2,-1
 148 1530 l 1,3,-1
 577 1530 l 1,0,-1
187 182 m 128,-1,5
 187 265 187 265 240 320.5 c 128,-1,6
 293 376 293 376 375.5 376 c 128,-1,7
 458 376 458 376 511.5 320.5 c 128,-1,8
 565 265 565 265 565 182 c 128,-1,9
 565 99 565 99 511.5 43.5 c 128,-1,10
 458 -12 458 -12 375.5 -12 c 128,-1,11
 293 -12 293 -12 240 43.5 c 128,-1,4
 187 99 187 99 187 182 c 128,-1,5
EndSplineSet
EndChar

StartChar: quotedbl
Encoding: 34 34 5
Width: 1041
GlyphClass: 2
Flags: W
HStem: 1558 20G<80.1705 502 602.171 1024>
VStem: 162 220<804 896.467> 684 220<804 896.467>
LayerCount: 2
Fore
SplineSet
78 1578 m 1,0,-1
 502 1578 l 2,1,2
 501 1578 501 1578 442 1191 c 2,3,-1
 382 804 l 1,4,-1
 162 804 l 1,5,-1
 78 1578 l 1,0,-1
600 1578 m 1,6,-1
 1024 1578 l 2,7,8
 1023 1578 1023 1578 964 1191 c 2,9,-1
 904 804 l 1,10,-1
 684 804 l 1,11,-1
 600 1578 l 1,6,-1
EndSplineSet
EndChar

StartChar: numbersign
Encoding: 35 35 6
Width: 1269
GlyphClass: 2
Flags: W
HStem: 0 21G<229 459.984 659 889.89> 429 153<133 293 540 722 968 1174> 829 153<133 342 589 769 1020 1174>
DStem2: 229 0 457 0 0.134831 0.990869<30.7415 433.712 618.618 836.666 1021.57 1424> 659 0 887 0 0.133452 0.991055<30.427 433.57 618.031 836.265 1021.39 1423.6>
LayerCount: 2
Fore
SplineSet
722 429 m 1,0,-1
 521 429 l 1,1,-1
 457 0 l 1,2,-1
 229 0 l 1,3,-1
 293 429 l 1,4,-1
 133 429 l 1,5,-1
 133 582 l 1,6,-1
 310 582 l 1,7,-1
 342 829 l 1,8,-1
 133 829 l 1,9,-1
 133 982 l 1,10,-1
 363 982 l 1,11,-1
 421 1411 l 1,12,-1
 647 1411 l 1,13,-1
 589 982 l 1,14,-1
 794 982 l 1,15,-1
 848 1411 l 1,16,-1
 1077 1411 l 1,17,-1
 1020 982 l 1,18,-1
 1174 982 l 1,19,-1
 1174 829 l 1,20,-1
 1001 829 l 1,21,-1
 968 582 l 1,22,-1
 1174 582 l 1,23,-1
 1174 429 l 1,24,-1
 949 429 l 1,25,-1
 887 0 l 1,26,-1
 659 0 l 1,27,-1
 722 429 l 1,0,-1
540 582 m 1,28,-1
 738 582 l 1,29,-1
 769 829 l 1,30,-1
 572 829 l 1,31,-1
 540 582 l 1,28,-1
EndSplineSet
EndChar

StartChar: dollar
Encoding: 36 36 7
Width: 1376
GlyphClass: 2
Flags: W
HStem: -36 276<404.867 627> 1315 270.5<448.158 627 737 956.428> 1692 20G<627 737>
VStem: 80 332<1088.76 1279.06> 627 110<-147 -32.4459 251 637 1012 1316 1599 1712> 910 338<317.803 562.282>
DStem2: 537 1046 346 799 0.923592 -0.383378<-150.727 96.1581 213.472 222.673 341.52 525.914> 993 1550 942 1274.5 0.95085 -0.309652<-168.339 196.673>
LayerCount: 2
Fore
SplineSet
627 1599 m 1,0,-1
 627 1712 l 1,1,-1
 737 1712 l 1,2,-1
 737 1593 l 1,3,4
 878 1581 878 1581 993 1550 c 128,-1,5
 1108 1519 1108 1519 1179 1482 c 1,6,-1
 1094 1225 l 1,7,-1
 1082 1229 l 1,8,-1
 1050 1240 l 1,9,-1
 1002 1256 l 2,10,11
 975 1265 975 1265 942 1274.5 c 128,-1,12
 909 1284 909 1284 875.5 1292 c 128,-1,13
 842 1300 842 1300 805 1307 c 128,-1,14
 768 1314 768 1314 737 1316 c 1,15,-1
 737 971 l 1,16,-1
 893 913 l 2,17,18
 970 884 970 884 1032.5 844 c 128,-1,19
 1095 804 1095 804 1144.5 751.5 c 128,-1,20
 1194 699 1194 699 1221 630.5 c 128,-1,21
 1248 562 1248 562 1248 485 c 0,22,23
 1248 241 1248 241 1114 112 c 128,-1,24
 980 -17 980 -17 737 -34 c 1,25,-1
 737 -147 l 1,26,-1
 627 -147 l 1,27,-1
 627 -36 l 1,28,29
 537 -30 537 -30 446 -10.5 c 128,-1,30
 355 9 355 9 284.5 35 c 128,-1,31
 214 61 214 61 184 74 c 2,32,-1
 131 97 l 1,33,-1
 130 98 l 1,34,-1
 195 363 l 2,35,36
 195 360 195 360 270.5 330.5 c 128,-1,37
 346 301 346 301 453.5 270.5 c 128,-1,38
 561 240 561 240 627 240 c 1,39,-1
 627 682 l 1,40,-1
 346 799 l 2,41,42
 80 909 80 909 80 1168 c 0,43,44
 80 1263 80 1263 108.5 1337.5 c 128,-1,45
 137 1412 137 1412 186.5 1460.5 c 128,-1,46
 236 1509 236 1509 306.5 1540.5 c 128,-1,47
 377 1572 377 1572 455.5 1585.5 c 128,-1,48
 534 1599 534 1599 627 1599 c 1,0,-1
627 1320 m 1,49,50
 587 1319 587 1319 557 1315 c 128,-1,51
 527 1311 527 1311 498.5 1301 c 128,-1,52
 470 1291 470 1291 451.5 1275 c 128,-1,53
 433 1259 433 1259 422.5 1233 c 128,-1,54
 412 1207 412 1207 412 1171 c 0,55,56
 412 1154 412 1154 416 1141 c 128,-1,57
 420 1128 420 1128 432 1111 c 128,-1,58
 444 1094 444 1094 470 1077.5 c 128,-1,59
 496 1061 496 1061 537 1046 c 2,60,-1
 627 1012 l 1,61,-1
 627 1320 l 1,49,50
737 251 m 1,62,63
 814 268 814 268 862 314.5 c 128,-1,64
 910 361 910 361 910 437 c 0,65,66
 910 501 910 501 879 546 c 128,-1,67
 848 591 848 591 770 623 c 1,68,-1
 737 637 l 1,69,-1
 737 251 l 1,62,63
EndSplineSet
EndChar

StartChar: percent
Encoding: 37 37 8
Width: 2181
GlyphClass: 2
Flags: W
HStem: 0 206<1499.41 1719.57> 668 200<1500.23 1723.34> 711 206<440.952 661.242> 1379 200<441.381 664.836>
VStem: 164 231<963.408 1324.84> 711 243<972.19 1332.6> 1222 231<252.584 613.842> 1769 243<261.19 621.596>
DStem2: 560 -29 779 -107 0.410654 0.911791<18.8135 1867.75>
LayerCount: 2
Fore
SplineSet
711 1150 m 0,0,1
 711 1216 711 1216 699.5 1262 c 128,-1,2
 688 1308 688 1308 666 1333 c 128,-1,3
 644 1358 644 1358 616.5 1368.5 c 128,-1,4
 589 1379 589 1379 551 1379 c 0,5,6
 475 1379 475 1379 435 1326.5 c 128,-1,7
 395 1274 395 1274 395 1150 c 0,8,9
 395 1081 395 1081 406.5 1034 c 128,-1,10
 418 987 418 987 440.5 962 c 128,-1,11
 463 937 463 937 489 927 c 128,-1,12
 515 917 515 917 551 917 c 0,13,14
 628 917 628 917 669.5 970.5 c 128,-1,15
 711 1024 711 1024 711 1150 c 0,0,1
164 1130 m 0,16,17
 164 1211 164 1211 177 1277 c 128,-1,18
 190 1343 190 1343 211.5 1388.5 c 128,-1,19
 233 1434 233 1434 264 1469 c 128,-1,20
 295 1504 295 1504 327.5 1524.5 c 128,-1,21
 360 1545 360 1545 399 1557.5 c 128,-1,22
 438 1570 438 1570 472 1574.5 c 128,-1,23
 506 1579 506 1579 543 1579 c 0,24,25
 637 1579 637 1579 710.5 1552.5 c 128,-1,26
 784 1526 784 1526 828.5 1484 c 128,-1,27
 873 1442 873 1442 902.5 1384.5 c 128,-1,28
 932 1327 932 1327 943 1270.5 c 128,-1,29
 954 1214 954 1214 954 1152 c 0,30,31
 954 1091 954 1091 943.5 1033.5 c 128,-1,32
 933 976 933 976 904.5 916 c 128,-1,33
 876 856 876 856 832.5 811.5 c 128,-1,34
 789 767 789 767 716 739 c 128,-1,35
 643 711 643 711 551 711 c 0,36,37
 486 711 486 711 431 726 c 128,-1,38
 376 741 376 741 337.5 766.5 c 128,-1,39
 299 792 299 792 268 827 c 128,-1,40
 237 862 237 862 218 899.5 c 128,-1,41
 199 937 199 937 186.5 979 c 128,-1,42
 174 1021 174 1021 169 1058 c 128,-1,43
 164 1095 164 1095 164 1130 c 0,16,17
1769 439 m 0,44,45
 1769 505 1769 505 1758 551 c 128,-1,46
 1747 597 1747 597 1725 622 c 128,-1,47
 1703 647 1703 647 1675 657.5 c 128,-1,48
 1647 668 1647 668 1609 668 c 0,49,50
 1534 668 1534 668 1493.5 615.5 c 128,-1,51
 1453 563 1453 563 1453 439 c 0,52,53
 1453 370 1453 370 1465 323 c 128,-1,54
 1477 276 1477 276 1499 251 c 128,-1,55
 1521 226 1521 226 1547.5 216 c 128,-1,56
 1574 206 1574 206 1609 206 c 0,57,58
 1686 206 1686 206 1727.5 259.5 c 128,-1,59
 1769 313 1769 313 1769 439 c 0,44,45
560 -29 m 1,60,-1
 1327 1674 l 1,61,-1
 1554 1592 l 1,62,-1
 779 -107 l 1,63,-1
 560 -29 l 1,60,-1
1222 419 m 0,64,65
 1222 500 1222 500 1235 566 c 128,-1,66
 1248 632 1248 632 1269.5 677.5 c 128,-1,67
 1291 723 1291 723 1322 758 c 128,-1,68
 1353 793 1353 793 1385.5 813.5 c 128,-1,69
 1418 834 1418 834 1457 846.5 c 128,-1,70
 1496 859 1496 859 1530 863.5 c 128,-1,71
 1564 868 1564 868 1601 868 c 0,72,73
 1695 868 1695 868 1768.5 841.5 c 128,-1,74
 1842 815 1842 815 1887 773 c 128,-1,75
 1932 731 1932 731 1961 673.5 c 128,-1,76
 1990 616 1990 616 2001 559.5 c 128,-1,77
 2012 503 2012 503 2012 441 c 0,78,79
 2012 380 2012 380 2001.5 322.5 c 128,-1,80
 1991 265 1991 265 1962.5 205 c 128,-1,81
 1934 145 1934 145 1890.5 100.5 c 128,-1,82
 1847 56 1847 56 1774.5 28 c 128,-1,83
 1702 0 1702 0 1609 0 c 0,84,85
 1544 0 1544 0 1489.5 15 c 128,-1,86
 1435 30 1435 30 1396 55.5 c 128,-1,87
 1357 81 1357 81 1326 116 c 128,-1,88
 1295 151 1295 151 1276 188.5 c 128,-1,89
 1257 226 1257 226 1244.5 268 c 128,-1,90
 1232 310 1232 310 1227 347 c 128,-1,91
 1222 384 1222 384 1222 419 c 0,64,65
EndSplineSet
EndChar

StartChar: ampersand
Encoding: 38 38 9
Width: 1783
GlyphClass: 2
Flags: W
HStem: -40 267<588.478 1093.64> 1387 225<657.158 944.516>
VStem: 170 313<321.972 593.229> 319 299<1119.81 1348.8> 991 262<1116.73 1343.9> 1291 287<551.834 894>
DStem2: 969 826 743 708 0.763175 -0.646192<0 424.737 770.099 1077.08>
LayerCount: 2
Fore
SplineSet
991 1235 m 0,0,1
 991 1312 991 1312 941 1349.5 c 128,-1,2
 891 1387 891 1387 805 1387 c 0,3,4
 618 1387 618 1387 618 1242 c 0,5,6
 618 1221 618 1221 623 1200.5 c 128,-1,7
 628 1180 628 1180 636.5 1162.5 c 128,-1,8
 645 1145 645 1145 656.5 1128.5 c 128,-1,9
 668 1112 668 1112 680 1098 c 1,10,-1
 705 1073 l 2,11,12
 717 1061 717 1061 728 1052 c 2,13,-1
 748 1036 l 2,14,15
 757 1030 757 1030 762 1026 c 2,16,-1
 767 1023 l 1,17,18
 805 1035 805 1035 833 1046 c 128,-1,19
 861 1057 861 1057 893 1075.5 c 128,-1,20
 925 1094 925 1094 945 1115 c 128,-1,21
 965 1136 965 1136 978 1167 c 128,-1,22
 991 1198 991 1198 991 1235 c 0,0,1
823 -40 m 0,23,24
 711 -40 711 -40 615 -23.5 c 128,-1,25
 519 -7 519 -7 436 29.5 c 128,-1,26
 353 66 353 66 294.5 121 c 128,-1,27
 236 176 236 176 203 256 c 128,-1,28
 170 336 170 336 170 435 c 0,29,30
 170 512 170 512 190 577 c 128,-1,31
 210 642 210 642 242 688 c 128,-1,32
 274 734 274 734 323.5 774.5 c 128,-1,33
 373 815 373 815 420.5 842 c 128,-1,34
 468 869 468 869 532 897 c 1,35,36
 523 904 523 904 509 916.5 c 128,-1,37
 495 929 495 929 458 969 c 128,-1,38
 421 1009 421 1009 393 1050 c 128,-1,39
 365 1091 365 1091 342 1150.5 c 128,-1,40
 319 1210 319 1210 319 1265 c 0,41,42
 319 1370 319 1370 381.5 1450 c 128,-1,43
 444 1530 444 1530 549.5 1571 c 128,-1,44
 655 1612 655 1612 787 1612 c 0,45,46
 924 1612 924 1612 1029.5 1571 c 128,-1,47
 1135 1530 1135 1530 1194 1452.5 c 128,-1,48
 1253 1375 1253 1375 1253 1273 c 0,49,50
 1253 1176 1253 1176 1224 1090 c 128,-1,51
 1195 1004 1195 1004 1129.5 932.5 c 128,-1,52
 1064 861 1064 861 969 826 c 1,53,-1
 1291 549 l 1,54,-1
 1291 901 l 1,55,-1
 1578 894 l 1,56,57
 1578 764 1578 764 1565 629.5 c 128,-1,58
 1552 495 1552 495 1538 426 c 2,59,-1
 1525 357 l 1,60,-1
 1791 130 l 1,61,-1
 1643 -54 l 1,62,-1
 1404 148 l 1,63,-1
 1384 124 l 1,64,65
 1287 26 1287 26 1085 -16 c 0,66,67
 967 -40 967 -40 823 -40 c 0,23,24
483 459 m 0,68,69
 483 347 483 347 564 287 c 128,-1,70
 645 227 645 227 823 227 c 0,71,72
 893 227 893 227 956.5 236.5 c 128,-1,73
 1020 246 1020 246 1061 259.5 c 128,-1,74
 1102 273 1102 273 1132.5 287.5 c 128,-1,75
 1163 302 1163 302 1176.5 311 c 128,-1,76
 1190 320 1190 320 1190 322 c 1,77,-1
 743 708 l 1,78,79
 687 694 687 694 643.5 675 c 128,-1,80
 600 656 600 656 562 627 c 128,-1,81
 524 598 524 598 503.5 555.5 c 128,-1,82
 483 513 483 513 483 459 c 0,68,69
EndSplineSet
EndChar

StartChar: quotesingle
Encoding: 39 39 10
Width: 601
GlyphClass: 2
Flags: W
HStem: 1558 20G<80.1705 502>
VStem: 162 220<804 896.467>
LayerCount: 2
Fore
SplineSet
78 1578 m 1,0,-1
 502 1578 l 2,1,2
 501 1578 501 1578 442 1191 c 2,3,-1
 382 804 l 1,4,-1
 162 804 l 1,5,-1
 78 1578 l 1,0,-1
EndSplineSet
EndChar

StartChar: parenleft
Encoding: 40 40 11
Width: 828
GlyphClass: 2
Flags: W
HStem: 1659 20G<535 599.071>
VStem: 129 319<342.614 1023.93>
LayerCount: 2
Fore
SplineSet
129 680 m 0,0,1
 129 844 129 844 163.5 997 c 128,-1,2
 198 1150 198 1150 260 1276 c 128,-1,3
 322 1402 322 1402 404 1503.5 c 128,-1,4
 486 1605 486 1605 584 1679 c 1,5,-1
 743 1468 l 1,6,7
 611 1343 611 1343 529.5 1135.5 c 128,-1,8
 448 928 448 928 448 680 c 0,9,10
 448 434 448 434 530.5 233.5 c 128,-1,11
 613 33 613 33 747 -94 c 1,12,-1
 588 -305 l 1,13,14
 489 -231 489 -231 407.5 -131.5 c 128,-1,15
 326 -32 326 -32 262.5 91 c 128,-1,16
 199 214 199 214 164 365.5 c 128,-1,17
 129 517 129 517 129 680 c 0,0,1
EndSplineSet
EndChar

StartChar: parenright
Encoding: 41 41 12
Width: 827
GlyphClass: 2
Flags: W
HStem: 1659 20G<213.929 278.5>
VStem: 369 319<350.071 1031.39>
LayerCount: 2
Fore
SplineSet
688 694 m 0,0,1
 688 530 688 530 653.5 377 c 128,-1,2
 619 224 619 224 557 98 c 128,-1,3
 495 -28 495 -28 413 -129.5 c 128,-1,4
 331 -231 331 -231 233 -305 c 1,5,-1
 74 -94 l 1,6,7
 206 31 206 31 287.5 238.5 c 128,-1,8
 369 446 369 446 369 694 c 0,9,10
 369 940 369 940 286.5 1140.5 c 128,-1,11
 204 1341 204 1341 70 1468 c 1,12,-1
 229 1679 l 1,13,14
 328 1605 328 1605 409.5 1505.5 c 128,-1,15
 491 1406 491 1406 554.5 1283 c 128,-1,16
 618 1160 618 1160 653 1008.5 c 128,-1,17
 688 857 688 857 688 694 c 0,0,1
EndSplineSet
EndChar

StartChar: asterisk
Encoding: 42 42 13
Width: 1012
GlyphClass: 2
Flags: W
HStem: 1094 194<55 323 698 947>
DStem2: 188 864 384 748 0.49998 0.866037<0 249.329 637.546 893.072> 507 1416 326 1288 0.495421 -0.868653<-254.273 0 392.38 641.004>
LayerCount: 2
Fore
SplineSet
507 1416 m 1,0,-1
 636 1640 l 1,1,-1
 831 1524 l 1,2,-1
 695 1288 l 1,3,-1
 947 1288 l 1,4,-1
 947 1094 l 1,5,-1
 698 1094 l 1,6,-1
 833 864 l 1,7,-1
 635 746 l 1,8,-1
 510 966 l 1,9,-1
 384 748 l 1,10,-1
 188 864 l 1,11,-1
 323 1094 l 1,12,-1
 55 1094 l 1,13,-1
 55 1288 l 1,14,-1
 326 1288 l 1,15,-1
 189 1528 l 1,16,-1
 383 1638 l 1,17,-1
 507 1416 l 1,0,-1
EndSplineSet
EndChar

StartChar: plus
Encoding: 43 43 14
Width: 1064
GlyphClass: 2
Flags: W
HStem: 450 269<115 392 680 959>
VStem: 392 288<97 450 719 1069>
LayerCount: 2
Fore
SplineSet
959 450 m 1,0,-1
 680 450 l 1,1,-1
 680 97 l 1,2,-1
 392 97 l 1,3,-1
 392 450 l 1,4,-1
 115 450 l 1,5,-1
 115 719 l 1,6,-1
 392 719 l 1,7,-1
 392 1069 l 1,8,-1
 680 1069 l 1,9,-1
 680 719 l 1,10,-1
 959 719 l 1,11,-1
 959 450 l 1,0,-1
EndSplineSet
EndChar

StartChar: comma
Encoding: 44 44 15
Width: 722
GlyphClass: 2
Flags: W
HStem: -307 114<217.203 258.086>
VStem: 162 418<0.625488 415> 340 240<-115.679 0>
LayerCount: 2
Fore
SplineSet
162 0 m 1,0,-1
 162 415 l 1,1,-1
 580 415 l 1,2,-1
 580 53 l 2,3,4
 580 -14 580 -14 559.5 -68.5 c 128,-1,5
 539 -123 539 -123 508 -158.5 c 128,-1,6
 477 -194 477 -194 427 -224 c 128,-1,7
 377 -254 377 -254 331.5 -271.5 c 128,-1,8
 286 -289 286 -289 225 -307 c 1,9,-1
 163 -193 l 1,10,11
 258 -159 258 -159 299 -117 c 128,-1,12
 340 -75 340 -75 340 0 c 1,13,-1
 162 0 l 1,0,-1
EndSplineSet
EndChar

StartChar: hyphen
Encoding: 45 45 16
Width: 1120
GlyphClass: 2
Flags: W
HStem: 574 262<156 950>
LayerCount: 2
Fore
SplineSet
950 574 m 1,0,-1
 156 574 l 1,1,-1
 156 836 l 1,2,-1
 950 836 l 1,3,-1
 950 574 l 1,0,-1
EndSplineSet
EndChar

StartChar: period
Encoding: 46 46 17
Width: 571
GlyphClass: 2
Flags: W
HStem: 0 388<165.958 417.232>
VStem: 98 389<69.8047 318.195>
LayerCount: 2
Fore
SplineSet
98 194 m 128,-1,1
 98 277 98 277 153.5 332.5 c 128,-1,2
 209 388 209 388 291 388 c 128,-1,3
 373 388 373 388 430 332.5 c 128,-1,4
 487 277 487 277 487 194 c 128,-1,5
 487 111 487 111 430 55.5 c 128,-1,6
 373 0 373 0 291 0 c 128,-1,7
 209 0 209 0 153.5 55.5 c 128,-1,0
 98 111 98 111 98 194 c 128,-1,1
EndSplineSet
EndChar

StartChar: slash
Encoding: 47 47 18
Width: 915
GlyphClass: 2
Flags: W
DStem2: 85 -60 361 -147 0.313918 0.94945<4.03916 1818.95>
LayerCount: 2
Fore
SplineSet
85 -60 m 1,0,-1
 656 1667 l 1,1,-1
 937 1578 l 1,2,-1
 361 -147 l 1,3,-1
 85 -60 l 1,0,-1
EndSplineSet
EndChar

StartChar: zero
Encoding: 48 48 19
Width: 1457
GlyphClass: 2
Flags: W
HStem: -27 260<575.074 875.26> 946 260<581.596 875.698>
VStem: 141 330<354.467 819.441> 985 328<358.011 822.519>
LayerCount: 2
Fore
SplineSet
725 233 m 0,0,1
 784 233 784 233 829 251.5 c 128,-1,2
 874 270 874 270 903.5 302.5 c 128,-1,3
 933 335 933 335 951.5 382.5 c 128,-1,4
 970 430 970 430 977.5 483 c 128,-1,5
 985 536 985 536 985 602 c 0,6,7
 985 677 985 677 971.5 737 c 128,-1,8
 958 797 958 797 928.5 845 c 128,-1,9
 899 893 899 893 847.5 919.5 c 128,-1,10
 796 946 796 946 725 946 c 0,11,12
 668 946 668 946 623.5 926.5 c 128,-1,13
 579 907 579 907 550.5 874.5 c 128,-1,14
 522 842 522 842 503.5 796 c 128,-1,15
 485 750 485 750 477.5 700 c 128,-1,16
 470 650 470 650 471 592 c 0,17,18
 472 509 472 509 484.5 446 c 128,-1,19
 497 383 497 383 525.5 333.5 c 128,-1,20
 554 284 554 284 604.5 258.5 c 128,-1,21
 655 233 655 233 725 233 c 0,0,1
725 1206 m 0,22,23
 915 1206 915 1206 1048.5 1130.5 c 128,-1,24
 1182 1055 1182 1055 1247.5 917.5 c 128,-1,25
 1313 780 1313 780 1313 590 c 0,26,27
 1313 401 1313 401 1246.5 263 c 128,-1,28
 1180 125 1180 125 1047 49 c 128,-1,29
 914 -27 914 -27 725.5 -27 c 128,-1,30
 537 -27 537 -27 404.5 49.5 c 128,-1,31
 272 126 272 126 206.5 263.5 c 128,-1,32
 141 401 141 401 141 590 c 0,33,34
 141 880 141 880 291 1043 c 128,-1,35
 441 1206 441 1206 725 1206 c 0,22,23
EndSplineSet
EndChar

StartChar: one
Encoding: 49 49 20
Width: 912
GlyphClass: 2
Flags: W
HStem: 0 21G<350 698> 1151 20G<317.556 698>
VStem: 350 348<0 892>
LayerCount: 2
Fore
SplineSet
350 0 m 1,0,-1
 350 892 l 1,1,-1
 194 825 l 1,2,-1
 100 1063 l 1,3,-1
 367 1171 l 1,4,-1
 698 1169 l 1,5,-1
 698 0 l 1,6,-1
 350 0 l 1,0,-1
EndSplineSet
EndChar

StartChar: two
Encoding: 50 50 21
Width: 1174
GlyphClass: 2
Flags: W
HStem: 0 268<654 1026> 930 261<371.232 690.537>
VStem: 724 333<669.091 897.443>
DStem2: 198.5 1091.5 278 847 0.924439 0.381331<-64.5663 280.569>
LayerCount: 2
Fore
SplineSet
724 786 m 0,0,1
 724 859 724 859 687.5 894.5 c 128,-1,2
 651 930 651 930 570 930 c 0,3,4
 526 930 526 930 469 916 c 128,-1,5
 412 902 412 902 358 880 c 2,6,-1
 278 847 l 2,7,8
 252 836 252 836 232 826 c 1,9,-1
 231 825 l 1,10,-1
 140 1064 l 1,11,-1
 142 1065 l 2,12,13
 167 1078 167 1078 198.5 1091.5 c 128,-1,14
 230 1105 230 1105 298 1131.5 c 128,-1,15
 366 1158 366 1158 444.5 1174.5 c 128,-1,16
 523 1191 523 1191 592 1191 c 256,17,18
 661 1191 661 1191 725 1180 c 128,-1,19
 789 1169 789 1169 850.5 1142.5 c 128,-1,20
 912 1116 912 1116 957 1076.5 c 128,-1,21
 1002 1037 1002 1037 1029.5 974.5 c 128,-1,22
 1057 912 1057 912 1057 834 c 0,23,24
 1057 716 1057 716 999.5 619.5 c 128,-1,25
 942 523 942 523 798 396 c 2,26,-1
 654 268 l 1,27,-1
 1026 268 l 1,28,-1
 1026 0 l 1,29,-1
 168 0 l 1,30,-1
 168 217 l 1,31,-1
 493 492 l 2,32,33
 497 495 497 495 523.5 517 c 128,-1,34
 550 539 550 539 559 547 c 2,35,-1
 592 576 l 2,36,37
 617 598 617 598 627 610 c 2,38,-1
 656 642 l 2,39,40
 676 663 676 663 685 678 c 128,-1,41
 694 693 694 693 704.5 712.5 c 128,-1,42
 715 732 715 732 719.5 750 c 128,-1,43
 724 768 724 768 724 786 c 0,0,1
EndSplineSet
EndChar

StartChar: three
Encoding: 51 51 22
Width: 1179
GlyphClass: 2
Flags: W
HStem: -176 258<234.466 658.492> 424 246<410 612.732> 940 262<299.299 637.071>
VStem: 684 310<732.625 910.521> 706 324<122.353 341.255>
LayerCount: 2
Fore
SplineSet
684 829 m 0,0,1
 684 885 684 885 638.5 912.5 c 128,-1,2
 593 940 593 940 519 940 c 0,3,4
 493 940 493 940 464 936 c 128,-1,5
 435 932 435 932 408 926 c 128,-1,6
 381 920 381 920 354.5 912.5 c 128,-1,7
 328 905 328 905 306.5 897.5 c 128,-1,8
 285 890 285 890 268.5 883.5 c 128,-1,9
 252 877 252 877 243 874 c 2,10,-1
 234 870 l 1,11,-1
 120 1099 l 1,12,-1
 138 1109 l 2,13,14
 157 1119 157 1119 192 1134.5 c 128,-1,15
 227 1150 227 1150 270.5 1165 c 128,-1,16
 314 1180 314 1180 374 1191 c 128,-1,17
 434 1202 434 1202 494 1202 c 0,18,19
 585 1202 585 1202 658.5 1190 c 128,-1,20
 732 1178 732 1178 795 1150 c 128,-1,21
 858 1122 858 1122 900.5 1078.5 c 128,-1,22
 943 1035 943 1035 967.5 970.5 c 128,-1,23
 992 906 992 906 994 823 c 0,24,25
 996 729 996 729 941 649.5 c 128,-1,26
 886 570 886 570 793 547 c 1,27,28
 895 522 895 522 962.5 433.5 c 128,-1,29
 1030 345 1030 345 1030 239 c 256,30,31
 1030 133 1030 133 991 52 c 128,-1,32
 952 -29 952 -29 881.5 -78 c 128,-1,33
 811 -127 811 -127 718 -151.5 c 128,-1,34
 625 -176 625 -176 512 -176 c 0,35,36
 448 -176 448 -176 386 -169 c 128,-1,37
 324 -162 324 -162 281 -152 c 128,-1,38
 238 -142 238 -142 204.5 -132 c 128,-1,39
 171 -122 171 -122 155 -115 c 2,40,-1
 138 -108 l 1,41,-1
 221 144 l 1,42,-1
 222 144 l 1,43,44
 244 135 244 135 274 124.5 c 128,-1,45
 304 114 304 114 375 98 c 128,-1,46
 446 82 446 82 502 82 c 0,47,48
 603 82 603 82 654.5 117 c 128,-1,49
 706 152 706 152 706 236 c 0,50,51
 706 296 706 296 662.5 340.5 c 128,-1,52
 619 385 619 385 552.5 405.5 c 128,-1,53
 486 426 486 426 410 424 c 1,54,-1
 410 670 l 1,55,56
 465 670 465 670 512 678.5 c 128,-1,57
 559 687 559 687 598.5 705 c 128,-1,58
 638 723 638 723 661 755 c 128,-1,59
 684 787 684 787 684 829 c 0,0,1
EndSplineSet
EndChar

StartChar: four
Encoding: 52 52 23
Width: 1281
GlyphClass: 2
Flags: W
HStem: 59 256<417 697 985 1165>
VStem: 697 288<-216 59 317 733>
DStem2: 84 260 417 315 0.561269 0.827634<232.422 735.528>
LayerCount: 2
Fore
SplineSet
733 1217 m 1,0,-1
 985 1151 l 1,1,-1
 985 317 l 1,2,-1
 1165 317 l 1,3,-1
 1165 59 l 1,4,-1
 985 59 l 1,5,-1
 985 -217 l 1,6,-1
 697 -216 l 1,7,-1
 697 59 l 1,8,-1
 125 59 l 1,9,-1
 84 260 l 1,10,-1
 733 1217 l 1,0,-1
417 315 m 1,11,-1
 697 315 l 1,12,-1
 697 733 l 1,13,-1
 417 315 l 1,11,-1
EndSplineSet
EndChar

StartChar: five
Encoding: 53 53 24
Width: 1174
GlyphClass: 2
Flags: W
HStem: -182 268<262.182 687.203> 506 235<444.766 679.451> 924 245<441 965>
VStem: 160 281<699 924> 750 299<149.125 434.864>
LayerCount: 2
Fore
SplineSet
171 161 m 1,0,-1
 192 153 l 2,1,2
 206 148 206 148 247 135 c 128,-1,3
 288 122 288 122 328 112.5 c 128,-1,4
 368 103 368 103 422.5 94.5 c 128,-1,5
 477 86 477 86 523 86 c 0,6,7
 631 85 631 85 691 133.5 c 128,-1,8
 751 182 751 182 750 280 c 0,9,10
 749 383 749 383 698.5 445 c 128,-1,11
 648 507 648 507 550 506 c 1,12,13
 449 506 449 506 300 425 c 1,14,-1
 160 549 l 1,15,-1
 160 1169 l 1,16,-1
 965 1169 l 1,17,-1
 965 924 l 1,18,-1
 441 924 l 1,19,-1
 441 699 l 2,20,21
 441 701 441 701 457.5 710.5 c 128,-1,22
 474 720 474 720 509.5 730.5 c 128,-1,23
 545 741 545 741 584 741 c 0,24,25
 798 741 798 741 923.5 617.5 c 128,-1,26
 1049 494 1049 494 1049 284 c 0,27,28
 1049 140 1049 140 981.5 32.5 c 128,-1,29
 914 -75 914 -75 794.5 -130.5 c 128,-1,30
 675 -186 675 -186 521 -182 c 0,31,32
 424 -179 424 -179 319.5 -153 c 128,-1,33
 215 -127 215 -127 129 -90 c 1,34,-1
 171 161 l 1,0,-1
EndSplineSet
EndChar

StartChar: six
Encoding: 54 54 25
Width: 1267
GlyphClass: 2
Flags: W
HStem: -100 260<547.526 809.065> 621 253<567.198 825.44> 1338 20G<846 917.061>
VStem: 137 326<255.867 560.674> 875 314<229.715 570.986>
LayerCount: 2
Fore
SplineSet
463 457 m 1,0,1
 465 388 465 388 477.5 335 c 128,-1,2
 490 282 490 282 515.5 242 c 128,-1,3
 541 202 541 202 584 181 c 128,-1,4
 627 160 627 160 686 160 c 0,5,6
 730 160 730 160 763.5 174.5 c 128,-1,7
 797 189 797 189 818 213.5 c 128,-1,8
 839 238 839 238 852 274 c 128,-1,9
 865 310 865 310 870 348 c 128,-1,10
 875 386 875 386 875 433 c 0,11,12
 875 525 875 525 829 573 c 128,-1,13
 783 621 783 621 694 621 c 0,14,15
 563 621 563 621 463 526 c 1,16,-1
 463 457 l 1,0,1
1189 386 m 0,17,18
 1189 279 1189 279 1154.5 189.5 c 128,-1,19
 1120 100 1120 100 1056.5 36 c 128,-1,20
 993 -28 993 -28 898.5 -64 c 128,-1,21
 804 -100 804 -100 688 -100 c 0,22,23
 560 -100 560 -100 454.5 -56 c 128,-1,24
 349 -12 349 -12 280.5 63.5 c 128,-1,25
 212 139 212 139 174.5 240 c 128,-1,26
 137 341 137 341 137 456 c 0,27,28
 137 606 137 606 177.5 736 c 128,-1,29
 218 866 218 866 288 964 c 128,-1,30
 358 1062 358 1062 456.5 1140.5 c 128,-1,31
 555 1219 555 1219 668 1271.5 c 128,-1,32
 781 1324 781 1324 911 1358 c 1,33,-1
 991 1094 l 1,34,35
 696 1034 696 1034 565 860 c 1,36,37
 637 874 637 874 701 874 c 0,38,39
 810 874 810 874 903 834 c 128,-1,40
 996 794 996 794 1058 726.5 c 128,-1,41
 1120 659 1120 659 1154.5 570.5 c 128,-1,42
 1189 482 1189 482 1189 386 c 0,17,18
EndSplineSet
EndChar

StartChar: seven
Encoding: 55 55 26
Width: 1126
GlyphClass: 2
Flags: W
HStem: 911 258<130 693>
DStem2: 205 -104 502 -236 0.432731 0.901523<9.52008 1126.22>
LayerCount: 2
Fore
SplineSet
1008 1169 m 1,0,-1
 1090 989 l 1,1,-1
 502 -236 l 1,2,-1
 205 -104 l 1,3,-1
 693 911 l 1,4,-1
 130 911 l 1,5,-1
 130 1169 l 1,6,-1
 1008 1169 l 1,0,-1
EndSplineSet
EndChar

StartChar: eight
Encoding: 56 56 27
Width: 1306
GlyphClass: 2
Flags: W
HStem: -127 264<505.64 802.002> 510 244<523.839 782.645> 1069 254<515.627 790.749>
VStem: 139 322<176.37 442.314> 166 313<795.396 1032.22> 827 313<793.811 1032.22> 845 322<175.775 442.314>
LayerCount: 2
Fore
SplineSet
653.5 1323 m 128,-1,1
 756 1323 756 1323 843.5 1298 c 128,-1,2
 931 1273 931 1273 997.5 1225.5 c 128,-1,3
 1064 1178 1064 1178 1102 1103.5 c 128,-1,4
 1140 1029 1140 1029 1140 936 c 0,5,6
 1140 813 1140 813 1066 724 c 128,-1,7
 992 635 992 635 877 612 c 1,8,9
 933 604 933 604 985 575.5 c 128,-1,10
 1037 547 1037 547 1077.5 504 c 128,-1,11
 1118 461 1118 461 1142.5 401 c 128,-1,12
 1167 341 1167 341 1167 275 c 0,13,14
 1167 191 1167 191 1139 123 c 128,-1,15
 1111 55 1111 55 1062.5 9 c 128,-1,16
 1014 -37 1014 -37 947.5 -68 c 128,-1,17
 881 -99 881 -99 807.5 -113 c 128,-1,18
 734 -127 734 -127 653 -127 c 128,-1,19
 572 -127 572 -127 498.5 -113 c 128,-1,20
 425 -99 425 -99 359 -68 c 128,-1,21
 293 -37 293 -37 244.5 9 c 128,-1,22
 196 55 196 55 167.5 123 c 128,-1,23
 139 191 139 191 139 275 c 0,24,25
 139 341 139 341 163.5 401 c 128,-1,26
 188 461 188 461 229 504 c 128,-1,27
 270 547 270 547 322 575.5 c 128,-1,28
 374 604 374 604 429 612 c 1,29,30
 315 635 315 635 240.5 724 c 128,-1,31
 166 813 166 813 166 936 c 0,32,33
 166 1029 166 1029 204 1103.5 c 128,-1,34
 242 1178 242 1178 308.5 1225.5 c 128,-1,35
 375 1273 375 1273 463 1298 c 128,-1,0
 551 1323 551 1323 653.5 1323 c 128,-1,1
653.5 137 m 128,-1,37
 751 137 751 137 798 173 c 128,-1,38
 845 209 845 209 845 297 c 0,39,40
 845 394 845 394 796 452 c 128,-1,41
 747 510 747 510 653 510 c 128,-1,42
 559 510 559 510 510 452 c 128,-1,43
 461 394 461 394 461 297 c 1,44,45
 462 209 462 209 509 173 c 128,-1,36
 556 137 556 137 653.5 137 c 128,-1,37
653 754 m 128,-1,47
 741 754 741 754 784 794 c 128,-1,48
 827 834 827 834 827 922 c 0,49,50
 827 1069 827 1069 653 1069 c 128,-1,51
 479 1069 479 1069 479 922 c 1,52,53
 480 834 480 834 522.5 794 c 128,-1,46
 565 754 565 754 653 754 c 128,-1,47
EndSplineSet
EndChar

StartChar: nine
Encoding: 57 57 28
Width: 1265
GlyphClass: 2
Flags: W
HStem: 245 248<486.27 745.201> 928 260<483.789 763.013>
VStem: 116 315<551.867 872.122> 849 321<516.109 833.506>
LayerCount: 2
Fore
SplineSet
431 684 m 0,0,1
 430 599 430 599 477 546 c 128,-1,2
 524 493 524 493 601 493 c 0,3,4
 636 493 636 493 694.5 497.5 c 128,-1,5
 753 502 753 502 794 506 c 2,6,-1
 834 510 l 1,7,-1
 849 648 l 1,8,9
 848 712 848 712 835.5 761.5 c 128,-1,10
 823 811 823 811 797 849 c 128,-1,11
 771 887 771 887 728 907.5 c 128,-1,12
 685 928 685 928 626 928 c 256,13,14
 567 928 567 928 528 912.5 c 128,-1,15
 489 897 489 897 468.5 863.5 c 128,-1,16
 448 830 448 830 440 788.5 c 128,-1,17
 432 747 432 747 431 684 c 0,0,1
605 245 m 0,18,19
 385 245 385 245 250.5 365.5 c 128,-1,20
 116 486 116 486 116 698 c 0,21,22
 116 841 116 841 176.5 952.5 c 128,-1,23
 237 1064 237 1064 348 1126 c 128,-1,24
 459 1188 459 1188 604 1188 c 0,25,26
 873 1188 873 1188 1021.5 1041.5 c 128,-1,27
 1170 895 1170 895 1170 633 c 0,28,29
 1170 480 1170 480 1121 343 c 128,-1,30
 1072 206 1072 206 993 106 c 128,-1,31
 914 6 914 6 811 -73.5 c 128,-1,32
 708 -153 708 -153 603 -200 c 128,-1,33
 498 -247 498 -247 394 -270 c 1,34,-1
 316 -4 l 1,35,36
 467 27 467 27 576.5 98.5 c 128,-1,37
 686 170 686 170 747 263 c 1,38,39
 680 245 680 245 605 245 c 0,18,19
EndSplineSet
EndChar

StartChar: colon
Encoding: 58 58 29
Width: 749
GlyphClass: 2
Flags: W
HStem: 0 432<191 609> 736 432<191 609>
VStem: 191 418<0 432 736 1168>
LayerCount: 2
Fore
SplineSet
191 736 m 1,0,-1
 191 1168 l 1,1,-1
 609 1168 l 1,2,-1
 609 736 l 1,3,-1
 191 736 l 1,0,-1
191 0 m 1,4,-1
 191 432 l 1,5,-1
 609 432 l 1,6,-1
 609 0 l 1,7,-1
 191 0 l 1,4,-1
EndSplineSet
EndChar

StartChar: semicolon
Encoding: 59 59 30
Width: 749
GlyphClass: 2
Flags: W
HStem: -307 114<248.203 289.086> 736 432<191 609>
VStem: 191 418<0.625488 415 736 1168> 371 240<-115.679 0>
LayerCount: 2
Fore
SplineSet
193 0 m 1,0,-1
 193 415 l 1,1,-1
 611 415 l 1,2,-1
 611 53 l 2,3,4
 611 -14 611 -14 590.5 -68.5 c 128,-1,5
 570 -123 570 -123 539 -158.5 c 128,-1,6
 508 -194 508 -194 458 -224 c 128,-1,7
 408 -254 408 -254 362.5 -271.5 c 128,-1,8
 317 -289 317 -289 256 -307 c 1,9,-1
 194 -193 l 1,10,11
 289 -159 289 -159 330 -117 c 128,-1,12
 371 -75 371 -75 371 0 c 1,13,-1
 193 0 l 1,0,-1
191 736 m 1,14,-1
 191 1168 l 1,15,-1
 609 1168 l 1,16,-1
 609 736 l 1,17,-1
 191 736 l 1,14,-1
EndSplineSet
EndChar

StartChar: less
Encoding: 60 60 31
Width: 1194
GlyphClass: 2
Flags: W
DStem2: 132 712 427 594 0.853432 0.521203<190.261 828.232> 427 594 132 476 0.853432 -0.521203<0 637.971>
LayerCount: 2
Fore
SplineSet
132 476 m 1,0,-1
 132 712 l 1,1,-1
 972 1225 l 1,2,-1
 973 924 l 1,3,-1
 427 594 l 1,4,-1
 973 264 l 1,5,-1
 972 -37 l 1,6,-1
 132 476 l 1,0,-1
EndSplineSet
EndChar

StartChar: equal
Encoding: 61 61 32
Width: 1188
GlyphClass: 2
Flags: W
HStem: 269 233<77 1073> 644 233<77 1073>
LayerCount: 2
Fore
SplineSet
1073 644 m 1,0,-1
 77 644 l 1,1,-1
 77 877 l 1,2,-1
 1073 877 l 1,3,-1
 1073 644 l 1,0,-1
1073 269 m 1,4,-1
 77 269 l 1,5,-1
 77 502 l 1,6,-1
 1073 502 l 1,7,-1
 1073 269 l 1,4,-1
EndSplineSet
EndChar

StartChar: greater
Encoding: 62 62 33
Width: 1135
GlyphClass: 2
Flags: W
DStem2: 192 1225 191 924 0.853432 -0.521203<156.029 787.173> 191 264 192 -37 0.853432 0.521203<0 631.144>
LayerCount: 2
Fore
SplineSet
1032 476 m 1,0,-1
 192 -37 l 1,1,-1
 191 264 l 1,2,-1
 729 594 l 1,3,-1
 191 924 l 1,4,-1
 192 1225 l 1,5,-1
 1032 712 l 1,6,-1
 1032 476 l 1,0,-1
EndSplineSet
EndChar

StartChar: question
Encoding: 63 63 34
Width: 1081
GlyphClass: 2
Flags: W
HStem: -69 388<274.544 521.456> 1282 273<182.631 641.378>
VStem: 209 378<-2.85205 252.852> 221 321<420 687.151> 682 338<1019.18 1240.88>
LayerCount: 2
Fore
SplineSet
682 1132 m 0,0,1
 682 1172 682 1172 668.5 1200 c 128,-1,2
 655 1228 655 1228 634.5 1244 c 128,-1,3
 614 1260 614 1260 579 1268.5 c 128,-1,4
 544 1277 544 1277 512 1279.5 c 128,-1,5
 480 1282 480 1282 432 1282 c 0,6,7
 378 1282 378 1282 294 1264 c 128,-1,8
 210 1246 210 1246 152.5 1228.5 c 128,-1,9
 95 1211 95 1211 95 1210 c 2,10,-1
 14 1463 l 1,11,12
 69 1491 69 1491 108 1504 c 0,13,14
 261 1555 261 1555 462 1555 c 0,15,16
 580 1555 580 1555 677.5 1534 c 128,-1,17
 775 1513 775 1513 853.5 1468.5 c 128,-1,18
 932 1424 932 1424 976 1347 c 128,-1,19
 1020 1270 1020 1270 1020 1165 c 0,20,21
 1020 1139 1020 1139 1018 1115 c 128,-1,22
 1016 1091 1016 1091 1005.5 1049.5 c 128,-1,23
 995 1008 995 1008 976.5 972 c 128,-1,24
 958 936 958 936 922 891.5 c 128,-1,25
 886 847 886 847 837.5 810 c 128,-1,26
 789 773 789 773 712.5 737 c 128,-1,27
 636 701 636 701 542 674 c 1,28,-1
 542 420 l 1,29,-1
 221 420 l 1,30,-1
 221 829 l 1,31,32
 249 840 249 840 293 854 c 2,33,-1
 371 880 l 2,34,35
 405 891 405 891 447.5 907.5 c 128,-1,36
 490 924 490 924 521.5 939 c 128,-1,37
 553 954 553 954 584.5 975 c 128,-1,38
 616 996 616 996 636.5 1018.5 c 128,-1,39
 657 1041 657 1041 669.5 1070 c 128,-1,40
 682 1099 682 1099 682 1132 c 0,0,1
209 125 m 128,-1,42
 209 208 209 208 262.5 263.5 c 128,-1,43
 316 319 316 319 398 319 c 128,-1,44
 480 319 480 319 533.5 263.5 c 128,-1,45
 587 208 587 208 587 125 c 128,-1,46
 587 42 587 42 533.5 -13.5 c 128,-1,47
 480 -69 480 -69 398 -69 c 128,-1,48
 316 -69 316 -69 262.5 -13.5 c 128,-1,41
 209 42 209 42 209 125 c 128,-1,42
EndSplineSet
EndChar

StartChar: at
Encoding: 64 64 35
Width: 1959
GlyphClass: 2
Flags: W
HStem: -133 228<731.143 1244.96> 257 196<820.531 1041.58> 987 178<897.207 1228.52> 1292 240<782.813 1302.51>
VStem: 127 281<392.699 904.538> 531 245<503.069 857.246> 1215 135<466.183 526.157> 1598 268<581.477 1009.28>
DStem2: 1210.5 868 1431 931 0.171609 0.985165<-293.142 102.238>
LayerCount: 2
Fore
SplineSet
1053 987 m 0,0,1
 925 987 925 987 850.5 902 c 128,-1,2
 776 817 776 817 776 635 c 0,3,4
 776 562 776 562 813 507.5 c 128,-1,5
 850 453 850 453 911 453 c 0,6,7
 956 453 956 453 995 470.5 c 128,-1,8
 1034 488 1034 488 1062.5 515 c 128,-1,9
 1091 542 1091 542 1115.5 585.5 c 128,-1,10
 1140 629 1140 629 1156.5 670.5 c 128,-1,11
 1173 712 1173 712 1187.5 768.5 c 128,-1,12
 1202 825 1202 825 1210.5 868 c 128,-1,13
 1219 911 1219 911 1229 968 c 0,14,15
 1230 969 1230 969 1203 973.5 c 128,-1,16
 1176 978 1176 978 1132 982.5 c 128,-1,17
 1088 987 1088 987 1053 987 c 0,0,1
970 -133 m 0,18,19
 782 -134 782 -134 624.5 -78.5 c 128,-1,20
 467 -23 467 -23 357.5 78.5 c 128,-1,21
 248 180 248 180 187.5 324.5 c 128,-1,22
 127 469 127 469 127 642 c 0,23,24
 127 781 127 781 163.5 910.5 c 128,-1,25
 200 1040 200 1040 277 1153.5 c 128,-1,26
 354 1267 354 1267 462.5 1351 c 128,-1,27
 571 1435 571 1435 723.5 1483.5 c 128,-1,28
 876 1532 876 1532 1056 1532 c 0,29,30
 1216 1532 1216 1532 1361.5 1482.5 c 128,-1,31
 1507 1433 1507 1433 1619.5 1342 c 128,-1,32
 1732 1251 1732 1251 1799 1110 c 128,-1,33
 1866 969 1866 969 1866 800 c 0,34,35
 1866 688 1866 688 1833.5 588.5 c 128,-1,36
 1801 489 1801 489 1741.5 414.5 c 128,-1,37
 1682 340 1682 340 1622.5 305.5 c 128,-1,38
 1563 271 1563 271 1386 271 c 0,39,40
 1302 271 1302 271 1258.5 325.5 c 128,-1,41
 1215 380 1215 380 1215 475 c 0,42,43
 1215 500 1215 500 1218 527 c 1,44,45
 1183 428 1183 428 1144 371.5 c 128,-1,46
 1105 315 1105 315 1047 286 c 128,-1,47
 989 257 989 257 903 257 c 0,48,49
 855 257 855 257 809.5 267.5 c 128,-1,50
 764 278 764 278 715.5 306 c 128,-1,51
 667 334 667 334 631 378 c 128,-1,52
 595 422 595 422 563 492.5 c 128,-1,53
 531 563 531 563 531 659 c 0,54,55
 531 783 531 783 580.5 879 c 128,-1,56
 630 975 630 975 699 1037 c 128,-1,57
 768 1099 768 1099 857.5 1132 c 128,-1,58
 947 1165 947 1165 1048 1165 c 0,59,60
 1120 1165 1120 1165 1187.5 1152 c 128,-1,61
 1255 1139 1255 1139 1310.5 1114.5 c 128,-1,62
 1366 1090 1366 1090 1399.5 1049.5 c 128,-1,63
 1433 1009 1433 1009 1433 958 c 0,64,65
 1433 942 1433 942 1431 931 c 2,66,-1
 1350 466 l 1,67,68
 1481 488 1481 488 1539.5 561.5 c 128,-1,69
 1598 635 1598 635 1598 758 c 0,70,71
 1598 1023 1598 1023 1450 1157.5 c 128,-1,72
 1302 1292 1302 1292 1031 1292 c 0,73,74
 749 1292 749 1292 578.5 1110.5 c 128,-1,75
 408 929 408 929 408 642 c 0,76,77
 408 371 408 371 567.5 233 c 128,-1,78
 727 95 727 95 1011 95 c 0,79,80
 1137 95 1137 95 1275 150 c 1,81,-1
 1329 -58 l 1,82,83
 1266 -95 1266 -95 1170.5 -114 c 128,-1,84
 1075 -133 1075 -133 970 -133 c 0,18,19
EndSplineSet
EndChar

StartChar: A
Encoding: 65 65 36
Width: 1568
GlyphClass: 2
Flags: W
HStem: 0 21G<58 433.343 1128.66 1504> 350 170<585 977> 1558 20G<571.409 990.591>
DStem2: 58 0 427 0 0.312976 0.949761<115.488 482.645 658.814 1308.04> 984 1578 787 1137 0.312976 -0.949761<357.188 1002.66 1178.83 1545.98>
LayerCount: 2
Fore
SplineSet
787 1137 m 1,0,-1
 585 520 l 1,1,-1
 977 520 l 1,2,-1
 787 1137 l 1,0,-1
578 1578 m 1,3,-1
 984 1578 l 1,4,-1
 1504 0 l 1,5,-1
 1135 0 l 1,6,-1
 1024 350 l 1,7,-1
 538 350 l 1,8,-1
 427 0 l 1,9,-1
 58 0 l 1,10,-1
 578 1578 l 1,3,-1
EndSplineSet
EndChar

StartChar: B
Encoding: 66 66 37
Width: 1558
GlyphClass: 2
Flags: W
HStem: 0 254<557 973.961> 703 225<557 927.306> 1323 255<557 961.175>
VStem: 188 369<254 703 928 1323> 1026 326<1013.08 1264.79> 1045 364<323.973 623.053>
LayerCount: 2
Fore
SplineSet
557 1323 m 1,0,-1
 557 928 l 1,1,-1
 696 928 l 2,2,3
 1026 928 1026 928 1026 1135 c 0,4,5
 1026 1226 1026 1226 981 1265 c 0,6,7
 915 1323 915 1323 698 1323 c 2,8,-1
 557 1323 l 1,0,-1
676 254 m 2,9,10
 842 254 842 254 879 264 c 128,-1,11
 916 274 916 274 944 284 c 128,-1,12
 972 294 972 294 988 310 c 128,-1,13
 1004 326 1004 326 1018 348 c 0,14,15
 1045 388 1045 388 1045 465 c 128,-1,16
 1045 542 1045 542 1022 589.5 c 128,-1,17
 999 637 999 637 950 662 c 0,18,19
 867 703 867 703 694 703 c 2,20,-1
 557 703 l 1,21,-1
 557 254 l 1,22,-1
 676 254 l 2,9,10
606 1578 m 2,23,24
 878 1578 878 1578 1011 1541.5 c 128,-1,25
 1144 1505 1144 1505 1208 1460 c 0,26,27
 1352 1360 1352 1360 1352 1160 c 0,28,29
 1352 1026 1352 1026 1255 936.5 c 128,-1,30
 1158 847 1158 847 1010 832 c 1,31,32
 1301 788 1301 788 1378 625 c 0,33,34
 1409 559 1409 559 1409 461.5 c 128,-1,35
 1409 364 1409 364 1377 283 c 128,-1,36
 1345 202 1345 202 1288 149 c 128,-1,37
 1231 96 1231 96 1144 62 c 0,38,39
 987 0 987 0 726 0 c 2,40,-1
 188 0 l 1,41,-1
 188 1578 l 1,42,-1
 606 1578 l 2,23,24
EndSplineSet
EndChar

StartChar: C
Encoding: 67 67 38
Width: 1271
GlyphClass: 2
Flags: W
HStem: -29 268<631.451 1024.95> 1336 266<620.232 1032.63>
VStem: 76 367<472.35 1113.69>
LayerCount: 2
Fore
SplineSet
443 782 m 0,0,1
 443 239 443 239 803 239 c 0,2,3
 984 239 984 239 1143 348 c 1,4,-1
 1243 88 l 1,5,6
 1157 16 1157 16 942 -16 c 0,7,8
 859 -29 859 -29 769 -29 c 0,9,10
 445 -29 445 -29 260.5 184.5 c 128,-1,11
 76 398 76 398 76 791.5 c 128,-1,12
 76 1185 76 1185 257 1393.5 c 128,-1,13
 438 1602 438 1602 769 1602 c 0,14,15
 989 1602 989 1602 1168 1528 c 0,16,17
 1207 1511 1207 1511 1225 1499 c 2,18,-1
 1243 1487 l 1,19,-1
 1143 1227 l 1,20,-1
 1125 1240 l 1,21,-1
 1102 1255 l 2,22,23
 976 1336 976 1336 795.5 1336 c 128,-1,24
 615 1336 615 1336 529 1204 c 128,-1,25
 443 1072 443 1072 443 782 c 0,0,1
EndSplineSet
EndChar

StartChar: D
Encoding: 68 68 39
Width: 1610
GlyphClass: 2
Flags: W
HStem: 0 254<558 906.226> 1326 252<558 891.271>
VStem: 189 369<254 1326> 1118 370<474.976 1111.4>
LayerCount: 2
Fore
SplineSet
1114 650 m 0,0,1
 1118 708 1118 708 1118 785 c 128,-1,2
 1118 862 1118 862 1114 919.5 c 128,-1,3
 1110 977 1110 977 1097.5 1036.5 c 128,-1,4
 1085 1096 1085 1096 1064 1138 c 1,5,6
 1012 1236 1012 1236 912.5 1281 c 128,-1,7
 813 1326 813 1326 641 1326 c 2,8,-1
 558 1326 l 1,9,-1
 558 254 l 1,10,-1
 641 254 l 2,11,12
 900 254 900 254 999 354.5 c 128,-1,13
 1098 455 1098 455 1114 650 c 0,0,1
1488 782 m 0,14,15
 1488 403 1488 403 1290.5 201.5 c 128,-1,16
 1093 0 1093 0 680 0 c 2,17,-1
 189 0 l 1,18,-1
 189 1578 l 1,19,-1
 680 1578 l 2,20,21
 1488 1578 1488 1578 1488 782 c 0,14,15
EndSplineSet
EndChar

StartChar: E
Encoding: 69 69 40
Width: 1368
GlyphClass: 2
Flags: W
HStem: 0 266<557 1269> 703 226<557 1169> 1309 269<557 1259>
VStem: 189 368<266 703 929 1309>
LayerCount: 2
Fore
SplineSet
1269 0 m 1,0,-1
 189 0 l 1,1,-1
 189 1578 l 1,2,-1
 1259 1578 l 1,3,-1
 1259 1309 l 1,4,-1
 557 1309 l 1,5,-1
 557 929 l 1,6,-1
 1169 929 l 1,7,-1
 1169 703 l 1,8,-1
 557 703 l 1,9,-1
 557 266 l 1,10,-1
 1269 266 l 1,11,-1
 1269 0 l 1,0,-1
EndSplineSet
EndChar

StartChar: F
Encoding: 70 70 41
Width: 1281
GlyphClass: 2
Flags: W
HStem: 0 21G<189 557> 702 226<557 1183> 1309 269<557 1269>
VStem: 189 368<0 702 928 1309>
LayerCount: 2
Fore
SplineSet
557 702 m 1,0,-1
 557 0 l 1,1,-1
 189 0 l 1,2,-1
 189 1578 l 1,3,-1
 1269 1578 l 1,4,-1
 1269 1309 l 1,5,-1
 557 1309 l 1,6,-1
 557 928 l 1,7,-1
 1183 928 l 1,8,-1
 1183 702 l 1,9,-1
 557 702 l 1,0,-1
EndSplineSet
EndChar

StartChar: G
Encoding: 71 71 42
Width: 1612
GlyphClass: 2
Flags: W
HStem: -37 277<668.666 1021.1> 0 21G<1200.38 1445> 655 224<764 1122> 1335 264<712.331 1115.85>
VStem: 119 369<469.725 1068.81> 1122 323<283.891 655>
LayerCount: 2
Fore
SplineSet
1122 304 m 1,0,-1
 1122 655 l 1,1,-1
 764 655 l 1,2,-1
 764 879 l 1,3,-1
 1445 879 l 1,4,-1
 1445 0 l 1,5,-1
 1208 0 l 1,6,-1
 1160 126 l 1,7,8
 1120 50 1120 50 1020 6.5 c 128,-1,9
 920 -37 920 -37 792 -37 c 0,10,11
 479 -37 479 -37 299 169 c 128,-1,12
 119 375 119 375 119 770 c 0,13,14
 119 1158 119 1158 319 1378.5 c 128,-1,15
 519 1599 519 1599 889 1599 c 0,16,17
 984 1599 984 1599 1067.5 1586.5 c 128,-1,18
 1151 1574 1151 1574 1203 1556 c 128,-1,19
 1255 1538 1255 1538 1292.5 1520 c 128,-1,20
 1330 1502 1330 1502 1346 1490 c 1,21,-1
 1363 1479 l 1,22,-1
 1256 1233 l 1,23,24
 1234 1244 1234 1244 1196.5 1261 c 128,-1,25
 1159 1278 1159 1278 1063.5 1306.5 c 128,-1,26
 968 1335 968 1335 897 1335 c 0,27,28
 702 1335 702 1335 595 1191 c 128,-1,29
 488 1047 488 1047 488 768 c 0,30,31
 488 614 488 614 523 497.5 c 128,-1,32
 558 381 558 381 634.5 310.5 c 128,-1,33
 711 240 711 240 822 240 c 0,34,35
 1002 240 1002 240 1122 304 c 1,0,-1
EndSplineSet
EndChar

StartChar: H
Encoding: 72 72 43
Width: 1602
GlyphClass: 2
Flags: W
HStem: 0 21G<153 522 1080 1449> 704 226<522 1080> 1558 20G<153 522 1080 1449>
VStem: 153 369<0 704 930 1578> 1080 369<0 704 930 1578>
LayerCount: 2
Fore
SplineSet
1080 0 m 1,0,-1
 1080 704 l 1,1,-1
 522 704 l 1,2,-1
 522 0 l 1,3,-1
 153 0 l 1,4,-1
 153 1578 l 1,5,-1
 522 1578 l 1,6,-1
 522 930 l 1,7,-1
 1080 930 l 1,8,-1
 1080 1578 l 1,9,-1
 1449 1578 l 1,10,-1
 1449 0 l 1,11,-1
 1080 0 l 1,0,-1
EndSplineSet
EndChar

StartChar: I
Encoding: 73 73 44
Width: 864
GlyphClass: 2
Flags: W
HStem: 0 170<77 247 616 787> 1407 171<77 247 616 787>
VStem: 247 369<170 1407>
LayerCount: 2
Fore
SplineSet
77 170 m 1,0,-1
 247 170 l 1,1,-1
 247 1407 l 1,2,-1
 77 1407 l 1,3,-1
 77 1578 l 1,4,-1
 787 1578 l 1,5,-1
 787 1407 l 1,6,-1
 616 1407 l 1,7,-1
 616 170 l 1,8,-1
 787 170 l 1,9,-1
 787 0 l 1,10,-1
 77 0 l 1,11,-1
 77 170 l 1,0,-1
EndSplineSet
EndChar

StartChar: J
Encoding: 74 74 45
Width: 895
GlyphClass: 2
Flags: W
HStem: 1558 20G<348 717>
VStem: 348 369<282.988 1578>
LayerCount: 2
Fore
SplineSet
31 154 m 1,0,1
 153 168 153 168 219.5 202.5 c 128,-1,2
 286 237 286 237 317 308.5 c 128,-1,3
 348 380 348 380 348 506 c 2,4,-1
 348 1578 l 1,5,-1
 717 1578 l 1,6,-1
 717 539 l 1,7,8
 725 214 725 214 582.5 67.5 c 128,-1,9
 440 -79 440 -79 125 -86 c 1,10,-1
 31 154 l 1,0,1
EndSplineSet
EndChar

StartChar: K
Encoding: 75 75 46
Width: 1511
GlyphClass: 2
Flags: W
HStem: 0 21G<191 560 1121.15 1521> 1558 20G<191 560 1076.77 1466>
VStem: 191 369<0 676 901 1578>
DStem2: 933 797 634 676 0.593681 -0.8047<0 761.864> 642 901 933 797 0.563698 0.825981<78.134 811.726>
LayerCount: 2
Fore
SplineSet
560 676 m 1,0,-1
 560 0 l 1,1,-1
 191 0 l 1,2,-1
 191 1578 l 1,3,-1
 560 1578 l 1,4,-1
 560 901 l 1,5,-1
 642 901 l 1,6,-1
 1090 1578 l 1,7,-1
 1466 1578 l 1,8,-1
 933 797 l 1,9,-1
 1521 0 l 1,10,-1
 1136 0 l 1,11,-1
 634 676 l 1,12,-1
 560 676 l 1,0,-1
EndSplineSet
EndChar

StartChar: L
Encoding: 76 76 47
Width: 1190
GlyphClass: 2
Flags: W
HStem: 0 253<507 1190> 1558 20G<139 507>
VStem: 139 368<253 1578>
LayerCount: 2
Fore
SplineSet
1190 0 m 1,0,-1
 139 0 l 1,1,-1
 139 1578 l 1,2,-1
 507 1578 l 1,3,-1
 507 253 l 1,4,-1
 1190 253 l 1,5,-1
 1190 0 l 1,0,-1
EndSplineSet
EndChar

StartChar: M
Encoding: 77 77 48
Width: 2004
GlyphClass: 2
Flags: W
HStem: 0 21G<171 477 828.401 1185.54 1534 1840> 1558 20G<171 612.701 1397.06 1840>
VStem: 171 306<0 1085> 1534 306<0 1085>
DStem2: 606 1578 477 1085 0.317686 -0.948196<426.479 1233.92> 998 408 1179 0 0.327832 0.944736<0 815.304>
LayerCount: 2
Fore
SplineSet
835 0 m 1,0,-1
 477 1085 l 1,1,-1
 477 0 l 1,2,-1
 171 0 l 1,3,-1
 171 1578 l 1,4,-1
 606 1578 l 1,5,-1
 998 408 l 1,6,-1
 1404 1578 l 1,7,-1
 1840 1578 l 1,8,-1
 1840 0 l 1,9,-1
 1534 0 l 1,10,-1
 1534 1085 l 1,11,-1
 1179 0 l 1,12,-1
 835 0 l 1,0,-1
EndSplineSet
EndChar

StartChar: N
Encoding: 78 78 49
Width: 1643
GlyphClass: 2
Flags: W
HStem: 0 21G<149 478 1088.42 1481> 1558 20G<149 554.539 1154 1481>
VStem: 149 329<0 1074> 1154 327<519 1578>
DStem2: 543 1578 478 1074 0.501163 -0.865353<403.562 1222.62>
LayerCount: 2
Fore
SplineSet
1481 0 m 1,0,-1
 1100 0 l 1,1,-1
 478 1074 l 1,2,-1
 478 0 l 1,3,-1
 149 0 l 1,4,-1
 149 1578 l 1,5,-1
 543 1578 l 1,6,-1
 1154 519 l 1,7,-1
 1154 1578 l 1,8,-1
 1481 1578 l 1,9,-1
 1481 0 l 1,0,-1
EndSplineSet
EndChar

StartChar: O
Encoding: 79 79 50
Width: 1627
GlyphClass: 2
Flags: W
HStem: -28 266<645.946 980.054> 1339 266<644.729 981.271>
VStem: 103 369<457.865 1117.53> 1154 369<457.865 1117.53>
LayerCount: 2
Fore
SplineSet
813 1605 m 128,-1,1
 1170 1605 1170 1605 1346.5 1390.5 c 128,-1,2
 1523 1176 1523 1176 1523 789 c 0,3,4
 1523 599 1523 599 1480.5 449.5 c 128,-1,5
 1438 300 1438 300 1352 193 c 128,-1,6
 1266 86 1266 86 1130 29 c 128,-1,7
 994 -28 994 -28 813 -28 c 128,-1,8
 632 -28 632 -28 496 29 c 128,-1,9
 360 86 360 86 274 193 c 128,-1,10
 188 300 188 300 145.5 449.5 c 128,-1,11
 103 599 103 599 103 789 c 0,12,13
 103 1176 103 1176 279.5 1390.5 c 128,-1,0
 456 1605 456 1605 813 1605 c 128,-1,1
813 1339 m 128,-1,15
 734 1339 734 1339 674 1310.5 c 128,-1,16
 614 1282 614 1282 576 1234 c 128,-1,17
 538 1186 538 1186 514.5 1114.5 c 128,-1,18
 491 1043 491 1043 481.5 964.5 c 128,-1,19
 472 886 472 886 472 789 c 256,20,21
 472 692 472 692 481.5 613.5 c 128,-1,22
 491 535 491 535 514.5 463.5 c 128,-1,23
 538 392 538 392 576 343.5 c 128,-1,24
 614 295 614 295 674 266.5 c 128,-1,25
 734 238 734 238 813 238 c 128,-1,26
 892 238 892 238 952 266.5 c 128,-1,27
 1012 295 1012 295 1050 343.5 c 128,-1,28
 1088 392 1088 392 1111.5 463.5 c 128,-1,29
 1135 535 1135 535 1144.5 613.5 c 128,-1,30
 1154 692 1154 692 1154 789 c 256,31,32
 1154 886 1154 886 1144.5 964.5 c 128,-1,33
 1135 1043 1135 1043 1111.5 1114.5 c 128,-1,34
 1088 1186 1088 1186 1050 1234 c 128,-1,35
 1012 1282 1012 1282 952 1310.5 c 128,-1,14
 892 1339 892 1339 813 1339 c 128,-1,15
EndSplineSet
EndChar

StartChar: P
Encoding: 80 80 51
Width: 1456
GlyphClass: 2
Flags: W
HStem: 0 21G<139 508> 552 220<508 831.497> 1354 224<508 838.22>
VStem: 139 369<0 552 772 1354> 972 368<891.514 1232.07>
LayerCount: 2
Fore
SplineSet
568 772 m 2,0,1
 641 772 641 772 699.5 780 c 128,-1,2
 758 788 758 788 810 807.5 c 128,-1,3
 862 827 862 827 897 857.5 c 128,-1,4
 932 888 932 888 952 936 c 128,-1,5
 972 984 972 984 972 1048 c 0,6,7
 972 1135 972 1135 947 1195.5 c 128,-1,8
 922 1256 922 1256 872 1290.5 c 128,-1,9
 822 1325 822 1325 756 1339.5 c 128,-1,10
 690 1354 690 1354 598 1354 c 2,11,-1
 508 1354 l 1,12,-1
 508 772 l 1,13,-1
 568 772 l 2,0,1
1340 1052 m 0,14,15
 1340 934 1340 934 1303.5 846 c 128,-1,16
 1267 758 1267 758 1202.5 702.5 c 128,-1,17
 1138 647 1138 647 1039 613 c 128,-1,18
 940 579 940 579 828 565.5 c 128,-1,19
 716 552 716 552 570 552 c 2,20,-1
 508 552 l 1,21,-1
 508 0 l 1,22,-1
 139 0 l 1,23,-1
 139 1578 l 1,24,-1
 598 1578 l 2,25,26
 737 1578 737 1578 845 1563.5 c 128,-1,27
 953 1549 953 1549 1048.5 1513 c 128,-1,28
 1144 1477 1144 1477 1206.5 1418.5 c 128,-1,29
 1269 1360 1269 1360 1304.5 1267.5 c 128,-1,30
 1340 1175 1340 1175 1340 1052 c 0,14,15
EndSplineSet
EndChar

StartChar: Q
Encoding: 81 81 52
Width: 1627
GlyphClass: 2
Flags: W
HStem: -420 21G<1092.43 1133.71> 1339 266<645.094 980.906>
VStem: 103 369<458.621 1116.43> 1154 369<458.823 1116.43>
LayerCount: 2
Fore
SplineSet
813 1339 m 128,-1,1
 734 1339 734 1339 674.5 1310.5 c 128,-1,2
 615 1282 615 1282 577 1234 c 128,-1,3
 539 1186 539 1186 515 1114.5 c 128,-1,4
 491 1043 491 1043 481.5 964.5 c 128,-1,5
 472 886 472 886 472 789 c 128,-1,6
 472 692 472 692 481.5 613.5 c 128,-1,7
 491 535 491 535 515 463.5 c 128,-1,8
 539 392 539 392 576.5 343.5 c 128,-1,9
 614 295 614 295 674 266.5 c 128,-1,10
 734 238 734 238 813 238 c 128,-1,11
 892 238 892 238 952 266.5 c 128,-1,12
 1012 295 1012 295 1049.5 343.5 c 128,-1,13
 1087 392 1087 392 1111 463.5 c 128,-1,14
 1135 535 1135 535 1144.5 613.5 c 128,-1,15
 1154 692 1154 692 1154 789 c 128,-1,16
 1154 886 1154 886 1144.5 964.5 c 128,-1,17
 1135 1043 1135 1043 1111 1114.5 c 128,-1,18
 1087 1186 1087 1186 1049 1234 c 128,-1,19
 1011 1282 1011 1282 951.5 1310.5 c 128,-1,0
 892 1339 892 1339 813 1339 c 128,-1,1
813 1605 m 128,-1,21
 1170 1605 1170 1605 1346.5 1390.5 c 128,-1,22
 1523 1176 1523 1176 1523 789 c 0,23,24
 1523 570 1523 570 1467.5 406 c 128,-1,25
 1412 242 1412 242 1294.5 134 c 128,-1,26
 1177 26 1177 26 1001 -10 c 1,27,-1
 1289 -234 l 1,28,-1
 1115 -420 l 1,29,-1
 659 -16 l 1,30,31
 518 6 518 6 411.5 72 c 128,-1,32
 305 138 305 138 237.5 242.5 c 128,-1,33
 170 347 170 347 136.5 483.5 c 128,-1,34
 103 620 103 620 103 789 c 0,35,36
 103 1176 103 1176 279.5 1390.5 c 128,-1,20
 456 1605 456 1605 813 1605 c 128,-1,21
EndSplineSet
EndChar

StartChar: R
Encoding: 82 82 53
Width: 1473
GlyphClass: 2
Flags: W
HStem: 0 21G<139 508 999 1364> 676 223<508 876.748> 1354 224<508 894.196>
VStem: 139 369<0 676 899 1354> 984 368<991.105 1273.36> 999 365<0 573.111>
LayerCount: 2
Fore
SplineSet
885 786 m 1,0,1
 994 775 994 775 1075.5 751 c 128,-1,2
 1157 727 1157 727 1225 682 c 128,-1,3
 1293 637 1293 637 1328.5 561.5 c 128,-1,4
 1364 486 1364 486 1364 382 c 2,5,-1
 1364 0 l 1,6,-1
 999 0 l 1,7,-1
 999 407 l 2,8,9
 999 487 999 487 973.5 541 c 128,-1,10
 948 595 948 595 896.5 624 c 128,-1,11
 845 653 845 653 781 664.5 c 128,-1,12
 717 676 717 676 626 676 c 2,13,-1
 508 676 l 1,14,-1
 508 0 l 1,15,-1
 139 0 l 1,16,-1
 139 1578 l 1,17,-1
 558 1578 l 2,18,19
 745 1578 745 1578 881.5 1561 c 128,-1,20
 1018 1544 1018 1544 1108.5 1512.5 c 128,-1,21
 1199 1481 1199 1481 1253 1430 c 128,-1,22
 1307 1379 1307 1379 1329.5 1317.5 c 128,-1,23
 1352 1256 1352 1256 1352 1173 c 0,24,25
 1352 1091 1352 1091 1329.5 1027.5 c 128,-1,26
 1307 964 1307 964 1266.5 921 c 128,-1,27
 1226 878 1226 878 1166.5 849 c 128,-1,28
 1107 820 1107 820 1038.5 805 c 128,-1,29
 970 790 970 790 885 786 c 1,0,1
551 899 m 2,30,31
 642 899 642 899 706.5 904.5 c 128,-1,32
 771 910 771 910 826 925 c 128,-1,33
 881 940 881 940 914 966 c 128,-1,34
 947 992 947 992 965.5 1033 c 128,-1,35
 984 1074 984 1074 984 1130 c 0,36,37
 984 1184 984 1184 970 1222 c 128,-1,38
 956 1260 956 1260 928 1286 c 128,-1,39
 900 1312 900 1312 851.5 1327 c 128,-1,40
 803 1342 803 1342 741.5 1348 c 128,-1,41
 680 1354 680 1354 593 1354 c 2,42,-1
 508 1354 l 1,43,-1
 508 899 l 1,44,-1
 551 899 l 2,30,31
EndSplineSet
EndChar

StartChar: S
Encoding: 83 83 54
Width: 1367
GlyphClass: 2
Flags: W
HStem: -41 278<442.539 879.469> 1194 21G<1118 1128.76> 1331 278<475.93 942.776>
VStem: 93 335<1098.61 1283.65> 923 342<280.508 504.237>
DStem2: 550 1055 359 748 0.925129 -0.379652<-144.97 526.909>
LayerCount: 2
Fore
SplineSet
1265 466 m 0,0,1
 1265 -41 1265 -41 681 -41 c 0,2,3
 594 -41 594 -41 505 -25 c 128,-1,4
 416 -9 416 -9 357.5 10 c 128,-1,5
 299 29 299 29 237.5 57.5 c 128,-1,6
 176 86 176 86 158 96 c 2,7,-1
 119 120 l 1,8,-1
 117 121 l 1,9,-1
 198 398 l 1,10,11
 209 391 209 391 228.5 380 c 128,-1,12
 248 369 248 369 305 341 c 128,-1,13
 362 313 362 313 415 292 c 128,-1,14
 468 271 468 271 535 253.5 c 128,-1,15
 602 236 602 236 652 237 c 0,16,17
 699 238 699 238 726.5 239 c 128,-1,18
 754 240 754 240 790 245 c 128,-1,19
 826 250 826 250 846.5 260 c 128,-1,20
 867 270 867 270 886.5 286.5 c 128,-1,21
 906 303 906 303 914.5 329 c 128,-1,22
 923 355 923 355 923 390 c 0,23,24
 923 454 923 454 892.5 498 c 128,-1,25
 862 542 862 542 783 574 c 2,26,-1
 359 748 l 2,27,28
 228 802 228 802 160.5 910 c 128,-1,29
 93 1018 93 1018 93 1159 c 0,30,31
 93 1249 93 1249 126.5 1324.5 c 128,-1,32
 160 1400 160 1400 216.5 1451.5 c 128,-1,33
 273 1503 273 1503 348.5 1539.5 c 128,-1,34
 424 1576 424 1576 506.5 1592.5 c 128,-1,35
 589 1609 589 1609 675 1609 c 0,36,37
 751 1609 751 1609 834.5 1594.5 c 128,-1,38
 918 1580 918 1580 983 1560 c 128,-1,39
 1048 1540 1048 1540 1102.5 1520 c 128,-1,40
 1157 1500 1157 1500 1187 1486 c 2,41,-1
 1216 1472 l 1,42,-1
 1122 1194 l 1,43,44
 1114 1200 1114 1200 1100 1209 c 128,-1,45
 1086 1218 1086 1218 1041.5 1241.5 c 128,-1,46
 997 1265 997 1265 951.5 1283 c 128,-1,47
 906 1301 906 1301 840.5 1316 c 128,-1,48
 775 1331 775 1331 713 1331 c 0,49,50
 673 1331 673 1331 642.5 1329.5 c 128,-1,51
 612 1328 612 1328 577 1323 c 128,-1,52
 542 1318 542 1318 517 1308 c 128,-1,53
 492 1298 492 1298 470.5 1282.5 c 128,-1,54
 449 1267 449 1267 438.5 1243 c 128,-1,55
 428 1219 428 1219 428 1188 c 0,56,57
 428 1164 428 1164 434 1145.5 c 128,-1,58
 440 1127 440 1127 469 1101.5 c 128,-1,59
 498 1076 498 1076 550 1055 c 2,60,-1
 906 914 l 2,61,62
 1054 855 1054 855 1159.5 735 c 128,-1,63
 1265 615 1265 615 1265 466 c 0,0,1
EndSplineSet
EndChar

StartChar: T
Encoding: 84 84 55
Width: 1157
GlyphClass: 2
Flags: W
HStem: 0 21G<397 766> 1324 254<-12 397 766 1168>
VStem: 397 369<0 1324>
LayerCount: 2
Fore
SplineSet
1168 1324 m 1,0,-1
 766 1324 l 1,1,-1
 766 0 l 1,2,-1
 397 0 l 1,3,-1
 397 1324 l 1,4,-1
 -12 1324 l 1,5,-1
 -12 1578 l 1,6,-1
 1168 1578 l 1,7,-1
 1168 1324 l 1,0,-1
EndSplineSet
EndChar

StartChar: U
Encoding: 85 85 56
Width: 1615
GlyphClass: 2
Flags: W
HStem: -37 266<632.195 981.671> 1558 20G<140 509 1106 1475>
VStem: 140 369<381.672 1578> 1106 369<377.347 1578>
LayerCount: 2
Fore
SplineSet
509 719 m 1,0,1
 512 536 512 536 523 483.5 c 128,-1,2
 534 431 534 431 545 395.5 c 128,-1,3
 556 360 556 360 571.5 337 c 128,-1,4
 587 314 587 314 609 292 c 128,-1,5
 631 270 631 270 660 257 c 0,6,7
 721 229 721 229 790 229 c 128,-1,8
 859 229 859 229 900 237.5 c 128,-1,9
 941 246 941 246 971 265 c 128,-1,10
 1001 284 1001 284 1023.5 307 c 128,-1,11
 1046 330 1046 330 1060.5 366 c 128,-1,12
 1075 402 1075 402 1084.5 436.5 c 128,-1,13
 1094 471 1094 471 1098 521 c 0,14,15
 1106 604 1106 604 1106 719 c 2,16,-1
 1106 1578 l 1,17,-1
 1475 1578 l 1,18,-1
 1475 723 l 2,19,20
 1475 350 1475 350 1315.5 156.5 c 128,-1,21
 1156 -37 1156 -37 808 -37 c 0,22,23
 455 -37 455 -37 294 163 c 0,24,25
 140 355 140 355 140 723 c 2,26,-1
 140 1578 l 1,27,-1
 509 1578 l 1,28,-1
 509 719 l 1,0,1
EndSplineSet
EndChar

StartChar: V
Encoding: 86 86 57
Width: 1331
GlyphClass: 2
Flags: W
HStem: 0 21G<475.79 854.236> 1558 20G<-8 342.214 986.009 1340>
DStem2: 336 1578 -8 1578 0.296551 -0.955017<0 1125.69> 670 503 848 0 0.297655 0.954674<0 1122.12>
LayerCount: 2
Fore
SplineSet
336 1578 m 1,0,-1
 670 503 l 1,1,-1
 992 1578 l 1,2,-1
 1340 1578 l 1,3,-1
 848 0 l 1,4,-1
 482 0 l 1,5,-1
 -8 1578 l 1,6,-1
 336 1578 l 1,0,-1
EndSplineSet
EndChar

StartChar: W
Encoding: 87 87 58
Width: 1996
GlyphClass: 2
Flags: W
HStem: 0 21G<355.716 769.867 1229.12 1642.28> 1558 20G<22 382.841 1616.16 1976>
DStem2: 379 1578 22 1578 0.209444 -0.977821<0 1150.39> 596 448 766 0 0.189845 0.981814<0 819.741> 1196 1565 999 1205 0.19063 -0.981662<315.844 1135.98> 1403 448 1638 0 0.209444 0.977821<0 1150.39>
LayerCount: 2
Fore
SplineSet
803 1565 m 1,0,-1
 1196 1565 l 1,1,-1
 1403 448 l 1,2,-1
 1620 1578 l 1,3,-1
 1976 1578 l 1,4,-1
 1638 0 l 1,5,-1
 1233 0 l 1,6,-1
 999 1205 l 1,7,-1
 766 0 l 1,8,-1
 360 0 l 1,9,-1
 22 1578 l 1,10,-1
 379 1578 l 1,11,-1
 596 448 l 1,12,-1
 803 1565 l 1,0,-1
EndSplineSet
EndChar

StartChar: X
Encoding: 88 88 59
Width: 1368
GlyphClass: 2
Flags: W
HStem: 0 21G<-5 398.065 969.935 1373> 1558 20G<-5 389.977 978.023 1373>
DStem2: 378 1578 -5 1578 0.534472 -0.845186<0 0 1079.73 1656.53> -5 0 386 0 0.530289 0.847817<207.343 784.191> 684 1067 890 797 0.530289 0.847817<0 595.503> 890 797 684 494 0.534472 -0.845186<145.99 722.785>
LayerCount: 2
Fore
SplineSet
684 1067 m 1,0,-1
 990 1578 l 1,1,-1
 1373 1578 l 1,2,-1
 890 797 l 1,3,-1
 1373 0 l 1,4,-1
 982 0 l 1,5,-1
 684 494 l 1,6,-1
 386 0 l 1,7,-1
 -5 0 l 1,8,-1
 478 797 l 1,9,-1
 -5 1578 l 1,10,-1
 378 1578 l 1,11,-1
 684 1067 l 1,0,-1
EndSplineSet
EndChar

StartChar: Y
Encoding: 89 89 60
Width: 1236
GlyphClass: 2
Flags: W
HStem: 0 21G<442 790> 1558 20G<-62 315.212 916.788 1300>
VStem: 442 348<0 518>
DStem2: 306 1578 -62 1578 0.429404 -0.903112<0 740.91> 616 905 790 518 0.43356 0.901125<0 740.861>
LayerCount: 2
Fore
SplineSet
616 905 m 1,0,-1
 926 1578 l 1,1,-1
 1300 1578 l 1,2,-1
 790 518 l 1,3,-1
 790 0 l 1,4,-1
 442 0 l 1,5,-1
 442 518 l 1,6,-1
 -62 1578 l 1,7,-1
 306 1578 l 1,8,-1
 616 905 l 1,0,-1
EndSplineSet
EndChar

StartChar: Z
Encoding: 90 90 61
Width: 1231
GlyphClass: 2
Flags: W
HStem: 0 296<466 1163> 1324 254<53 755>
DStem2: 53 251 466 296 0.54748 0.836818<263.766 1282.24>
LayerCount: 2
Fore
SplineSet
1161 1578 m 1,0,-1
 1161 1354 l 1,1,-1
 466 296 l 1,2,-1
 1163 296 l 1,3,-1
 1163 0 l 1,4,-1
 53 0 l 1,5,-1
 53 251 l 1,6,-1
 755 1324 l 1,7,-1
 53 1324 l 1,8,-1
 53 1578 l 1,9,-1
 1161 1578 l 1,0,-1
EndSplineSet
EndChar

StartChar: bracketleft
Encoding: 91 91 62
Width: 1157
GlyphClass: 2
Flags: W
HStem: 0 262<561 979> 1316 262<561 979>
VStem: 229 750<0 262 1316 1578> 229 332<262 1316>
LayerCount: 2
Fore
SplineSet
229 1578 m 1,0,-1
 979 1578 l 1,1,-1
 979 1316 l 1,2,-1
 561 1316 l 1,3,-1
 561 262 l 1,4,-1
 979 262 l 1,5,-1
 979 0 l 1,6,-1
 229 0 l 1,7,-1
 229 1578 l 1,0,-1
EndSplineSet
EndChar

StartChar: backslash
Encoding: 92 92 63
Width: 1181
GlyphClass: 2
Flags: W
HStem: 1667 20G<428.101 493.628>
DStem2: 487 1687 166 1578 0.314742 -0.949177<2.42825 1815.15>
LayerCount: 2
Fore
SplineSet
487 1687 m 1,0,-1
 1058 -36 l 1,1,-1
 738 -147 l 1,2,-1
 166 1578 l 1,3,-1
 487 1687 l 1,0,-1
EndSplineSet
EndChar

StartChar: bracketright
Encoding: 93 93 64
Width: 1157
GlyphClass: 2
Flags: W
HStem: 0 262<229 645> 1316 262<229 645>
VStem: 229 750<0 262 1316 1578> 645 334<262 1316>
LayerCount: 2
Fore
SplineSet
229 1578 m 1,0,-1
 979 1578 l 1,1,-1
 979 0 l 1,2,-1
 229 0 l 1,3,-1
 229 262 l 1,4,-1
 645 262 l 1,5,-1
 645 1316 l 1,6,-1
 229 1316 l 1,7,-1
 229 1578 l 1,0,-1
EndSplineSet
EndChar

StartChar: asciicircum
Encoding: 94 94 65
Width: 1229
GlyphClass: 2
Flags: W
HStem: 563 619<487 501 725 741>
LayerCount: 2
Fore
SplineSet
487 1182 m 1,0,-1
 741 1182 l 1,1,-1
 999 563 l 1,2,-1
 725 563 l 1,3,-1
 613 947 l 1,4,-1
 501 563 l 1,5,-1
 229 563 l 1,6,-1
 487 1182 l 1,0,-1
EndSplineSet
EndChar

StartChar: underscore
Encoding: 95 95 66
Width: 1130
GlyphClass: 2
Flags: W
HStem: -98 262<67 1063>
LayerCount: 2
Fore
SplineSet
1063 -98 m 1,0,-1
 67 -98 l 1,1,-1
 67 164 l 1,2,-1
 1063 164 l 1,3,-1
 1063 -98 l 1,0,-1
EndSplineSet
EndChar

StartChar: grave
Encoding: 96 96 67
Width: 862
GlyphClass: 2
Flags: W
VStem: 171 515
LayerCount: 2
Fore
SplineSet
529 308 m 1,0,-1
 171 850 l 1,1,-1
 483 995 l 1,2,-1
 686 382 l 1,3,-1
 529 308 l 1,0,-1
EndSplineSet
EndChar

StartChar: a
Encoding: 97 97 68
Width: 1249
GlyphClass: 2
Flags: W
HStem: -26 243<483.661 684.949> 0 21G<849.6 1127> 547 182<493.109 778.929> 954 242<342.734 727.476>
VStem: 94 350<260.365 502.156> 779 348<267.156 544.45 717 919.029>
LayerCount: 2
Fore
SplineSet
499 511 m 128,-1,1
 444 475 444 475 444 390 c 128,-1,2
 444 305 444 305 483 261 c 128,-1,3
 522 217 522 217 592 217 c 0,4,5
 702 217 702 217 779 310 c 1,6,-1
 779 539 l 1,7,8
 781 541 781 541 740.5 544 c 128,-1,9
 700 547 700 547 683 547 c 0,10,0
 554 547 554 547 499 511 c 128,-1,1
624 954 m 0,11,12
 423 954 423 954 251 873 c 1,13,-1
 168 1082 l 1,14,15
 352 1196 352 1196 636 1196 c 0,16,17
 962 1196 962 1196 1066 988 c 0,18,19
 1127 868 1127 868 1127 674 c 2,20,-1
 1127 0 l 1,21,-1
 856 0 l 1,22,-1
 808 150 l 1,23,24
 757 62 757 62 685 18 c 128,-1,25
 613 -26 613 -26 501 -26 c 0,26,27
 308 -26 308 -26 201 74.5 c 128,-1,28
 94 175 94 175 94 361.5 c 128,-1,29
 94 548 94 548 234 638.5 c 128,-1,30
 374 729 374 729 626 729 c 0,31,32
 714 729 714 729 779 717 c 1,33,34
 779 833 779 833 769 859 c 0,35,36
 748 916 748 916 714.5 935 c 128,-1,37
 681 954 681 954 624 954 c 0,11,12
EndSplineSet
EndChar

StartChar: b
Encoding: 98 98 69
Width: 1372
GlyphClass: 2
Flags: W
HStem: -26 226<624.638 853.72> 0 21G<189 443.157> 972 224<658.398 877.831> 1705 20G<390.638 540>
VStem: 189 351<256.273 895.422 1060 1678> 944 350<313.072 892.929>
LayerCount: 2
Fore
SplineSet
823 -26 m 0,0,1
 572 -26 572 -26 510 166 c 1,2,-1
 434 0 l 1,3,-1
 189 0 l 1,4,-1
 189 1678 l 1,5,-1
 540 1725 l 1,6,-1
 540 1060 l 1,7,8
 660 1196 660 1196 856 1196 c 0,9,10
 995 1196 995 1196 1094 1119 c 0,11,12
 1294 965 1294 965 1294 586 c 0,13,14
 1294 118 1294 118 1006 6 c 0,15,16
 926 -26 926 -26 823 -26 c 0,0,1
742 200 m 0,17,18
 944 200 944 200 944 586 c 0,19,20
 944 812 944 812 902 894 c 1,21,22
 860 972 860 972 773 972 c 0,23,24
 658 972 658 972 540 856 c 1,25,-1
 540 296 l 1,26,27
 628 200 628 200 742 200 c 0,17,18
EndSplineSet
EndChar

StartChar: c
Encoding: 99 99 70
Width: 1127
GlyphClass: 2
Flags: W
HStem: -25 236<582.024 923.892> 960 236<555.328 923.033>
VStem: 100 352<355.998 844.054>
LayerCount: 2
Fore
SplineSet
144 318 m 128,-1,1
 100 433 100 433 100 571.5 c 128,-1,2
 100 710 100 710 131 808.5 c 128,-1,3
 162 907 162 907 216 977 c 128,-1,4
 270 1047 270 1047 342 1097 c 0,5,6
 485 1196 485 1196 664 1196 c 0,7,8
 797 1196 797 1196 884.5 1170.5 c 128,-1,9
 972 1145 972 1145 1065 1096 c 1,10,-1
 1000 871 l 1,11,12
 973 897 973 897 889 928.5 c 128,-1,13
 805 960 805 960 724 960 c 0,14,15
 575 960 575 960 513.5 873.5 c 128,-1,16
 452 787 452 787 452 586 c 0,17,18
 452 211 452 211 751 211 c 0,19,20
 862 211 862 211 986 291 c 0,21,22
 999 299 999 299 999 300 c 2,23,-1
 1064 75 l 1,24,25
 1003 43 1003 43 958 25 c 0,26,27
 835 -25 835 -25 690 -25 c 128,-1,28
 545 -25 545 -25 443 15 c 128,-1,29
 341 55 341 55 264.5 129 c 128,-1,0
 188 203 188 203 144 318 c 128,-1,1
EndSplineSet
EndChar

StartChar: d
Encoding: 100 100 71
Width: 1374
GlyphClass: 2
Flags: W
HStem: -26 236<544.392 753.545> 0 21G<957.843 1214> 962 234<527.122 745.142> 1706 20G<1067.75 1214>
VStem: 107 350<316.285 882.154> 863 351<252.517 892.023 1046 1678>
LayerCount: 2
Fore
SplineSet
122 388 m 128,-1,1
 107 475 107 475 107 624 c 128,-1,2
 107 773 107 773 159 907.5 c 128,-1,3
 211 1042 211 1042 313 1119 c 128,-1,4
 415 1196 415 1196 554 1196 c 0,5,6
 754 1196 754 1196 863 1046 c 1,7,-1
 863 1678 l 1,8,-1
 1214 1726 l 1,9,-1
 1214 0 l 1,10,-1
 967 0 l 1,11,-1
 891 166 l 1,12,13
 869 91 869 91 787 38 c 0,14,15
 689 -26 689 -26 575 -26 c 0,16,17
 477 -26 477 -26 396 5.5 c 128,-1,18
 315 37 315 37 261.5 91.5 c 128,-1,19
 208 146 208 146 172.5 223.5 c 128,-1,0
 137 301 137 301 122 388 c 128,-1,1
457 586 m 0,20,21
 457 210 457 210 659 210 c 0,22,23
 801 210 801 210 863 296 c 1,24,-1
 863 856 l 1,25,26
 744 962 744 962 628 962 c 0,27,28
 474 962 474 962 460 701 c 0,29,30
 457 657 457 657 457 586 c 0,20,21
EndSplineSet
EndChar

StartChar: e
Encoding: 101 101 72
Width: 1233
GlyphClass: 2
Flags: W
HStem: -26 238<577.027 944.383> 502 174<457 867> 960 236<545.329 794.254>
VStem: 97 360<333.25 502 676 838.37> 867 284<676 876.953>
LayerCount: 2
Fore
SplineSet
867 676 m 1,0,1
 870 960 870 960 666 960 c 0,2,3
 598 960 598 960 549 920 c 0,4,5
 456 843 456 843 456 676 c 1,6,-1
 867 676 l 1,0,1
1027 304 m 1,7,-1
 1093 70 l 1,8,9
 907 -25 907 -25 704 -26 c 1,10,11
 314 -26 314 -26 164 258 c 1,12,13
 93 395 93 395 97 566 c 128,-1,14
 101 737 101 737 145 849 c 128,-1,15
 189 961 189 961 266 1037 c 0,16,17
 426 1196 426 1196 672 1196 c 0,18,19
 821 1196 821 1196 930 1130 c 0,20,21
 1153 994 1153 994 1151 666 c 1,22,-1
 1151 502 l 1,23,-1
 457 502 l 1,24,25
 461 370 461 370 534 290 c 0,26,27
 607 211 607 211 731 212 c 0,28,29
 902 213 902 213 1027 304 c 1,7,-1
EndSplineSet
EndChar

StartChar: f
Encoding: 102 102 73
Width: 868
GlyphClass: 2
Flags: W
HStem: 0 21G<252 602> 1016 145<62 252 603 883> 1436 259<646.875 886.155>
VStem: 252 350<0 1016 1161 1374.62>
LayerCount: 2
Fore
SplineSet
740 1436 m 0,0,1
 670 1436 670 1436 636.5 1376.5 c 128,-1,2
 603 1317 603 1317 603 1161 c 1,3,-1
 883 1161 l 1,4,-1
 883 1016 l 1,5,-1
 602 1016 l 1,6,-1
 602 0 l 1,7,-1
 252 0 l 1,8,-1
 252 1016 l 1,9,-1
 62 1016 l 1,10,-1
 62 1161 l 1,11,-1
 252 1161 l 1,12,13
 252 1426 252 1426 352 1560.5 c 128,-1,14
 452 1695 452 1695 660 1695 c 0,15,16
 774 1695 774 1695 889 1666 c 1,17,-1
 889 1411 l 1,18,19
 822 1436 822 1436 740 1436 c 0,0,1
EndSplineSet
EndChar

StartChar: g
Encoding: 103 103 74
Width: 1267
GlyphClass: 2
Flags: W
HStem: -559 255<386.813 857.316> 968 228<488.486 771.581 1044 1287>
VStem: 78 278<-273.871 -65.0625> 136 312<655.13 927.749> 815 289<678.108 925.252> 921.5 304.5<-242.031 -41.1981>
DStem2: 410 272 516 29 0.997227 -0.0744199<68.2 494.422>
LayerCount: 2
Fore
SplineSet
372.5 -106.5 m 132,-1,1
 356 -137 356 -137 356 -166.5 c 132,-1,2
 356 -196 356 -196 359.5 -214.5 c 132,-1,3
 363 -233 363 -233 376.5 -252 c 132,-1,4
 390 -271 390 -271 416 -281 c 4,5,6
 474 -304 474 -304 578 -304 c 132,-1,7
 682 -304 682 -304 741.5 -295.5 c 132,-1,8
 801 -287 801 -287 835.5 -273.5 c 132,-1,9
 870 -260 870 -260 890 -237 c 4,10,11
 921 -200 921 -200 921.5 -144 c 132,-1,12
 922 -88 922 -88 903 -61 c 4,13,14
 864 -5 864 -5 656 15 c 6,15,-1
 516 29 l 6,16,17
 508 29 508 29 471.5 0 c 132,-1,18
 435 -29 435 -29 412 -52.5 c 132,-1,0
 389 -76 389 -76 372.5 -106.5 c 132,-1,1
550 605 m 5,19,-1
 672 615 l 6,20,21
 726 619 726 619 772 680 c 5,22,23
 817 742 817 742 815 804 c 5,24,25
 815 968 815 968 635 968 c 4,26,27
 542 968 542 968 495 930.5 c 132,-1,28
 448 893 448 893 448 793.5 c 132,-1,29
 448 694 448 694 514 630 c 4,30,31
 530 615 530 615 550 605 c 5,19,-1
1040 968 m 5,32,33
 1104 872 1104 872 1104 817 c 132,-1,34
 1104 762 1104 762 1094 716 c 132,-1,35
 1084 670 1084 670 1055.5 618 c 132,-1,36
 1027 566 1027 566 983 526 c 5,37,38
 882 439 882 439 695 421 c 6,39,-1
 392 392 l 5,40,-1
 410 272 l 5,41,-1
 678 252 l 6,42,43
 958 231 958 231 1092 137.5 c 132,-1,44
 1226 44 1226 44 1226 -145 c 4,45,46
 1226 -559 1226 -559 586 -559 c 4,47,48
 149 -559 149 -559 90 -329 c 4,49,50
 78 -282 78 -282 78 -204 c 132,-1,51
 78 -126 78 -126 132 -48 c 132,-1,52
 186 30 186 30 285 80 c 5,53,54
 129 95 129 95 109 269 c 5,55,56
 103 353 103 353 114 383 c 132,-1,57
 125 413 125 413 143 438 c 4,58,59
 182 494 182 494 286 528 c 5,60,-1
 367 550 l 5,61,62
 230 556 230 556 170 655 c 4,63,64
 136 710 136 710 136 791 c 4,65,66
 136 982 136 982 262.5 1089 c 132,-1,67
 389 1196 389 1196 602 1196 c 132,-1,68
 815 1196 815 1196 908 1136 c 5,69,70
 1041 1194 1041 1194 1186 1194 c 6,71,-1
 1287 1194 l 5,72,-1
 1287 968 l 5,73,-1
 1040 968 l 5,32,33
EndSplineSet
EndChar

StartChar: h
Encoding: 104 104 75
Width: 1390
GlyphClass: 2
Flags: W
HStem: 0 21G<189 539 917 1267> 962 234<646.766 858.691> 1708 20G<422.333 539>
VStem: 189 350<0 920.308 1057 1668> 917 350<0 900.636>
LayerCount: 2
Fore
SplineSet
539 1728 m 1,0,-1
 539 1057 l 1,1,2
 545 1072 545 1072 576.5 1100.5 c 128,-1,3
 608 1129 608 1129 641 1148 c 0,4,5
 724 1196 724 1196 852 1196 c 0,6,7
 1049 1196 1049 1196 1158 1077 c 128,-1,8
 1267 958 1267 958 1267 723 c 2,9,-1
 1267 0 l 1,10,-1
 917 0 l 1,11,-1
 917 747 l 2,12,13
 917 854 917 854 868.5 908 c 128,-1,14
 820 962 820 962 753.5 962 c 128,-1,15
 687 962 687 962 648.5 950.5 c 128,-1,16
 610 939 610 939 590 925 c 128,-1,17
 570 911 570 911 539 884 c 1,18,-1
 539 0 l 1,19,-1
 189 0 l 1,20,-1
 189 1668 l 1,21,-1
 539 1728 l 1,0,-1
EndSplineSet
EndChar

StartChar: i
Encoding: 105 105 76
Width: 729
GlyphClass: 2
Flags: W
HStem: -3 21G<215 565> 1413 388<264.958 516.232>
VStem: 197 389<1482.8 1731.2> 215 350<-3 1157>
LayerCount: 2
Fore
SplineSet
197 1607 m 128,-1,1
 197 1690 197 1690 252.5 1745.5 c 128,-1,2
 308 1801 308 1801 390 1801 c 128,-1,3
 472 1801 472 1801 529 1745.5 c 128,-1,4
 586 1690 586 1690 586 1607 c 128,-1,5
 586 1524 586 1524 529 1468.5 c 128,-1,6
 472 1413 472 1413 390 1413 c 128,-1,7
 308 1413 308 1413 252.5 1468.5 c 128,-1,0
 197 1524 197 1524 197 1607 c 128,-1,1
565 -3 m 1,8,-1
 215 -3 l 1,9,-1
 215 1157 l 1,10,-1
 565 1157 l 1,11,-1
 565 -3 l 1,8,-1
EndSplineSet
EndChar

StartChar: j
Encoding: 106 106 77
Width: 730
GlyphClass: 2
Flags: W
HStem: 1140 20G<200 551> 1410 388<250.544 497.456>
VStem: 185 378<1476.15 1732.44> 200 351<28.9363 1160>
LayerCount: 2
Fore
SplineSet
-9 -113 m 1,0,1
 43 -84 43 -84 77 -57.5 c 128,-1,2
 111 -31 111 -31 141 8 c 128,-1,3
 171 47 171 47 185.5 100 c 128,-1,4
 200 153 200 153 200 223 c 2,5,-1
 200 1160 l 1,6,-1
 551 1160 l 1,7,-1
 551 203 l 2,8,9
 551 97 551 97 515 2 c 128,-1,10
 479 -93 479 -93 416.5 -162.5 c 128,-1,11
 354 -232 354 -232 273.5 -279.5 c 128,-1,12
 193 -327 193 -327 102 -348 c 1,13,-1
 -9 -113 l 1,0,1
185 1604.5 m 128,-1,15
 185 1688 185 1688 238.5 1743 c 128,-1,16
 292 1798 292 1798 374 1798 c 128,-1,17
 456 1798 456 1798 509.5 1743 c 128,-1,18
 563 1688 563 1688 563 1604.5 c 128,-1,19
 563 1521 563 1521 509.5 1465.5 c 128,-1,20
 456 1410 456 1410 374 1410 c 128,-1,21
 292 1410 292 1410 238.5 1465.5 c 128,-1,14
 185 1521 185 1521 185 1604.5 c 128,-1,15
EndSplineSet
EndChar

StartChar: k
Encoding: 107 107 78
Width: 1369
GlyphClass: 2
Flags: W
HStem: 0 21G<189 540 962.129 1371> 1149 20G<959.677 1361> 1707 20G<396.735 540>
VStem: 189 351<0 409 736 1678>
LayerCount: 2
Fore
SplineSet
540 409 m 1,0,-1
 540 0 l 1,1,-1
 189 0 l 1,2,-1
 189 1678 l 1,3,-1
 540 1727 l 1,4,-1
 540 736 l 1,5,-1
 980 1169 l 1,6,-1
 1361 1169 l 1,7,-1
 849 649 l 1,8,-1
 1371 0 l 1,9,-1
 976 0 l 1,10,-1
 632 496 l 1,11,-1
 540 409 l 1,0,-1
EndSplineSet
EndChar

StartChar: l
Encoding: 108 108 79
Width: 688
GlyphClass: 2
Flags: W
HStem: 0 21G<174 525> 1706 20G<378.75 525>
VStem: 174 351<0 1678>
LayerCount: 2
Fore
SplineSet
525 1726 m 1,0,-1
 525 0 l 1,1,-1
 174 0 l 1,2,-1
 174 1678 l 1,3,-1
 525 1726 l 1,0,-1
EndSplineSet
EndChar

StartChar: m
Encoding: 109 109 80
Width: 1983
GlyphClass: 2
Flags: W
HStem: 0 21G<189 540 853 1204 1509 1860> 960 236<648 886 1283.68 1588.5> 1140 20G<189 445.764>
VStem: 189 351<0 888.764> 853 351<0 900.75> 1509 351<0 931.719>
LayerCount: 2
Fore
SplineSet
676 950 m 0,0,1
 581 906 581 906 540 831 c 1,2,-1
 540 0 l 1,3,-1
 189 0 l 1,4,-1
 189 1160 l 1,5,-1
 437 1160 l 1,6,-1
 515 982 l 1,7,8
 556 1091 556 1091 630 1141 c 0,9,10
 712 1196 712 1196 830 1196 c 0,11,12
 942 1196 942 1196 1019.5 1157.5 c 128,-1,13
 1097 1119 1097 1119 1144 1022 c 1,14,15
 1205 1110 1205 1110 1286.5 1153 c 128,-1,16
 1368 1196 1368 1196 1499 1196 c 0,17,18
 1678 1196 1678 1196 1769 1081 c 128,-1,19
 1860 966 1860 966 1860 755 c 2,20,-1
 1860 0 l 1,21,-1
 1509 0 l 1,22,-1
 1509 782 l 2,23,24
 1509 960 1509 960 1390 960 c 0,25,26
 1343 960 1343 960 1301 937.5 c 128,-1,27
 1259 915 1259 915 1204 862 c 1,28,-1
 1204 0 l 1,29,-1
 853 0 l 1,30,-1
 853 792 l 2,31,32
 853 929 853 929 786 953 c 0,33,34
 767 960 767 960 738 960 c 0,35,36
 698 960 698 960 676 950 c 0,0,1
EndSplineSet
EndChar

StartChar: n
Encoding: 110 110 81
Width: 1363
GlyphClass: 2
Flags: W
HStem: 0 21G<183 534 882 1233> 961.5 234.5<642.179 841.445> 1140 20G<183 457.993>
VStem: 183 351<0 908.582> 882 351<0 909.999>
LayerCount: 2
Fore
SplineSet
516 1011 m 1,0,1
 606 1196 606 1196 821.5 1196 c 128,-1,2
 1037 1196 1037 1196 1135 1078.5 c 128,-1,3
 1233 961 1233 961 1233 721 c 2,4,-1
 1233 0 l 1,5,-1
 882 0 l 1,6,-1
 882 747 l 2,7,8
 882 864 882 864 846.5 911.5 c 128,-1,9
 811 959 811 959 735.5 961.5 c 128,-1,10
 660 964 660 964 609.5 932 c 128,-1,11
 559 900 559 900 534 856 c 1,12,-1
 534 0 l 1,13,-1
 183 0 l 1,14,-1
 183 1160 l 1,15,-1
 449 1160 l 1,16,-1
 516 1011 l 1,0,1
EndSplineSet
EndChar

StartChar: o
Encoding: 111 111 82
Width: 1281
GlyphClass: 2
Flags: W
HStem: -26 234<514.829 765.143> 960 236<514.536 768.257>
VStem: 70 350<317.683 849.348> 860 348<317.683 849.348>
LayerCount: 2
Fore
SplineSet
640 208 m 128,-1,1
 752 208 752 208 806 299 c 128,-1,2
 860 390 860 390 860 584 c 128,-1,3
 860 778 860 778 806 869 c 128,-1,4
 752 960 752 960 640 960 c 128,-1,5
 528 960 528 960 474 869 c 128,-1,6
 420 778 420 778 420 584 c 128,-1,7
 420 390 420 390 474 299 c 128,-1,0
 528 208 528 208 640 208 c 128,-1,1
639 1196 m 128,-1,9
 912 1196 912 1196 1060 1034.5 c 128,-1,10
 1208 873 1208 873 1208 582 c 0,11,12
 1208 293 1208 293 1061 133.5 c 128,-1,13
 914 -26 914 -26 640 -26 c 128,-1,14
 366 -26 366 -26 218 133.5 c 128,-1,15
 70 293 70 293 70 582 c 0,16,17
 70 873 70 873 218 1034.5 c 128,-1,8
 366 1196 366 1196 639 1196 c 128,-1,9
EndSplineSet
EndChar

StartChar: p
Encoding: 112 112 83
Width: 1348
GlyphClass: 2
Flags: W
HStem: -406 21G<160 511> -26 234<619.509 850.567> 964 232<607.009 853.955> 1140 20G<160 435.742>
VStem: 160 351<-406 120 290.582 896.054> 918 352<290.897 884.711>
LayerCount: 2
Fore
SplineSet
784 -26 m 0,0,1
 618 -26 618 -26 511 120 c 1,2,-1
 511 -406 l 1,3,-1
 160 -406 l 1,4,-1
 160 1160 l 1,5,-1
 427 1160 l 1,6,-1
 493 1009 l 1,7,8
 523 1098 523 1098 600 1147 c 0,9,10
 678 1196 678 1196 807 1196 c 128,-1,11
 936 1196 936 1196 1020.5 1153 c 128,-1,12
 1105 1110 1105 1110 1160 1027 c 0,13,14
 1270 861 1270 861 1270 568.5 c 128,-1,15
 1270 276 1270 276 1136.5 125 c 128,-1,16
 1003 -26 1003 -26 784 -26 c 0,0,1
916 501.5 m 128,-1,18
 918 549 918 549 918 605.5 c 128,-1,19
 918 662 918 662 916 699 c 128,-1,20
 914 736 914 736 908.5 780.5 c 128,-1,21
 903 825 903 825 891 855 c 128,-1,22
 879 885 879 885 860 912 c 0,23,24
 824 964 824 964 743 964 c 0,25,26
 615 964 615 964 511 857 c 1,27,-1
 511 324 l 1,28,29
 654 208 654 208 747 208 c 0,30,31
 825 208 825 208 862 267 c 256,32,33
 899 326 899 326 906.5 390 c 128,-1,17
 914 454 914 454 916 501.5 c 128,-1,18
EndSplineSet
EndChar

StartChar: q
Encoding: 113 113 84
Width: 1360
GlyphClass: 2
Flags: W
HStem: -406 21G<859 1210> -25 234<518.742 741.246> 960 236<538.621 744.564> 1140 20G<903.718 1210>
VStem: 103 349<291.238 856.188> 859 351<-406 121 285.578 892.459>
LayerCount: 2
Fore
SplineSet
405 1166 m 0,0,1
 487 1196 487 1196 585 1196 c 128,-1,2
 683 1196 683 1196 759 1142 c 1,3,4
 816 1106 816 1106 861 1004 c 1,5,-1
 910 1160 l 1,6,-1
 1210 1160 l 1,7,-1
 1210 -406 l 1,8,-1
 859 -406 l 1,9,-1
 859 121 l 1,10,11
 735 -25 735 -25 586 -25 c 0,12,13
 480 -25 480 -25 391 10 c 128,-1,14
 302 45 302 45 252 107 c 0,15,16
 103 289 103 289 103 565 c 0,17,18
 103 1053 103 1053 405 1166 c 0,0,1
461 731 m 128,-1,20
 452 671 452 671 452 600.5 c 128,-1,21
 452 530 452 530 454 492.5 c 128,-1,22
 456 455 456 455 461.5 408.5 c 128,-1,23
 467 362 467 362 478.5 329.5 c 128,-1,24
 490 297 490 297 508 268 c 0,25,26
 545 209 545 209 623 209 c 0,27,28
 741 209 741 209 859 325 c 1,29,-1
 859 831 l 1,30,31
 816 900 816 900 778 927 c 0,32,33
 731 960 731 960 660 960 c 0,34,35
 596 960 596 960 554.5 929.5 c 128,-1,36
 513 899 513 899 491.5 845 c 128,-1,19
 470 791 470 791 461 731 c 128,-1,20
EndSplineSet
EndChar

StartChar: r
Encoding: 114 114 85
Width: 882
GlyphClass: 2
Flags: W
HStem: 0 21G<178 529> 881 281<645.298 868.403>
VStem: 178 351<0 824.887>
LayerCount: 2
Fore
SplineSet
519 976 m 1,0,1
 542 1036 542 1036 573 1067 c 0,2,3
 607 1100 607 1100 638 1115 c 0,4,5
 672 1132 672 1132 722 1147 c 256,6,7
 772 1162 772 1162 870 1162 c 1,8,-1
 870 863 l 1,9,10
 819 881 819 881 756 881 c 0,11,12
 641 881 641 881 529 796 c 1,13,-1
 529 0 l 1,14,-1
 178 0 l 1,15,-1
 178 1160 l 1,16,-1
 479 1160 l 1,17,-1
 519 976 l 1,0,1
EndSplineSet
EndChar

StartChar: s
Encoding: 115 115 86
Width: 1154
GlyphClass: 2
Flags: W
HStem: -25 240<316.087 668.894> 956.5 239.5<456.959 864.281>
VStem: 716 326<236.6 401.068>
DStem2: 529 768 451 496 0.93399 -0.357298<-81.6984 323.238>
LayerCount: 2
Fore
SplineSet
451 496 m 1,0,1
 252 573 252 573 193 637 c 0,2,3
 123 713 123 713 123 864 c 128,-1,4
 123 1015 123 1015 246.5 1105.5 c 128,-1,5
 370 1196 370 1196 591 1196 c 0,6,7
 708 1196 708 1196 826 1165.5 c 128,-1,8
 944 1135 944 1135 996 1113 c 1,9,-1
 1020 1104 l 1,10,-1
 954 882 l 1,11,12
 881 910 881 910 784 932.5 c 128,-1,13
 687 955 687 955 619 956.5 c 128,-1,14
 551 958 551 958 511 946.5 c 128,-1,15
 471 935 471 935 456.5 920 c 128,-1,16
 442 905 442 905 439.5 866 c 128,-1,17
 437 827 437 827 456 808 c 128,-1,18
 475 789 475 789 529 768 c 2,19,-1
 827 654 l 1,20,21
 890 631 890 631 934 599 c 0,22,23
 1042 521 1042 521 1042 348 c 0,24,25
 1042 112 1042 112 835 26 c 0,26,27
 711 -25 711 -25 570 -25 c 0,28,29
 298 -25 298 -25 126 78 c 1,30,-1
 192 306 l 1,31,32
 267 272 267 272 373 243 c 1,33,34
 472 217 472 217 548 215 c 0,35,36
 635 213 635 213 670 233 c 0,37,38
 716 259 716 259 716 339 c 1,39,40
 715 392 715 392 608 434 c 2,41,-1
 451 496 l 1,0,1
EndSplineSet
EndChar

StartChar: t
Encoding: 116 116 87
Width: 942
GlyphClass: 2
Flags: W
HStem: -16 248<532.5 822.916> 1016 144<0 210 559 885> 1657 20G<480.429 559>
VStem: 210 349<281.995 1016 1160 1486.71> 229 330<1160 1593>
LayerCount: 2
Fore
SplineSet
577 -16 m 0,0,1
 488 -16 488 -16 421.5 9.5 c 128,-1,2
 355 35 355 35 307 90 c 128,-1,3
 259 145 259 145 234.5 236 c 128,-1,4
 210 327 210 327 210 453 c 2,5,-1
 210 1016 l 1,6,-1
 0 1016 l 1,7,-1
 0 1160 l 1,8,-1
 219 1160 l 1,9,-1
 229 1593 l 1,10,-1
 559 1677 l 1,11,-1
 559 1160 l 1,12,-1
 885 1160 l 1,13,-1
 885 1016 l 1,14,-1
 559 1016 l 1,15,-1
 559 418 l 2,16,17
 559 328 559 328 586.5 280.5 c 128,-1,18
 614 233 614 233 680 232 c 0,19,20
 714 232 714 232 753 244.5 c 128,-1,21
 792 257 792 257 814 270 c 1,22,23
 837 282 837 282 836 284 c 2,24,-1
 918 73 l 1,25,26
 912 69 912 69 901.5 63 c 128,-1,27
 891 57 891 57 855.5 42 c 128,-1,28
 820 27 820 27 782.5 15 c 128,-1,29
 745 3 745 3 688.5 -6.5 c 128,-1,30
 632 -16 632 -16 577 -16 c 0,0,1
EndSplineSet
EndChar

StartChar: u
Encoding: 117 117 88
Width: 1351
GlyphClass: 2
Flags: W
HStem: -26 234<592.297 801.346> 0 21G<977.299 1233> 1140 20G<200 546 882 1233>
VStem: 200 346<268.295 1160> 882 351<262.895 1160>
LayerCount: 2
Fore
SplineSet
546 423 m 1,0,1
 545.025 323.6 545.025 323.6 579.5 266.5 c 0,2,3
 613.271 212 613.271 212 696 208 c 1,4,5
 803 216 803 216 882 304 c 1,6,-1
 882 1160 l 1,7,-1
 1233 1160 l 1,8,-1
 1233 0 l 1,9,-1
 986 0 l 1,10,-1
 909 177 l 1,11,12
 866 67 866 67 817 30 c 1,13,14
 746 -26 746 -26 628 -26 c 0,15,16
 410 -26 410 -26 305 93 c 128,-1,17
 200 212 200 212 200 449 c 2,18,-1
 200 1160 l 1,19,-1
 546 1160 l 1,20,-1
 546 423 l 1,0,1
EndSplineSet
EndChar

StartChar: v
Encoding: 118 118 89
Width: 1180
GlyphClass: 2
Flags: W
HStem: 0 21G<370.603 807.431> 1140 20G<6 379.006 797.041 1174>
LayerCount: 2
Fore
SplineSet
801 0 m 1,0,-1
 377 0 l 1,1,-1
 6 1160 l 1,2,-1
 374 1160 l 1,3,-1
 589 301 l 1,4,-1
 802 1160 l 1,5,-1
 1174 1160 l 1,6,-1
 801 0 l 1,0,-1
EndSplineSet
EndChar

StartChar: w
Encoding: 119 119 90
Width: 1625
GlyphClass: 2
Flags: W
HStem: 0 21G<308.017 666.479 953.399 1316> 1140 20G<24 353.016 654.826 970.159 1277.79 1601>
LayerCount: 2
Fore
SplineSet
958 0 m 1,0,-1
 808 652 l 1,1,-1
 662 0 l 1,2,-1
 313 0 l 1,3,-1
 24 1160 l 1,4,-1
 349 1160 l 1,5,-1
 501 403 l 1,6,-1
 659 1160 l 1,7,-1
 966 1160 l 1,8,-1
 1123 405 l 1,9,-1
 1282 1160 l 1,10,-1
 1601 1160 l 1,11,-1
 1311 0 l 1,12,-1
 958 0 l 1,0,-1
EndSplineSet
EndChar

StartChar: x
Encoding: 120 120 91
Width: 1145
GlyphClass: 2
Flags: W
HStem: 0 21G<3 400.809 756.017 1149> 1140 20G<-5 401.682 755.624 1155>
LayerCount: 2
Fore
SplineSet
577 346 m 1,0,-1
 390 0 l 1,1,-1
 3 0 l 1,2,-1
 399 584 l 1,3,-1
 -5 1160 l 1,4,-1
 390 1160 l 1,5,-1
 581 833 l 1,6,-1
 767 1160 l 1,7,-1
 1155 1160 l 1,8,-1
 760 584 l 1,9,-1
 1149 0 l 1,10,-1
 767 0 l 1,11,-1
 577 346 l 1,0,-1
EndSplineSet
EndChar

StartChar: y
Encoding: 121 121 92
Width: 1227
GlyphClass: 2
Flags: W
HStem: -468 237<252 361.559> 1140 20G<24 389.023 845.115 1204>
LayerCount: 2
Fore
SplineSet
506 43 m 1,0,-1
 24 1160 l 1,1,-1
 382 1160 l 1,2,-1
 658 374 l 1,3,-1
 850 1160 l 1,4,-1
 1204 1160 l 1,5,-1
 808 -32 l 1,6,7
 736 -254 736 -254 604 -360 c 128,-1,8
 472 -466 472 -466 252 -468 c 1,9,-1
 154 -231 l 1,10,11
 250 -224 250 -224 311 -206.5 c 128,-1,12
 372 -189 372 -189 410 -152 c 128,-1,13
 448 -115 448 -115 467 -72.5 c 128,-1,14
 486 -30 486 -30 506 43 c 1,0,-1
EndSplineSet
EndChar

StartChar: z
Encoding: 122 122 93
Width: 1053
GlyphClass: 2
Flags: W
HStem: 0 264<485 977> 898 264<114 590>
DStem2: 102 233 485 264 0.592205 0.805787<251.794 824.039>
LayerCount: 2
Fore
SplineSet
590 897 m 1,0,-1
 114 898 l 1,1,-1
 114 1162 l 1,2,-1
 966 1162 l 1,3,-1
 966 931 l 1,4,-1
 485 264 l 1,5,-1
 977 264 l 1,6,-1
 977 0 l 1,7,-1
 102 0 l 1,8,-1
 102 233 l 1,9,-1
 590 897 l 1,0,-1
EndSplineSet
EndChar

StartChar: braceleft
Encoding: 123 123 94
Width: 852
GlyphClass: 2
Flags: W
VStem: 254 330<5.9375 520.67 766.661 1284.65>
LayerCount: 2
Fore
SplineSet
583 982 m 0,0,1
 583 911 583 911 571 854.5 c 128,-1,2
 559 798 559 798 542 764 c 128,-1,3
 525 730 525 730 499 704.5 c 128,-1,4
 473 679 473 679 451 667 c 128,-1,5
 429 655 429 655 401 645 c 1,6,7
 584 576 584 576 584 307 c 0,8,9
 584 193 584 193 589 127 c 128,-1,10
 594 61 594 61 609 28.5 c 128,-1,11
 624 -4 624 -4 641.5 -12.5 c 128,-1,12
 659 -21 659 -21 692 -21 c 1,13,-1
 692 -210 l 1,14,15
 644 -210 644 -210 602 -205 c 128,-1,16
 560 -200 560 -200 514.5 -186 c 128,-1,17
 469 -172 469 -172 432.5 -150 c 128,-1,18
 396 -128 396 -128 361.5 -91.5 c 128,-1,19
 327 -55 327 -55 304 -6.5 c 128,-1,20
 281 42 281 42 267.5 110.5 c 128,-1,21
 254 179 254 179 254 262 c 0,22,23
 254 374 254 374 242.5 436.5 c 128,-1,24
 231 499 231 499 208 524.5 c 128,-1,25
 185 550 185 550 145 550 c 1,26,-1
 145 739 l 1,27,28
 185 739 185 739 208 765 c 128,-1,29
 231 791 231 791 242 853.5 c 128,-1,30
 253 916 253 916 253 1027 c 0,31,32
 253 1110 253 1110 266.5 1178.5 c 128,-1,33
 280 1247 280 1247 303.5 1295.5 c 128,-1,34
 327 1344 327 1344 361 1380.5 c 128,-1,35
 395 1417 395 1417 432 1439 c 128,-1,36
 469 1461 469 1461 514.5 1475 c 128,-1,37
 560 1489 560 1489 602 1494 c 128,-1,38
 644 1499 644 1499 692 1499 c 1,39,-1
 692 1310 l 1,40,41
 659 1310 659 1310 641.5 1301.5 c 128,-1,42
 624 1293 624 1293 609 1260.5 c 128,-1,43
 594 1228 594 1228 588.5 1162 c 128,-1,44
 583 1096 583 1096 583 982 c 0,0,1
EndSplineSet
EndChar

StartChar: bar
Encoding: 124 124 95
Width: 813
GlyphClass: 2
Flags: W
VStem: 252 310<-147 1667>
LayerCount: 2
Fore
SplineSet
252 -147 m 1,0,-1
 252 1667 l 1,1,-1
 560 1667 l 1,2,-1
 562 -147 l 1,3,-1
 252 -147 l 1,0,-1
EndSplineSet
EndChar

StartChar: braceright
Encoding: 125 125 96
Width: 852
GlyphClass: 2
Flags: W
HStem: -210 189<160 240.741> 550 189<631.379 707> 1310 189<160 240.741>
VStem: 265.5 332.5<5.9375 486.553 802.962 1284.65>
CounterMasks: 1 e0
LayerCount: 2
Fore
SplineSet
269 982 m 0,0,1
 269 1059 269 1059 266.5 1112.5 c 128,-1,2
 264 1166 264 1166 257.5 1203 c 128,-1,3
 251 1240 251 1240 243.5 1261 c 128,-1,4
 236 1282 236 1282 222.5 1293 c 128,-1,5
 209 1304 209 1304 195.5 1307 c 128,-1,6
 182 1310 182 1310 160 1310 c 1,7,-1
 160 1499 l 1,8,9
 208 1499 208 1499 250 1494 c 128,-1,10
 292 1489 292 1489 337.5 1475 c 128,-1,11
 383 1461 383 1461 420 1439 c 128,-1,12
 457 1417 457 1417 491 1380.5 c 128,-1,13
 525 1344 525 1344 548.5 1295.5 c 128,-1,14
 572 1247 572 1247 585.5 1178.5 c 128,-1,15
 599 1110 599 1110 599 1027 c 0,16,17
 599 863 599 863 623 801 c 128,-1,18
 647 739 647 739 707 739 c 1,19,-1
 707 550 l 1,20,21
 647 550 647 550 622.5 488.5 c 128,-1,22
 598 427 598 427 598 262 c 0,23,24
 598 179 598 179 584.5 110.5 c 128,-1,25
 571 42 571 42 548 -6.5 c 128,-1,26
 525 -55 525 -55 490.5 -91.5 c 128,-1,27
 456 -128 456 -128 419.5 -150 c 128,-1,28
 383 -172 383 -172 337.5 -186 c 128,-1,29
 292 -200 292 -200 250 -205 c 128,-1,30
 208 -210 208 -210 160 -210 c 1,31,-1
 160 -21 l 1,32,33
 182 -21 182 -21 195.5 -18 c 128,-1,34
 209 -15 209 -15 222.5 -4 c 128,-1,35
 236 7 236 7 243.5 28 c 128,-1,36
 251 49 251 49 257 86 c 128,-1,37
 263 123 263 123 265.5 176.5 c 128,-1,38
 268 230 268 230 268 307 c 0,39,40
 268 576 268 576 451 645 c 1,41,42
 423 655 423 655 401 667 c 128,-1,43
 379 679 379 679 353 704.5 c 128,-1,44
 327 730 327 730 310 764 c 128,-1,45
 293 798 293 798 281 854.5 c 128,-1,46
 269 911 269 911 269 982 c 0,0,1
EndSplineSet
EndChar

StartChar: asciitilde
Encoding: 126 126 97
Width: 1208
GlyphClass: 2
Flags: W
HStem: 310 221<661.994 832.389> 461 213<398.151 555.523>
VStem: 177 208<336 431.6>
DStem2: 582 624 569 408 0.865426 -0.501036<-36.2686 219.733>
LayerCount: 2
Fore
SplineSet
829 310 m 0,0,1
 782 310 782 310 733.5 325.5 c 128,-1,2
 685 341 685 341 645 364 c 2,3,-1
 569 408 l 1,4,5
 533 430 533 430 500.5 445.5 c 128,-1,6
 468 461 468 461 445 461 c 0,7,8
 414 461 414 461 399.5 432.5 c 128,-1,9
 385 404 385 404 385 336 c 1,10,-1
 177 336 l 1,11,12
 177 502 177 502 234.5 588 c 128,-1,13
 292 674 292 674 407 674 c 0,14,15
 455 674 455 674 501 659.5 c 128,-1,16
 547 645 547 645 582 624 c 2,17,-1
 651 581 l 2,18,19
 684 560 684 560 718.5 545.5 c 128,-1,20
 753 531 753 531 783 531 c 0,21,22
 818 531 818 531 829.5 551.5 c 128,-1,23
 841 572 841 572 841 635 c 1,24,-1
 1061 635 l 1,25,26
 1061 487 1061 487 998.5 398.5 c 128,-1,27
 936 310 936 310 829 310 c 0,0,1
EndSplineSet
EndChar

StartChar: exclamdown
Encoding: 161 161 99
Width: 792
GlyphClass: 2
Flags: W
HStem: -1 21G<178 607> 1153 388<281.947 529.45>
VStem: 217 378<1219.15 1474.85> 289 210<927.323 1065>
LayerCount: 2
Fore
SplineSet
607 -1 m 1,0,-1
 178 -1 l 1,1,-1
 289 1065 l 1,2,-1
 499 1065 l 1,3,-1
 607 -1 l 1,0,-1
217 1347 m 128,-1,5
 217 1430 217 1430 270 1485.5 c 128,-1,6
 323 1541 323 1541 405.5 1541 c 128,-1,7
 488 1541 488 1541 541.5 1485.5 c 128,-1,8
 595 1430 595 1430 595 1347 c 128,-1,9
 595 1264 595 1264 541.5 1208.5 c 128,-1,10
 488 1153 488 1153 405.5 1153 c 128,-1,11
 323 1153 323 1153 270 1208.5 c 128,-1,4
 217 1264 217 1264 217 1347 c 128,-1,5
EndSplineSet
EndChar

StartChar: cent
Encoding: 162 162 100
Width: 1097
GlyphClass: 2
Flags: W
HStem: -14 236<558.511 900.175> 950 236<532.902 901.033>
VStem: 78 352<363.033 834.177> 620 164<-147 1377>
LayerCount: 2
Fore
SplineSet
620 -147 m 1,0,-1
 621 1377 l 1,1,-1
 783 1377 l 1,2,-1
 784 -147 l 1,3,-1
 620 -147 l 1,0,-1
78 586 m 0,4,5
 78 700 78 700 109 798.5 c 128,-1,6
 140 897 140 897 194 967 c 128,-1,7
 248 1037 248 1037 320 1087 c 128,-1,8
 392 1137 392 1137 473.5 1161.5 c 128,-1,9
 555 1186 555 1186 642 1186 c 0,10,11
 775 1186 775 1186 862.5 1160.5 c 128,-1,12
 950 1135 950 1135 1043 1086 c 1,13,-1
 978 861 l 1,14,15
 951 887 951 887 867 918.5 c 128,-1,16
 783 950 783 950 702 950 c 0,17,18
 553 950 553 950 491.5 863.5 c 128,-1,19
 430 777 430 777 430 586 c 0,20,21
 430 222 430 222 729 222 c 0,22,23
 763 222 763 222 801 231 c 128,-1,24
 839 240 839 240 869.5 253 c 128,-1,25
 900 266 900 266 925 279.5 c 128,-1,26
 950 293 950 293 964 302 c 128,-1,27
 978 311 978 311 977 311 c 2,28,-1
 1042 86 l 1,29,30
 981 54 981 54 936.5 36 c 128,-1,31
 892 18 892 18 812.5 2 c 128,-1,32
 733 -14 733 -14 641 -14 c 0,33,34
 523 -14 523 -14 421 26 c 128,-1,35
 319 66 319 66 242.5 140 c 128,-1,36
 166 214 166 214 122 329 c 128,-1,37
 78 444 78 444 78 586 c 0,4,5
EndSplineSet
EndChar

StartChar: sterling
Encoding: 163 163 101
Width: 1203
GlyphClass: 2
Flags: W
HStem: 0 266<471 1062> 572 148<206 297.5 617 1004> 1061 261<554.5 893.537>
VStem: 197 322<798.189 1025.13> 333 284<406.491 572>
LayerCount: 2
Fore
SplineSet
188 260 m 1,0,-1
 196 270 l 2,1,2
 204 279 204 279 217 295.5 c 128,-1,3
 230 312 230 312 245.5 334 c 128,-1,4
 261 356 261 356 276.5 384 c 128,-1,5
 292 412 292 412 304.5 441.5 c 128,-1,6
 317 471 317 471 325 506 c 128,-1,7
 333 541 333 541 333 573 c 1,8,-1
 206 572 l 1,9,-1
 206 715 l 1,10,-1
 309 715 l 1,11,12
 309 713 309 713 297.5 724 c 128,-1,13
 286 735 286 735 269.5 756.5 c 128,-1,14
 253 778 253 778 236.5 806.5 c 128,-1,15
 220 835 220 835 208.5 875 c 128,-1,16
 197 915 197 915 197 956 c 0,17,18
 197 1035 197 1035 227.5 1102 c 128,-1,19
 258 1169 258 1169 315.5 1218 c 128,-1,20
 373 1267 373 1267 461 1294.5 c 128,-1,21
 549 1322 549 1322 659 1322 c 0,22,23
 719 1322 719 1322 775.5 1314.5 c 128,-1,24
 832 1307 832 1307 874.5 1295 c 128,-1,25
 917 1283 917 1283 954.5 1268.5 c 128,-1,26
 992 1254 992 1254 1017.5 1240 c 128,-1,27
 1043 1226 1043 1226 1061.5 1214 c 128,-1,28
 1080 1202 1080 1202 1088 1196 c 2,29,-1
 1097 1189 l 1,30,-1
 964 971 l 1,31,-1
 954 980 l 2,32,33
 943 989 943 989 919.5 1002.5 c 128,-1,34
 896 1016 896 1016 866 1029 c 128,-1,35
 836 1042 836 1042 792 1051.5 c 128,-1,36
 748 1061 748 1061 701 1061 c 0,37,38
 653 1061 653 1061 618.5 1051 c 128,-1,39
 584 1041 584 1041 565.5 1026.5 c 128,-1,40
 547 1012 547 1012 536 990.5 c 128,-1,41
 525 969 525 969 522 950.5 c 128,-1,42
 519 932 519 932 519 909 c 0,43,44
 519 827 519 827 574 750 c 1,45,-1
 599 720 l 1,46,-1
 1004 720 l 1,47,-1
 1004 572 l 1,48,-1
 617 572 l 1,49,50
 617 508 617 508 601.5 453 c 128,-1,51
 586 398 586 398 567 366 c 128,-1,52
 548 334 548 334 522.5 308.5 c 128,-1,53
 497 283 497 283 487 276 c 128,-1,54
 477 269 477 269 471 266 c 1,55,-1
 1062 266 l 1,56,-1
 1062 0 l 1,57,-1
 191 0 l 1,58,-1
 188 260 l 1,0,-1
EndSplineSet
EndChar

StartChar: currency
Encoding: 164 164 102
Width: 1396
GlyphClass: 2
Flags: W
HStem: 541 175<558.779 846.264> 1249 177<574.672 860.623>
VStem: 267 176<832.609 1117.84> 976 176<845.725 1134.17>
DStem2: 272 1549 143 1419 0.707107 -0.707107<0.707107 295.573 1122.88 1429.77> 143 538 272 408 0.707107 0.707107<0 285.252 1146.15 1429.06>
LayerCount: 2
Fore
SplineSet
719 1249 m 0,0,1
 647 1249 647 1249 583.5 1211 c 128,-1,2
 520 1173 520 1173 481.5 1109.5 c 128,-1,3
 443 1046 443 1046 443 975 c 0,4,5
 443 868 443 868 521 792 c 128,-1,6
 599 716 599 716 702 716 c 0,7,8
 773 716 773 716 836.5 754 c 128,-1,9
 900 792 900 792 938 855.5 c 128,-1,10
 976 919 976 919 976 991 c 0,11,12
 976 1098 976 1098 898.5 1173.5 c 128,-1,13
 821 1249 821 1249 719 1249 c 0,0,1
337 732 m 1,14,15
 267 839 267 839 267 967 c 0,16,17
 267 1102 267 1102 345 1217 c 1,18,-1
 143 1419 l 1,19,-1
 272 1549 l 1,20,-1
 474 1347 l 1,21,22
 590 1426 590 1426 727 1426 c 0,23,24
 855 1426 855 1426 961 1356 c 1,25,-1
 1154 1549 l 1,26,-1
 1283 1419 l 1,27,-1
 1088 1224 l 1,28,29
 1152 1122 1152 1122 1152 1001 c 0,30,31
 1152 864 1152 864 1073 748 c 1,32,-1
 1283 538 l 1,33,-1
 1154 408 l 1,34,-1
 943 619 l 1,35,36
 828 541 828 541 693 541 c 0,37,38
 571 541 571 541 469 604 c 1,39,-1
 272 408 l 1,40,-1
 143 538 l 1,41,-1
 337 732 l 1,14,15
EndSplineSet
EndChar

StartChar: yen
Encoding: 165 165 103
Width: 1277
GlyphClass: 2
Flags: W
HStem: 0 21G<462 810> 402 120<138 460 812 1134> 651 120<138 342 932 1134> 1557 20G<-42 343.833 928.167 1320>
VStem: 462 348<0 402>
LayerCount: 2
Fore
SplineSet
636 811 m 1,0,-1
 936 1577 l 1,1,-1
 1320 1577 l 1,2,-1
 932 771 l 1,3,-1
 1134 771 l 1,4,-1
 1134 651 l 1,5,-1
 874 651 l 1,6,-1
 812 522 l 1,7,-1
 1134 522 l 1,8,-1
 1134 402 l 1,9,-1
 810 402 l 1,10,-1
 810 0 l 1,11,-1
 462 0 l 1,12,-1
 462 402 l 1,13,-1
 138 402 l 1,14,-1
 138 522 l 1,15,-1
 460 522 l 1,16,-1
 399 651 l 1,17,-1
 138 651 l 1,18,-1
 138 771 l 1,19,-1
 342 771 l 1,20,-1
 -42 1577 l 1,21,-1
 336 1577 l 1,22,-1
 636 811 l 1,0,-1
EndSplineSet
EndChar

StartChar: brokenbar
Encoding: 166 166 104
Width: 753
GlyphClass: 2
Flags: W
VStem: 225 310<-147 599 921 1667>
LayerCount: 2
Fore
SplineSet
225 -147 m 1,0,-1
 226 599 l 1,1,-1
 534 599 l 1,2,-1
 535 -147 l 1,3,-1
 225 -147 l 1,0,-1
225 921 m 1,4,-1
 226 1667 l 1,5,-1
 534 1667 l 1,6,-1
 535 921 l 1,7,-1
 225 921 l 1,4,-1
EndSplineSet
EndChar

StartChar: section
Encoding: 167 167 105
Width: 1123
GlyphClass: 2
Flags: W
HStem: -110 238<331.424 695.341> 1340 238<382.61 729.903>
VStem: 108 255<674.303 829.293 1189.18 1315.64> 729 270<164.151 333.7 671.462 831.378>
LayerCount: 2
Fore
SplineSet
959 1423 m 1,0,-1
 867 1220 l 1,1,2
 814 1262 814 1262 716.5 1301 c 128,-1,3
 619 1340 619 1340 546 1340 c 0,4,5
 497 1340 497 1340 462 1333 c 128,-1,6
 427 1326 427 1326 409 1316.5 c 128,-1,7
 391 1307 391 1307 380.5 1293 c 128,-1,8
 370 1279 370 1279 367.5 1268 c 128,-1,9
 365 1257 365 1257 365 1244 c 0,10,11
 365 1233 365 1233 365.5 1229 c 128,-1,12
 366 1225 366 1225 372 1215 c 128,-1,13
 378 1205 378 1205 390 1197.5 c 128,-1,14
 402 1190 402 1190 426.5 1178.5 c 128,-1,15
 451 1167 451 1167 487 1154 c 2,16,-1
 643 1098 l 2,17,18
 734 1065 734 1065 797.5 1032.5 c 128,-1,19
 861 1000 861 1000 900 969.5 c 128,-1,20
 939 939 939 939 960.5 901.5 c 128,-1,21
 982 864 982 864 989.5 828 c 128,-1,22
 997 792 997 792 997 743 c 0,23,24
 997 663 997 663 949.5 598 c 128,-1,25
 902 533 902 533 813 506 c 1,26,27
 865 484 865 484 902.5 451.5 c 128,-1,28
 940 419 940 419 960.5 381 c 128,-1,29
 981 343 981 343 990 305 c 128,-1,30
 999 267 999 267 999 226 c 0,31,32
 999 166 999 166 983.5 117.5 c 128,-1,33
 968 69 968 69 942.5 34.5 c 128,-1,34
 917 0 917 0 879.5 -26 c 128,-1,35
 842 -52 842 -52 802 -67.5 c 128,-1,36
 762 -83 762 -83 714 -93 c 128,-1,37
 666 -103 666 -103 623 -106.5 c 128,-1,38
 580 -110 580 -110 532 -110 c 0,39,40
 432 -110 432 -110 313 -70.5 c 128,-1,41
 194 -31 194 -31 135 18 c 1,42,-1
 106 43 l 1,43,-1
 201 258 l 1,44,-1
 209 251 l 2,45,46
 217 244 217 244 233 232 c 2,47,-1
 270 207 l 2,48,49
 291 193 291 193 319 179 c 128,-1,50
 347 165 347 165 377.5 153.5 c 128,-1,51
 408 142 408 142 445.5 135 c 128,-1,52
 483 128 483 128 520 128 c 0,53,54
 729 128 729 128 729 250 c 0,55,56
 729 303 729 303 696 330 c 128,-1,57
 663 357 663 357 582 383 c 1,58,-1
 422 437 l 2,59,60
 323 471 323 471 261.5 503.5 c 128,-1,61
 200 536 200 536 166 577 c 128,-1,62
 132 618 132 618 120 661 c 128,-1,63
 108 704 108 704 108 768 c 0,64,65
 108 799 108 799 117.5 832.5 c 128,-1,66
 127 866 127 866 148 900.5 c 128,-1,67
 169 935 169 935 207.5 963 c 128,-1,68
 246 991 246 991 297 1005 c 1,69,70
 108 1072 108 1072 108 1272 c 0,71,72
 108 1316 108 1316 121.5 1357.5 c 128,-1,73
 135 1399 135 1399 167 1439.5 c 128,-1,74
 199 1480 199 1480 247 1510.5 c 128,-1,75
 295 1541 295 1541 369 1559.5 c 128,-1,76
 443 1578 443 1578 535 1578 c 0,77,78
 598 1578 598 1578 665.5 1561.5 c 128,-1,79
 733 1545 733 1545 779.5 1525.5 c 128,-1,80
 826 1506 826 1506 872 1479.5 c 128,-1,81
 918 1453 918 1453 933.5 1442 c 128,-1,82
 949 1431 949 1431 959 1423 c 1,0,-1
547 648 m 0,83,84
 736 648 736 648 736 748 c 0,85,86
 736 772 736 772 728.5 789.5 c 128,-1,87
 721 807 721 807 701.5 822 c 128,-1,88
 682 837 682 837 643.5 844.5 c 128,-1,89
 605 852 605 852 548 852 c 0,90,91
 499 852 499 852 464 846 c 128,-1,92
 429 840 429 840 410 830.5 c 128,-1,93
 391 821 391 821 380 806.5 c 128,-1,94
 369 792 369 792 366 779.5 c 128,-1,95
 363 767 363 767 363 750 c 0,96,97
 363 699 363 699 406 673.5 c 128,-1,98
 449 648 449 648 547 648 c 0,83,84
EndSplineSet
EndChar

StartChar: dieresis
Encoding: 168 168 106
Width: 1246
GlyphClass: 2
Flags: W
HStem: 0 388<165.958 417.232 835.958 1087.23>
VStem: 98 389<69.8047 318.195> 768 389<69.8047 318.195>
LayerCount: 2
Fore
SplineSet
768 194 m 128,-1,1
 768 277 768 277 823.5 332.5 c 128,-1,2
 879 388 879 388 961 388 c 128,-1,3
 1043 388 1043 388 1100 332.5 c 128,-1,4
 1157 277 1157 277 1157 194 c 128,-1,5
 1157 111 1157 111 1100 55.5 c 128,-1,6
 1043 0 1043 0 961 0 c 128,-1,7
 879 0 879 0 823.5 55.5 c 128,-1,0
 768 111 768 111 768 194 c 128,-1,1
98 194 m 128,-1,9
 98 277 98 277 153.5 332.5 c 128,-1,10
 209 388 209 388 291 388 c 128,-1,11
 373 388 373 388 430 332.5 c 128,-1,12
 487 277 487 277 487 194 c 128,-1,13
 487 111 487 111 430 55.5 c 128,-1,14
 373 0 373 0 291 0 c 128,-1,15
 209 0 209 0 153.5 55.5 c 128,-1,8
 98 111 98 111 98 194 c 128,-1,9
EndSplineSet
EndChar

StartChar: copyright
Encoding: 169 169 107
Width: 2080
GlyphClass: 2
Flags: W
HStem: -133 234<819.477 1322.74> 270 209<930.018 1274.24> 1089 209<932.029 1293.2> 1468 235<820.802 1322.67>
VStem: 135 256<530.805 1036.04> 608 236<570.271 993.131> 1753 256<537.872 1029.05>
LayerCount: 2
Fore
SplineSet
1074 101 m 0,0,1
 1219 101 1219 101 1346.5 155.5 c 128,-1,2
 1474 210 1474 210 1562.5 302.5 c 128,-1,3
 1651 395 1651 395 1702 521.5 c 128,-1,4
 1753 648 1753 648 1753 789 c 0,5,6
 1753 849 1753 849 1741.5 912.5 c 128,-1,7
 1730 976 1730 976 1703.5 1042.5 c 128,-1,8
 1677 1109 1677 1109 1638.5 1170.5 c 128,-1,9
 1600 1232 1600 1232 1543 1286.5 c 128,-1,10
 1486 1341 1486 1341 1416 1381 c 128,-1,11
 1346 1421 1346 1421 1253 1444.5 c 128,-1,12
 1160 1468 1160 1468 1055 1468 c 0,13,14
 956 1468 956 1468 859.5 1437.5 c 128,-1,15
 763 1407 763 1407 679 1347.5 c 128,-1,16
 595 1288 595 1288 530.5 1207 c 128,-1,17
 466 1126 466 1126 428.5 1016 c 128,-1,18
 391 906 391 906 391 783 c 0,19,20
 391 642 391 642 441 516.5 c 128,-1,21
 491 391 491 391 579 299.5 c 128,-1,22
 667 208 667 208 795.5 154.5 c 128,-1,23
 924 101 924 101 1074 101 c 0,0,1
1060 1703 m 0,24,25
 1216 1703 1216 1703 1353.5 1662 c 128,-1,26
 1491 1621 1491 1621 1589 1556.5 c 128,-1,27
 1687 1492 1687 1492 1766 1405 c 128,-1,28
 1845 1318 1845 1318 1892.5 1233 c 128,-1,29
 1940 1148 1940 1148 1968 1059 c 0,30,31
 2011 924 2011 924 2009 754 c 0,32,33
 2009 703 2009 703 2002 647.5 c 128,-1,34
 1995 592 1995 592 1975 525.5 c 128,-1,35
 1955 459 1955 459 1925.5 394.5 c 128,-1,36
 1896 330 1896 330 1849 262 c 128,-1,37
 1802 194 1802 194 1742.5 135.5 c 128,-1,38
 1683 77 1683 77 1600 23.5 c 128,-1,39
 1517 -30 1517 -30 1418 -68 c 0,40,41
 1252 -132 1252 -132 1066 -133 c 0,42,43
 944 -133 944 -133 826.5 -102.5 c 128,-1,44
 709 -72 709 -72 606.5 -17 c 128,-1,45
 504 38 504 38 416.5 120.5 c 128,-1,46
 329 203 329 203 266.5 302.5 c 128,-1,47
 204 402 204 402 169.5 525.5 c 128,-1,48
 135 649 135 649 135 783 c 0,49,50
 135 919 135 919 171 1043.5 c 128,-1,51
 207 1168 207 1168 271.5 1268 c 128,-1,52
 336 1368 336 1368 424 1450.5 c 128,-1,53
 512 1533 512 1533 614.5 1588 c 128,-1,54
 717 1643 717 1643 831.5 1673 c 128,-1,55
 946 1703 946 1703 1060 1703 c 0,24,25
844 784 m 0,56,57
 844 699 844 699 860.5 638.5 c 128,-1,58
 877 578 877 578 909 543.5 c 128,-1,59
 941 509 941 509 983 494 c 128,-1,60
 1025 479 1025 479 1080 479 c 0,61,62
 1186 479 1186 479 1302 536 c 2,63,-1
 1376 573 l 1,64,-1
 1376 354 l 1,65,-1
 1348 340 l 2,66,67
 1208 270 1208 270 1092 270 c 0,68,69
 983 270 983 270 897 301 c 128,-1,70
 811 332 811 332 757.5 382.5 c 128,-1,71
 704 433 704 433 669.5 501.5 c 128,-1,72
 635 570 635 570 621.5 639.5 c 128,-1,73
 608 709 608 709 608 784 c 0,74,75
 608 938 608 938 662.5 1053.5 c 128,-1,76
 717 1169 717 1169 823.5 1233.5 c 128,-1,77
 930 1298 930 1298 1076 1298 c 0,78,79
 1146 1298 1146 1298 1226.5 1276.5 c 128,-1,80
 1307 1255 1307 1255 1344 1232 c 2,81,-1
 1368 1217 l 1,82,-1
 1368 1007 l 1,83,-1
 1294 1044 l 2,84,85
 1262 1060 1262 1060 1200.5 1074.5 c 128,-1,86
 1139 1089 1139 1089 1072 1089 c 0,87,88
 1019 1089 1019 1089 978 1071.5 c 128,-1,89
 937 1054 937 1054 912 1025.5 c 128,-1,90
 887 997 887 997 871.5 956.5 c 128,-1,91
 856 916 856 916 850 874 c 128,-1,92
 844 832 844 832 844 784 c 0,56,57
EndSplineSet
EndChar

StartChar: ordfeminine
Encoding: 170 170 108
Width: 1249
GlyphClass: 2
Flags: W
HStem: 608.2 194.397<501.569 679.038> 1066.59 145.598<517.584 740.134> 1327.39 21G<309.854 386.596> 1392.19 193.597<366.655 702.548>
VStem: 192.199 279.995<833.298 1037.26> 740.19 278.396<836.182 1065.19 1202.59 1371.14>
LayerCount: 2
Fore
SplineSet
516.194 1037.79 m 128,-1,1
 472.194 1008.99 472.194 1008.99 472.194 940.995 c 128,-1,2
 472.194 872.996 472.194 872.996 503.395 837.797 c 128,-1,3
 534.594 802.598 534.594 802.598 590.593 802.598 c 0,4,5
 678.592 802.598 678.592 802.598 740.19 876.996 c 1,6,-1
 740.19 1060.19 l 1,7,8
 741.791 1061.79 741.791 1061.79 709.391 1064.19 c 128,-1,9
 676.991 1066.59 676.991 1066.59 663.392 1066.59 c 0,10,0
 560.193 1066.59 560.193 1066.59 516.194 1037.79 c 128,-1,1
616.192 1392.19 m 0,11,12
 455.395 1392.19 455.395 1392.19 317.797 1327.39 c 1,13,-1
 251.398 1494.59 l 1,14,15
 398.596 1585.79 398.596 1585.79 625.792 1585.79 c 0,16,17
 886.589 1585.79 886.589 1585.79 969.787 1419.39 c 0,18,19
 1018.59 1323.39 1018.59 1323.39 1018.59 1168.19 c 2,20,-1
 1018.59 629 l 1,21,-1
 801.79 629 l 1,22,-1
 763.391 748.998 l 1,23,24
 722.591 678.6 722.591 678.6 664.992 643.399 c 128,-1,25
 607.393 608.2 607.393 608.2 517.794 608.2 c 0,26,27
 363.396 608.2 363.396 608.2 277.798 688.6 c 128,-1,28
 192.199 768.998 192.199 768.998 192.199 918.195 c 128,-1,29
 192.199 1067.39 192.199 1067.39 304.197 1139.79 c 128,-1,30
 416.195 1212.19 416.195 1212.19 617.793 1212.19 c 0,31,32
 688.191 1212.19 688.191 1212.19 740.19 1202.59 c 1,33,34
 740.19 1295.39 740.19 1295.39 732.19 1316.19 c 0,35,36
 715.391 1361.79 715.391 1361.79 688.592 1376.99 c 128,-1,37
 661.792 1392.19 661.792 1392.19 616.192 1392.19 c 0,11,12
EndSplineSet
EndChar

StartChar: guillemotleft
Encoding: 171 171 109
Width: 1846
GlyphClass: 2
Flags: W
DStem2: 98 696 432 579 0.84788 0.530188<221.16 771.403> 432 579 98 453 0.84788 -0.530188<0 556.075> 902 696 1236 579 0.84788 0.530188<221.16 771.403> 1236 579 902 453 0.84788 -0.530188<0 556.075>
LayerCount: 2
Fore
SplineSet
904 862 m 1,0,-1
 432 579 l 1,1,-1
 904 285 l 1,2,-1
 904 -51 l 1,3,-1
 98 453 l 1,4,-1
 98 696 l 1,5,-1
 904 1200 l 1,6,-1
 904 862 l 1,0,-1
1708 862 m 1,7,-1
 1236 579 l 1,8,-1
 1708 285 l 1,9,-1
 1708 -51 l 1,10,-1
 902 453 l 1,11,-1
 902 696 l 1,12,-1
 1708 1200 l 1,13,-1
 1708 862 l 1,7,-1
EndSplineSet
EndChar

StartChar: logicalnot
Encoding: 172 172 110
Width: 1130
GlyphClass: 2
Flags: W
HStem: 584 262<63 867>
VStem: 867 192<224 584>
LayerCount: 2
Fore
SplineSet
867 584 m 1,0,-1
 63 584 l 1,1,-1
 63 846 l 1,2,-1
 1059 846 l 1,3,-1
 1059 584 l 1,4,-1
 1059 224 l 1,5,-1
 867 224 l 1,6,-1
 867 584 l 1,0,-1
EndSplineSet
EndChar

StartChar: uni00AD
Encoding: 173 173 111
Width: 1120
GlyphClass: 2
Flags: W
HStem: 574 262<156 950>
LayerCount: 2
Fore
SplineSet
950 574 m 1,0,-1
 156 574 l 1,1,-1
 156 836 l 1,2,-1
 950 836 l 1,3,-1
 950 574 l 1,0,-1
EndSplineSet
EndChar

StartChar: registered
Encoding: 174 174 112
Width: 1366
GlyphClass: 2
Flags: W
HStem: 572 136<460.68 913.819> 1162 112<616 650> 1450 109<616 768.309> 1730 138<462.637 913.496>
VStem: 15 145<1003.48 1433.58> 479 132<890 1162 1274 1450> 807 133<1292.49 1434.42> 1216 147<1003.53 1433.42>
LayerCount: 2
Fore
SplineSet
665 1274 m 2,0,1
 737 1274 737 1274 772 1294.5 c 128,-1,2
 807 1315 807 1315 807 1370 c 0,3,4
 807 1417 807 1417 769.5 1433.5 c 128,-1,5
 732 1450 732 1450 616 1450 c 1,6,-1
 616 1274 l 1,7,-1
 665 1274 l 2,0,1
961 927 m 1,8,-1
 833 864 l 1,9,-1
 650 1162 l 1,10,-1
 611 1162 l 1,11,-1
 611 890 l 1,12,-1
 479 890 l 1,13,-1
 479 1559 l 1,14,-1
 615 1559 l 2,15,16
 687 1559 687 1559 742 1550.5 c 128,-1,17
 797 1542 797 1542 843.5 1522.5 c 128,-1,18
 890 1503 890 1503 915 1466 c 128,-1,19
 940 1429 940 1429 940 1375 c 0,20,21
 940 1297 940 1297 904 1255 c 128,-1,22
 868 1213 868 1213 775 1187 c 1,23,-1
 961 927 l 1,8,-1
15 1220 m 0,24,25
 15 1395 15 1395 101.5 1543.5 c 128,-1,26
 188 1692 188 1692 343 1780 c 128,-1,27
 498 1868 498 1868 688 1868 c 0,28,29
 874 1868 874 1868 1029.5 1781.5 c 128,-1,30
 1185 1695 1185 1695 1274 1547 c 128,-1,31
 1363 1399 1363 1399 1363 1220 c 128,-1,32
 1363 1041 1363 1041 1274 893 c 128,-1,33
 1185 745 1185 745 1029.5 658.5 c 128,-1,34
 874 572 874 572 688 572 c 0,35,36
 500 572 500 572 344 660 c 128,-1,37
 188 748 188 748 101.5 895.5 c 128,-1,38
 15 1043 15 1043 15 1220 c 0,24,25
687 1730 m 128,-1,40
 459 1730 459 1730 309.5 1582 c 128,-1,41
 160 1434 160 1434 160 1217.5 c 128,-1,42
 160 1001 160 1001 309.5 854.5 c 128,-1,43
 459 708 459 708 687 708 c 0,44,45
 916 708 916 708 1066 856 c 128,-1,46
 1216 1004 1216 1004 1216 1218 c 0,47,48
 1216 1436 1216 1436 1065.5 1583 c 128,-1,39
 915 1730 915 1730 687 1730 c 128,-1,40
EndSplineSet
EndChar

StartChar: macron
Encoding: 175 175 113
Width: 659
GlyphClass: 2
Flags: W
HStem: 122 127<-341 341>
LayerCount: 2
Fore
SplineSet
341 122 m 1,0,-1
 -341 122 l 1,1,-1
 -341 249 l 1,2,-1
 341 249 l 1,3,-1
 341 122 l 1,0,-1
EndSplineSet
EndChar

StartChar: degree
Encoding: 176 176 114
Width: 820
GlyphClass: 2
Flags: W
HStem: 680 163<276.324 515.48> 1196 163<276.324 515.48>
VStem: 31 185<903.55 1135.45> 576 185<902.76 1136.64>
LayerCount: 2
Fore
SplineSet
216 1019.5 m 128,-1,1
 216 944 216 944 269.5 893.5 c 128,-1,2
 323 843 323 843 396.5 843 c 128,-1,3
 470 843 470 843 523 893.5 c 128,-1,4
 576 944 576 944 576 1019.5 c 128,-1,5
 576 1095 576 1095 523 1145.5 c 128,-1,6
 470 1196 470 1196 396.5 1196 c 128,-1,7
 323 1196 323 1196 269.5 1145.5 c 128,-1,0
 216 1095 216 1095 216 1019.5 c 128,-1,1
31 1019.5 m 128,-1,9
 31 1115 31 1115 82.5 1194 c 128,-1,10
 134 1273 134 1273 217.5 1316 c 128,-1,11
 301 1359 301 1359 397 1359 c 256,12,13
 493 1359 493 1359 576 1316 c 128,-1,14
 659 1273 659 1273 710 1194.5 c 128,-1,15
 761 1116 761 1116 761 1020 c 128,-1,16
 761 924 761 924 710 845 c 128,-1,17
 659 766 659 766 576 723 c 128,-1,18
 493 680 493 680 397 680 c 256,19,20
 301 680 301 680 217.5 723 c 128,-1,21
 134 766 134 766 82.5 845 c 128,-1,8
 31 924 31 924 31 1019.5 c 128,-1,9
EndSplineSet
EndChar

StartChar: plusminus
Encoding: 177 177 115
Width: 1134
GlyphClass: 2
Flags: W
HStem: -20 262<204 998> 770 269<179 456 744 1023>
VStem: 456 288<417 770 1039 1389>
LayerCount: 2
Fore
SplineSet
1023 770 m 5,0,-1
 744 770 l 5,1,-1
 744 417 l 5,2,-1
 456 417 l 5,3,-1
 456 770 l 5,4,-1
 179 770 l 5,5,-1
 179 1039 l 5,6,-1
 456 1039 l 5,7,-1
 456 1389 l 5,8,-1
 744 1389 l 5,9,-1
 744 1039 l 5,10,-1
 1023 1039 l 5,11,-1
 1023 770 l 5,0,-1
998 -20 m 1,12,-1
 204 -20 l 1,13,-1
 204 242 l 1,14,-1
 998 242 l 1,15,-1
 998 -20 l 1,12,-1
EndSplineSet
EndChar

StartChar: uni00B2
Encoding: 178 178 116
Width: 1174
GlyphClass: 2
Flags: W
HStem: 622 214.396<573.192 870.788> 1365.99 208.797<325 599.071>
VStem: 629.191 266.396<1146.62 1342.59>
DStem2: 208.798 1495.19 272.396 1299.59 0.92444 0.381329<-51.6525 224.452> 444.395 1015.59 573.192 836.396 0.763181 0.646184<-17.4984 276.722>
LayerCount: 2
Fore
SplineSet
629.191 1250.79 m 0,0,1
 629.191 1309.19 629.191 1309.19 599.992 1337.59 c 128,-1,2
 570.792 1365.99 570.792 1365.99 505.993 1365.99 c 0,3,4
 470.794 1365.99 470.794 1365.99 425.194 1354.79 c 128,-1,5
 379.595 1343.59 379.595 1343.59 336.396 1325.99 c 2,6,-1
 272.396 1299.59 l 2,7,8
 251.597 1290.79 251.597 1290.79 235.598 1282.79 c 1,9,-1
 234.797 1281.99 l 1,10,-1
 161.998 1473.19 l 1,11,-1
 163.599 1473.99 l 2,12,13
 183.598 1484.39 183.598 1484.39 208.798 1495.19 c 128,-1,14
 233.997 1505.99 233.997 1505.99 288.396 1527.19 c 128,-1,15
 342.796 1548.39 342.796 1548.39 405.595 1561.59 c 128,-1,16
 468.394 1574.79 468.394 1574.79 523.593 1574.79 c 256,17,18
 578.792 1574.79 578.792 1574.79 629.991 1565.99 c 128,-1,19
 681.19 1557.19 681.19 1557.19 730.39 1535.99 c 128,-1,20
 779.589 1514.79 779.589 1514.79 815.589 1483.19 c 128,-1,21
 851.588 1451.59 851.588 1451.59 873.588 1401.59 c 128,-1,22
 895.587 1351.59 895.587 1351.59 895.587 1289.19 c 0,23,24
 895.587 1194.79 895.587 1194.79 849.588 1117.59 c 128,-1,25
 803.589 1040.39 803.589 1040.39 688.391 938.795 c 2,26,-1
 573.192 836.396 l 1,27,-1
 870.788 836.396 l 1,28,-1
 870.788 622 l 1,29,-1
 184.398 622 l 1,30,-1
 184.398 795.598 l 1,31,-1
 444.395 1015.59 l 2,32,33
 447.594 1017.99 447.594 1017.99 468.794 1035.59 c 128,-1,34
 489.993 1053.19 489.993 1053.19 497.193 1059.59 c 2,35,-1
 523.593 1082.79 l 2,36,37
 543.593 1100.39 543.593 1100.39 551.593 1109.99 c 2,38,-1
 574.792 1135.59 l 2,39,40
 590.792 1152.39 590.792 1152.39 597.992 1164.39 c 128,-1,41
 605.191 1176.39 605.191 1176.39 613.592 1191.99 c 128,-1,42
 621.991 1207.59 621.991 1207.59 625.592 1221.99 c 128,-1,43
 629.191 1236.39 629.191 1236.39 629.191 1250.79 c 0,0,1
EndSplineSet
EndChar

StartChar: uni00B3
Encoding: 179 179 117
Width: 1179
GlyphClass: 2
Flags: W
HStem: 536.202 206.396<242.683 606.685> 1016.2 196.797<402.995 578.893> 1428.99 209.598<290.311 584.649>
VStem: 622.191 247.997<1254.54 1406.3> 639.791 259.196<770.747 957.894>
LayerCount: 2
Fore
SplineSet
622.191 1340.19 m 0,0,1
 622.191 1384.99 622.191 1384.99 585.792 1406.99 c 128,-1,2
 549.393 1428.99 549.393 1428.99 490.193 1428.99 c 0,3,4
 469.395 1428.99 469.395 1428.99 446.194 1425.79 c 128,-1,5
 422.995 1422.59 422.995 1422.59 401.396 1417.79 c 128,-1,6
 379.795 1412.99 379.795 1412.99 358.596 1406.99 c 128,-1,7
 337.396 1400.99 337.396 1400.99 320.196 1394.99 c 128,-1,8
 302.996 1388.99 302.996 1388.99 289.797 1383.79 c 128,-1,9
 276.597 1378.59 276.597 1378.59 269.397 1376.19 c 2,10,-1
 262.197 1372.99 l 1,11,-1
 170.999 1556.19 l 1,12,-1
 185.398 1564.19 l 2,13,14
 200.598 1572.19 200.598 1572.19 228.598 1584.59 c 128,-1,15
 256.598 1596.99 256.598 1596.99 291.396 1608.99 c 128,-1,16
 326.196 1620.99 326.196 1620.99 374.195 1629.79 c 128,-1,17
 422.194 1638.59 422.194 1638.59 470.194 1638.59 c 0,18,19
 542.993 1638.59 542.993 1638.59 601.792 1628.99 c 128,-1,20
 660.591 1619.39 660.591 1619.39 710.99 1596.99 c 128,-1,21
 761.39 1574.59 761.39 1574.59 795.389 1539.79 c 128,-1,22
 829.389 1504.99 829.389 1504.99 848.988 1453.39 c 128,-1,23
 868.588 1401.79 868.588 1401.79 870.188 1335.39 c 0,24,25
 871.788 1260.19 871.788 1260.19 827.789 1196.59 c 128,-1,26
 783.789 1132.99 783.789 1132.99 709.391 1114.59 c 1,27,28
 790.989 1094.59 790.989 1094.59 844.988 1023.79 c 128,-1,29
 898.987 952.996 898.987 952.996 898.987 868.197 c 256,30,31
 898.987 783.398 898.987 783.398 867.788 718.6 c 128,-1,32
 836.589 653.801 836.589 653.801 780.189 614.601 c 128,-1,33
 723.79 575.401 723.79 575.401 649.392 555.802 c 128,-1,34
 574.992 536.202 574.992 536.202 484.594 536.202 c 0,35,36
 433.395 536.202 433.395 536.202 383.795 541.802 c 128,-1,37
 334.196 547.402 334.196 547.402 299.797 555.402 c 128,-1,38
 265.397 563.401 265.397 563.401 238.598 571.401 c 128,-1,39
 211.798 579.401 211.798 579.401 198.998 585.001 c 2,40,-1
 185.398 590.602 l 1,41,-1
 251.797 792.198 l 1,42,-1
 252.598 792.198 l 1,43,44
 270.197 784.998 270.197 784.998 294.196 776.599 c 128,-1,45
 318.196 768.198 318.196 768.198 374.995 755.398 c 128,-1,46
 431.795 742.599 431.795 742.599 476.594 742.599 c 0,47,48
 557.393 742.599 557.393 742.599 598.592 770.599 c 128,-1,49
 639.791 798.598 639.791 798.598 639.791 865.797 c 0,50,51
 639.791 913.797 639.791 913.797 604.992 949.396 c 128,-1,52
 570.192 984.995 570.192 984.995 516.993 1001.4 c 128,-1,53
 463.794 1017.79 463.794 1017.79 402.995 1016.2 c 1,54,-1
 402.995 1212.99 l 1,55,56
 446.994 1212.99 446.994 1212.99 484.594 1219.79 c 128,-1,57
 522.193 1226.59 522.193 1226.59 553.793 1240.99 c 128,-1,58
 585.393 1255.39 585.393 1255.39 603.792 1280.99 c 128,-1,59
 622.191 1306.59 622.191 1306.59 622.191 1340.19 c 0,0,1
EndSplineSet
EndChar

StartChar: acute
Encoding: 180 180 118
Width: 1097
GlyphClass: 2
Flags: W
VStem: 291 515
LayerCount: 2
Fore
SplineSet
448 308 m 1,0,-1
 291 382 l 1,1,-1
 494 995 l 1,2,-1
 806 850 l 1,3,-1
 448 308 l 1,0,-1
EndSplineSet
EndChar

StartChar: uni00B5
Encoding: 181 181 119
Width: 1351
GlyphClass: 2
Flags: W
HStem: -15 234<516.593 793.406> 1 21G<968.659 1226> 1141 20G<139 489 874 1226>
VStem: 139 350<-428 16 277 1161> 874 352<257.973 1161>
LayerCount: 2
Fore
SplineSet
620 -15 m 0,0,1
 592 -15 592 -15 559.5 -7.5 c 128,-1,2
 527 0 527 0 508.5 7 c 128,-1,3
 490 14 490 14 489 16 c 1,4,-1
 489 -488 l 1,5,-1
 139 -428 l 1,6,-1
 139 1161 l 1,7,-1
 489 1161 l 1,8,-1
 489 277 l 1,9,-1
 495 274 l 2,10,11
 501 271 501 271 513 265.5 c 128,-1,12
 525 260 525 260 540.5 253.5 c 128,-1,13
 556 247 556 247 575 240.5 c 128,-1,14
 594 234 594 234 612.5 229 c 128,-1,15
 631 224 631 224 651.5 221 c 128,-1,16
 672 218 672 218 688 219 c 0,17,18
 812 225 812 225 874 296 c 1,19,-1
 874 1161 l 1,20,-1
 1226 1161 l 1,21,-1
 1226 1 l 1,22,-1
 978 1 l 1,23,-1
 900 168 l 1,24,25
 891 136 891 136 870.5 105.5 c 128,-1,26
 850 75 850 75 817 47 c 128,-1,27
 784 19 784 19 733 2 c 128,-1,28
 682 -15 682 -15 620 -15 c 0,0,1
EndSplineSet
EndChar

StartChar: paragraph
Encoding: 182 182 120
Width: 1364
GlyphClass: 2
Flags: W
HStem: 0 21G<638 897 1032 1288> 1428 149<897 1032>
VStem: 79 818<944.239 1354.83> 638 259<0 711> 1032 256<0 1428>
LayerCount: 2
Fore
SplineSet
1288 1578 m 1,0,-1
 1288 0 l 1,1,-1
 1032 0 l 1,2,-1
 1032 1428 l 1,3,-1
 897 1428 l 1,4,-1
 897 0 l 1,5,-1
 638 0 l 1,6,-1
 638 711 l 1,7,8
 545 711 545 711 465.5 723.5 c 128,-1,9
 386 736 386 736 313.5 768 c 128,-1,10
 241 800 241 800 190 849.5 c 128,-1,11
 139 899 139 899 109 977 c 128,-1,12
 79 1055 79 1055 79 1155 c 0,13,14
 79 1230 79 1230 98 1291.5 c 128,-1,15
 117 1353 117 1353 148.5 1396 c 128,-1,16
 180 1439 180 1439 226.5 1472 c 128,-1,17
 273 1505 273 1505 324 1524.5 c 128,-1,18
 375 1544 375 1544 437.5 1556 c 128,-1,19
 500 1568 500 1568 558 1572.5 c 128,-1,20
 616 1577 616 1577 682 1577 c 2,21,-1
 787 1577 l 1,22,-1
 1288 1578 l 1,0,-1
EndSplineSet
EndChar

StartChar: periodcentered
Encoding: 183 183 121
Width: 621
GlyphClass: 2
Flags: W
HStem: 494 422<181.354 440.002>
VStem: 100 422<575.985 834.015>
LayerCount: 2
Fore
SplineSet
100 705 m 128,-1,1
 100 792 100 792 161.5 854 c 128,-1,2
 223 916 223 916 310.5 916 c 128,-1,3
 398 916 398 916 460 854 c 128,-1,4
 522 792 522 792 522 705 c 128,-1,5
 522 618 522 618 460 556 c 128,-1,6
 398 494 398 494 310.5 494 c 128,-1,7
 223 494 223 494 161.5 556 c 128,-1,0
 100 618 100 618 100 705 c 128,-1,1
EndSplineSet
EndChar

StartChar: cedilla
Encoding: 184 184 122
Width: 659
GlyphClass: 2
Flags: W
HStem: -665 148<95.7285 374.5> -239 88<248 326.999>
VStem: 388 194<-501.953 -295.48>
DStem2: 128 -239 248 -151 0.0761144 0.997099<96.8785 262.762>
LayerCount: 2
Fore
SplineSet
78 -611 m 1,0,-1
 78 -474 l 1,1,-1
 86 -478 l 2,2,3
 95 -482 95 -482 112 -488.5 c 128,-1,4
 129 -495 129 -495 149 -501.5 c 128,-1,5
 169 -508 169 -508 196.5 -512.5 c 128,-1,6
 224 -517 224 -517 250 -517 c 0,7,8
 285 -517 285 -517 307.5 -513.5 c 128,-1,9
 330 -510 330 -510 350 -498.5 c 128,-1,10
 370 -487 370 -487 379 -463 c 128,-1,11
 388 -439 388 -439 388 -401 c 0,12,13
 388 -239 388 -239 128 -239 c 1,14,-1
 148 23 l 1,15,-1
 268 23 l 1,16,-1
 248 -151 l 1,17,18
 275 -151 275 -151 307 -156 c 128,-1,19
 339 -161 339 -161 377.5 -171 c 128,-1,20
 416 -181 416 -181 451 -200 c 128,-1,21
 486 -219 486 -219 516 -244.5 c 128,-1,22
 546 -270 546 -270 563.5 -309 c 128,-1,23
 581 -348 581 -348 582 -395 c 1,24,25
 582 -527 582 -527 508 -596 c 128,-1,26
 434 -665 434 -665 292 -665 c 0,27,28
 179 -665 179 -665 85 -615 c 1,29,-1
 78 -611 l 1,0,-1
EndSplineSet
EndChar

StartChar: uni00B9
Encoding: 185 185 123
Width: 912
GlyphClass: 2
Flags: W
VStem: 343.996 278.396<702 1415.59>
LayerCount: 2
Fore
SplineSet
343.996 702 m 1,0,-1
 343.996 1415.59 l 1,1,-1
 219.197 1361.99 l 1,2,-1
 143.999 1552.39 l 1,3,-1
 357.596 1638.79 l 1,4,-1
 622.392 1637.19 l 1,5,-1
 622.392 702 l 1,6,-1
 343.996 702 l 1,0,-1
EndSplineSet
EndChar

StartChar: ordmasculine
Encoding: 186 186 124
Width: 1281
GlyphClass: 2
Flags: W
HStem: 672.2 187.197<500.485 721.471> 1460.99 188.797<500.27 720.915>
VStem: 154.999 279.996<930.608 1389.08> 786.989 278.396<930.608 1389.08>
LayerCount: 2
Fore
SplineSet
610.992 859.397 m 128,-1,1
 700.591 859.397 700.591 859.397 743.79 932.196 c 128,-1,2
 786.989 1005 786.989 1005 786.989 1160.19 c 128,-1,3
 786.989 1315.39 786.989 1315.39 743.79 1388.19 c 128,-1,4
 700.591 1460.99 700.591 1460.99 610.992 1460.99 c 128,-1,5
 521.394 1460.99 521.394 1460.99 478.194 1388.19 c 128,-1,6
 434.995 1315.39 434.995 1315.39 434.995 1160.19 c 128,-1,7
 434.995 1005 434.995 1005 478.194 932.196 c 128,-1,0
 521.394 859.397 521.394 859.397 610.992 859.397 c 128,-1,1
610.192 1649.79 m 128,-1,9
 828.589 1649.79 828.589 1649.79 946.987 1520.59 c 128,-1,10
 1065.39 1391.39 1065.39 1391.39 1065.39 1158.59 c 0,11,12
 1065.39 927.396 1065.39 927.396 947.787 799.799 c 128,-1,13
 830.189 672.2 830.189 672.2 610.992 672.2 c 128,-1,14
 391.796 672.2 391.796 672.2 273.397 799.799 c 128,-1,15
 154.999 927.396 154.999 927.396 154.999 1158.59 c 0,16,17
 154.999 1391.39 154.999 1391.39 273.397 1520.59 c 128,-1,8
 391.796 1649.79 391.796 1649.79 610.192 1649.79 c 128,-1,9
EndSplineSet
EndChar

StartChar: guillemotright
Encoding: 187 187 125
Width: 1888
GlyphClass: 2
Flags: W
DStem2: 170 1200 170 862 0.84788 -0.530188<179.204 737.077> 170 285 170 -51 0.84788 0.530188<0 563.706> 974 1200 974 862 0.84788 -0.530188<179.204 737.077> 974 285 974 -51 0.84788 0.530188<0 563.706>
LayerCount: 2
Fore
SplineSet
974 862 m 1,0,-1
 974 1200 l 1,1,-1
 1780 696 l 1,2,-1
 1780 453 l 1,3,-1
 974 -51 l 1,4,-1
 974 285 l 1,5,-1
 1455 579 l 1,6,-1
 974 862 l 1,0,-1
170 862 m 1,7,-1
 170 1200 l 1,8,-1
 976 696 l 1,9,-1
 976 453 l 1,10,-1
 170 -51 l 1,11,-1
 170 285 l 1,12,-1
 651 579 l 1,13,-1
 170 862 l 1,7,-1
EndSplineSet
EndChar

StartChar: onequarter
Encoding: 188 188 126
Width: 1975
GlyphClass: 2
Flags: W
HStem: 96 205<1313 1489 1733 1872>
VStem: 258 264<411 1125> 1489 244<-124 96 303 597>
DStem2: 447 -29 666 -107 0.410123 0.91203<18.6786 1721.43>
LayerCount: 2
Fore
SplineSet
447 -29 m 1,0,-1
 1153 1541 l 1,1,-1
 1379 1458 l 1,2,-1
 666 -107 l 1,3,-1
 447 -29 l 1,0,-1
1526 1023 m 1,4,-1
 1733 970 l 1,5,-1
 1733 303 l 1,6,-1
 1872 303 l 1,7,-1
 1872 96 l 1,8,-1
 1733 96 l 1,9,-1
 1733 -125 l 1,10,-1
 1489 -124 l 1,11,-1
 1489 96 l 1,12,-1
 1040 96 l 1,13,-1
 1007 257 l 1,14,-1
 1526 1023 l 1,4,-1
1313 301 m 1,15,-1
 1489 301 l 1,16,-1
 1489 597 l 1,17,-1
 1313 301 l 1,15,-1
258 411 m 1,18,-1
 258 1125 l 1,19,-1
 133 1071 l 1,20,-1
 58 1261 l 1,21,-1
 344 1373 l 1,22,-1
 522 1333 l 1,23,-1
 522 411 l 1,24,-1
 258 411 l 1,18,-1
EndSplineSet
EndChar

StartChar: onehalf
Encoding: 189 189 127
Width: 2090
GlyphClass: 2
Flags: W
HStem: 96 214<1672 1970> 840 209<1419.56 1704.55>
VStem: 258 264<411 1125> 1728 266<620.771 816.514>
DStem2: 447 -29 666 -107 0.410123 0.91203<18.6786 1721.43> 1543 489 1672 310 0.762106 0.647453<-17.5824 276.948>
LayerCount: 2
Fore
SplineSet
447 -29 m 1,0,-1
 1153 1541 l 1,1,-1
 1379 1458 l 1,2,-1
 666 -107 l 1,3,-1
 447 -29 l 1,0,-1
258 411 m 1,4,-1
 258 1125 l 1,5,-1
 133 1071 l 1,6,-1
 58 1261 l 1,7,-1
 344 1373 l 1,8,-1
 522 1333 l 1,9,-1
 522 411 l 1,10,-1
 258 411 l 1,4,-1
1728 725 m 0,11,12
 1728 783 1728 783 1698.5 811.5 c 128,-1,13
 1669 840 1669 840 1604 840 c 0,14,15
 1556 840 1556 840 1488.5 819 c 128,-1,16
 1421 798 1421 798 1377 777 c 2,17,-1
 1333 756 l 1,18,-1
 1261 947 l 1,19,-1
 1268 950 l 2,20,21
 1275 954 1275 954 1287.5 960 c 128,-1,22
 1300 966 1300 966 1318 974 c 2,23,-1
 1357 990 l 1,24,-1
 1403 1006 l 2,25,26
 1427 1015 1427 1015 1454.5 1022.5 c 128,-1,27
 1482 1030 1482 1030 1509 1036 c 128,-1,28
 1536 1042 1536 1042 1565.5 1045.5 c 128,-1,29
 1595 1049 1595 1049 1622 1049 c 0,30,31
 1693 1049 1693 1049 1755.5 1034 c 128,-1,32
 1818 1019 1818 1019 1873.5 987.5 c 128,-1,33
 1929 956 1929 956 1961.5 898 c 128,-1,34
 1994 840 1994 840 1994 763 c 0,35,36
 1994 669 1994 669 1948 592 c 128,-1,37
 1902 515 1902 515 1787 413 c 2,38,-1
 1672 310 l 1,39,-1
 1970 310 l 1,40,-1
 1970 96 l 1,41,-1
 1283 96 l 1,42,-1
 1283 270 l 1,43,-1
 1543 489 l 1,44,-1
 1568 510 l 2,45,46
 1588 526 1588 526 1596 534 c 2,47,-1
 1622 558 l 1,48,49
 1641 574 1641 574 1650 584 c 2,50,-1
 1674 610 l 2,51,52
 1689 626 1689 626 1696 638 c 2,53,-1
 1712 666 l 2,54,55
 1721 681 1721 681 1724.5 696 c 128,-1,56
 1728 711 1728 711 1728 725 c 0,11,12
EndSplineSet
EndChar

StartChar: threequarters
Encoding: 190 190 128
Width: 2126
GlyphClass: 2
Flags: W
HStem: 96 205<1467 1673 1897 2036> 409 206<174.682 508.709> 889 197<314 489.249> 1302 209<200.908 495.354>
VStem: 533 249<1129.15 1281.1> 551 259<642.196 830.375> 1673 224<-124 96 303 607>
DStem2: 611 -29 830 -107 0.40964 0.912247<18.5558 1721.02> 1171 257 1467 301 0.56092 0.82787<202.459 571.336>
LayerCount: 2
Fore
SplineSet
1690 1023 m 1,0,-1
 1897 970 l 1,1,-1
 1897 303 l 1,2,-1
 2036 303 l 1,3,-1
 2036 96 l 1,4,-1
 1897 96 l 1,5,-1
 1897 -125 l 1,6,-1
 1673 -124 l 1,7,-1
 1673 96 l 1,8,-1
 1204 96 l 1,9,-1
 1171 257 l 1,10,-1
 1690 1023 l 1,0,-1
1467 301 m 1,11,-1
 1673 301 l 1,12,-1
 1673 607 l 1,13,-1
 1467 301 l 1,11,-1
611 -29 m 1,14,-1
 1316 1541 l 1,15,-1
 1543 1458 l 1,16,-1
 830 -107 l 1,17,-1
 611 -29 l 1,14,-1
533 1213 m 256,18,19
 533 1258 533 1258 496.5 1280 c 128,-1,20
 460 1302 460 1302 401 1302 c 0,21,22
 357 1302 357 1302 300 1288 c 128,-1,23
 243 1274 243 1274 208 1260 c 2,24,-1
 173 1246 l 1,25,-1
 82 1429 l 1,26,-1
 96 1437 l 2,27,28
 111 1445 111 1445 139 1457.5 c 128,-1,29
 167 1470 167 1470 202 1482 c 128,-1,30
 237 1494 237 1494 285 1502.5 c 128,-1,31
 333 1511 333 1511 381 1511 c 0,32,33
 472 1511 472 1511 542.5 1495 c 128,-1,34
 613 1479 613 1479 667 1444.5 c 128,-1,35
 721 1410 721 1410 750.5 1350.5 c 128,-1,36
 780 1291 780 1291 782 1208 c 1,37,38
 782 1133 782 1133 738 1069.5 c 128,-1,39
 694 1006 694 1006 620 987 c 1,40,41
 701 967 701 967 755.5 896.5 c 128,-1,42
 810 826 810 826 810 741 c 256,43,44
 810 656 810 656 778.5 591.5 c 128,-1,45
 747 527 747 527 691 487.5 c 128,-1,46
 635 448 635 448 560.5 428.5 c 128,-1,47
 486 409 486 409 396 409 c 0,48,49
 358 409 358 409 321.5 412 c 128,-1,50
 285 415 285 415 256.5 419.5 c 128,-1,51
 228 424 228 424 202 430 c 128,-1,52
 176 436 176 436 157 442 c 2,53,-1
 124 452 l 2,54,55
 110 457 110 457 103 460 c 128,-1,56
 96 463 96 463 97 463 c 2,57,-1
 163 665 l 1,58,59
 176 659 176 659 199 651 c 128,-1,60
 222 643 222 643 281.5 629 c 128,-1,61
 341 615 341 615 388 615 c 0,62,63
 469 615 469 615 510 643 c 128,-1,64
 551 671 551 671 551 738 c 0,65,66
 551 786 551 786 516.5 821.5 c 128,-1,67
 482 857 482 857 428.5 874 c 128,-1,68
 375 891 375 891 314 889 c 1,69,-1
 314 1086 l 1,70,71
 373 1086 373 1086 420.5 1097.5 c 128,-1,72
 468 1109 468 1109 500.5 1138.5 c 128,-1,73
 533 1168 533 1168 533 1213 c 256,18,19
EndSplineSet
EndChar

StartChar: questiondown
Encoding: 191 191 129
Width: 1159
GlyphClass: 2
Flags: W
HStem: -105 273<484.622 943.369> 1131 388<604.544 851.456>
VStem: 106 338<209.117 430.823> 539 378<1197.15 1452.85> 584 321<762.849 1030>
LayerCount: 2
Fore
SplineSet
444 318 m 0,0,1
 444 278 444 278 457.5 250 c 128,-1,2
 471 222 471 222 491.5 206 c 128,-1,3
 512 190 512 190 547 181.5 c 128,-1,4
 582 173 582 173 614 170.5 c 128,-1,5
 646 168 646 168 694 168 c 0,6,7
 748 168 748 168 832 186 c 128,-1,8
 916 204 916 204 973.5 221.5 c 128,-1,9
 1031 239 1031 239 1031 240 c 2,10,-1
 1112 -13 l 1,11,12
 1057 -41 1057 -41 1018 -54 c 0,13,14
 865 -105 865 -105 664 -105 c 0,15,16
 546 -105 546 -105 448.5 -84 c 128,-1,17
 351 -63 351 -63 272.5 -18.5 c 128,-1,18
 194 26 194 26 150 103 c 128,-1,19
 106 180 106 180 106 285 c 0,20,21
 106 311 106 311 108 335 c 128,-1,22
 110 359 110 359 120.5 400.5 c 128,-1,23
 131 442 131 442 149.5 478 c 128,-1,24
 168 514 168 514 204 558.5 c 128,-1,25
 240 603 240 603 288.5 640 c 128,-1,26
 337 677 337 677 413.5 713 c 128,-1,27
 490 749 490 749 584 776 c 1,28,-1
 584 1030 l 1,29,-1
 905 1030 l 1,30,-1
 905 621 l 1,31,32
 877 610 877 610 833 596 c 2,33,-1
 755 570 l 2,34,35
 721 559 721 559 678.5 542.5 c 128,-1,36
 636 526 636 526 604.5 511 c 128,-1,37
 573 496 573 496 541.5 475 c 128,-1,38
 510 454 510 454 489.5 431.5 c 128,-1,39
 469 409 469 409 456.5 380 c 128,-1,40
 444 351 444 351 444 318 c 0,0,1
917 1325 m 128,-1,42
 917 1242 917 1242 863.5 1186.5 c 128,-1,43
 810 1131 810 1131 728 1131 c 128,-1,44
 646 1131 646 1131 592.5 1186.5 c 128,-1,45
 539 1242 539 1242 539 1325 c 128,-1,46
 539 1408 539 1408 592.5 1463.5 c 128,-1,47
 646 1519 646 1519 728 1519 c 128,-1,48
 810 1519 810 1519 863.5 1463.5 c 128,-1,41
 917 1408 917 1408 917 1325 c 128,-1,42
EndSplineSet
EndChar

StartChar: Agrave
Encoding: 192 192 130
Width: 1568
GlyphClass: 2
Flags: W
HStem: 0 21G<58 433.343 1128.66 1504> 350 170<585 977> 1558 20G<571.409 990.591> 1727 21G<736.79 792.432>
DStem2: 58 0 427 0 0.312976 0.949761<115.488 482.645 658.814 1308.04> 1504 0 1135 0 0.314576 -0.949232<-1287.93 -659.382 -483.228 -116.078>
LayerCount: 2
Fore
SplineSet
787 1137 m 1,0,-1
 585 520 l 1,1,-1
 977 520 l 1,2,-1
 787 1137 l 1,0,-1
578 1578 m 1,3,-1
 984 1578 l 1,4,-1
 1504 0 l 1,5,-1
 1135 0 l 1,6,-1
 1024 350 l 1,7,-1
 538 350 l 1,8,-1
 427 0 l 1,9,-1
 58 0 l 1,10,-1
 578 1578 l 1,3,-1
750 1727 m 1,11,-1
 392 2269 l 1,12,-1
 704 2414 l 1,13,-1
 907 1801 l 1,14,-1
 750 1727 l 1,11,-1
EndSplineSet
EndChar

StartChar: Aacute
Encoding: 193 193 131
Width: 1568
GlyphClass: 2
Flags: W
HStem: 0 21G<58 433.343 1128.66 1504> 350 170<585 977> 1558 20G<571.409 990.591> 1727 21G<707.568 763.21>
DStem2: 58 0 427 0 0.312976 0.949761<115.488 482.645 658.814 1308.04> 984 1578 787 1137 0.312976 -0.949761<357.188 1002.66 1178.83 1545.98>
LayerCount: 2
Fore
SplineSet
787 1137 m 1,0,-1
 585 520 l 1,1,-1
 977 520 l 1,2,-1
 787 1137 l 1,0,-1
578 1578 m 1,3,-1
 984 1578 l 1,4,-1
 1504 0 l 1,5,-1
 1135 0 l 1,6,-1
 1024 350 l 1,7,-1
 538 350 l 1,8,-1
 427 0 l 1,9,-1
 58 0 l 1,10,-1
 578 1578 l 1,3,-1
750 1727 m 1,11,-1
 593 1801 l 1,12,-1
 796 2414 l 1,13,-1
 1108 2269 l 1,14,-1
 750 1727 l 1,11,-1
EndSplineSet
EndChar

StartChar: Acircumflex
Encoding: 194 194 132
Width: 1568
GlyphClass: 2
Flags: W
HStem: 0 21G<58 433.343 1128.66 1504> 350 170<585 977> 1558 20G<571.409 990.591> 1727 21G<405 682.833 895.167 1175>
DStem2: 58 0 427 0 0.312976 0.949761<115.488 482.645 658.814 1308.04> 984 1578 787 1137 0.312976 -0.949761<357.188 1002.66 1178.83 1545.98>
LayerCount: 2
Fore
SplineSet
787 1137 m 1,0,-1
 585 520 l 1,1,-1
 977 520 l 1,2,-1
 787 1137 l 1,0,-1
578 1578 m 1,3,-1
 984 1578 l 1,4,-1
 1504 0 l 1,5,-1
 1135 0 l 1,6,-1
 1024 350 l 1,7,-1
 538 350 l 1,8,-1
 427 0 l 1,9,-1
 58 0 l 1,10,-1
 578 1578 l 1,3,-1
663 2346 m 5,11,-1
 917 2346 l 5,12,-1
 1175 1727 l 5,13,-1
 901 1727 l 5,14,-1
 789 2111 l 5,15,-1
 677 1727 l 5,16,-1
 405 1727 l 5,17,-1
 663 2346 l 5,11,-1
EndSplineSet
EndChar

StartChar: Atilde
Encoding: 195 195 133
Width: 1568
GlyphClass: 2
Flags: W
HStem: 0 21G<58 433.343 1128.66 1504> 350 170<585 977> 1558 20G<571.409 990.591> 1727 221<832.994 1003.39> 1753 21G<348 556> 1878 213<569.151 726.523>
VStem: 348 208<1753 1848.6>
DStem2: 58 0 427 0 0.312976 0.949761<115.488 482.645 658.814 1308.04> 753 2041 740 1825 0.865426 -0.501036<-36.2686 219.733> 984 1578 787 1137 0.312976 -0.949761<357.188 1002.66 1178.83 1545.98>
LayerCount: 2
Fore
SplineSet
787 1137 m 1,0,-1
 585 520 l 1,1,-1
 977 520 l 1,2,-1
 787 1137 l 1,0,-1
578 1578 m 1,3,-1
 984 1578 l 1,4,-1
 1504 0 l 1,5,-1
 1135 0 l 1,6,-1
 1024 350 l 1,7,-1
 538 350 l 1,8,-1
 427 0 l 1,9,-1
 58 0 l 1,10,-1
 578 1578 l 1,3,-1
1000 1727 m 0,11,12
 953 1727 953 1727 904.5 1742.5 c 128,-1,13
 856 1758 856 1758 816 1781 c 2,14,-1
 740 1825 l 1,15,16
 704 1847 704 1847 671.5 1862.5 c 128,-1,17
 639 1878 639 1878 616 1878 c 0,18,19
 585 1878 585 1878 570.5 1849.5 c 128,-1,20
 556 1821 556 1821 556 1753 c 1,21,-1
 348 1753 l 1,22,23
 348 1919 348 1919 405.5 2005 c 128,-1,24
 463 2091 463 2091 578 2091 c 0,25,26
 626 2091 626 2091 672 2076.5 c 128,-1,27
 718 2062 718 2062 753 2041 c 2,28,-1
 822 1998 l 2,29,30
 855 1977 855 1977 889.5 1962.5 c 128,-1,31
 924 1948 924 1948 954 1948 c 0,32,33
 989 1948 989 1948 1000.5 1968.5 c 128,-1,34
 1012 1989 1012 1989 1012 2052 c 1,35,-1
 1232 2052 l 1,36,37
 1232 1904 1232 1904 1169.5 1815.5 c 128,-1,38
 1107 1727 1107 1727 1000 1727 c 0,11,12
EndSplineSet
EndChar

StartChar: Adieresis
Encoding: 196 196 134
Width: 1568
GlyphClass: 2
Flags: W
HStem: 0 21G<58 433.343 1128.66 1504> 350 170<585 977> 1558 20G<571.409 990.591> 1739 388<332.958 584.232 1002.96 1254.23>
VStem: 265 389<1808.8 2057.2> 935 389<1808.8 2057.2>
DStem2: 58 0 427 0 0.312976 0.949761<115.488 482.645 658.814 1308.04> 984 1578 787 1137 0.312976 -0.949761<357.188 1002.66 1178.83 1545.98>
LayerCount: 2
Fore
SplineSet
787 1137 m 1,0,-1
 585 520 l 1,1,-1
 977 520 l 1,2,-1
 787 1137 l 1,0,-1
578 1578 m 1,3,-1
 984 1578 l 1,4,-1
 1504 0 l 1,5,-1
 1135 0 l 1,6,-1
 1024 350 l 1,7,-1
 538 350 l 1,8,-1
 427 0 l 1,9,-1
 58 0 l 1,10,-1
 578 1578 l 1,3,-1
935 1933 m 132,-1,12
 935 2016 935 2016 990.5 2071.5 c 132,-1,13
 1046 2127 1046 2127 1128 2127 c 132,-1,14
 1210 2127 1210 2127 1267 2071.5 c 132,-1,15
 1324 2016 1324 2016 1324 1933 c 132,-1,16
 1324 1850 1324 1850 1267 1794.5 c 132,-1,17
 1210 1739 1210 1739 1128 1739 c 132,-1,18
 1046 1739 1046 1739 990.5 1794.5 c 132,-1,11
 935 1850 935 1850 935 1933 c 132,-1,12
265 1933 m 132,-1,20
 265 2016 265 2016 320.5 2071.5 c 132,-1,21
 376 2127 376 2127 458 2127 c 132,-1,22
 540 2127 540 2127 597 2071.5 c 132,-1,23
 654 2016 654 2016 654 1933 c 132,-1,24
 654 1850 654 1850 597 1794.5 c 132,-1,25
 540 1739 540 1739 458 1739 c 132,-1,26
 376 1739 376 1739 320.5 1794.5 c 132,-1,19
 265 1850 265 1850 265 1933 c 132,-1,20
EndSplineSet
EndChar

StartChar: Aring
Encoding: 197 197 135
Width: 1568
GlyphClass: 2
Flags: W
HStem: 0 21G<58 433.343 1128.66 1504> 350 170<585 977> 2028 163<661.324 900.48>
VStem: 416 185<1735.55 1967.45> 961 185<1734.76 1968.64>
DStem2: 986.741 1570 787 1137 0.312919 -0.94978<348.752 994.221>
LayerCount: 2
Fore
SplineSet
416 1851.5 m 128,-1,1
 416 1947 416 1947 467.5 2026 c 128,-1,2
 519 2105 519 2105 602.5 2148 c 128,-1,3
 686 2191 686 2191 782 2191 c 128,-1,4
 878 2191 878 2191 961 2148 c 128,-1,5
 1044 2105 1044 2105 1095 2026.5 c 128,-1,6
 1146 1948 1146 1948 1146 1852 c 128,-1,7
 1146 1756 1146 1756 1095 1677 c 0,8,9
 1052.16 1610.8 1052.16 1610.8 986.741 1570 c 1,10,-1
 1504 0 l 1,11,-1
 1135 0 l 1,12,-1
 1024 350 l 1,13,-1
 538 350 l 1,14,-1
 427 0 l 1,15,-1
 58 0 l 1,16,-1
 575.488 1570 l 1,17,18
 510.394 1611.01 510.394 1611.01 467.5 1677 c 0,19,0
 416 1756 416 1756 416 1851.5 c 128,-1,1
601 1851.5 m 128,-1,21
 601 1776 601 1776 654.5 1725.5 c 128,-1,22
 708 1675 708 1675 781.5 1675 c 128,-1,23
 855 1675 855 1675 908 1725.5 c 128,-1,24
 961 1776 961 1776 961 1851.5 c 128,-1,25
 961 1927 961 1927 908 1977.5 c 128,-1,26
 855 2028 855 2028 781.5 2028 c 128,-1,27
 708 2028 708 2028 654.5 1977.5 c 128,-1,20
 601 1927 601 1927 601 1851.5 c 128,-1,21
787 1137 m 1,28,-1
 585 520 l 1,29,-1
 977 520 l 1,30,-1
 787 1137 l 1,28,-1
EndSplineSet
EndChar

StartChar: AE
Encoding: 198 198 136
Width: 1917
GlyphClass: 2
Flags: W
HStem: 0 223<1190 1869> 350 170<535 829> 742 197<1190 1769> 1374 203<1190 1859>
VStem: 829 361<223 350 520 742 939 1343>
DStem2: 7 0 535 520 0.36589 0.930658<202.746 501.723 677.132 936.312>
LayerCount: 2
Fore
SplineSet
1859 1577 m 1,0,-1
 1859 1374 l 1,1,-1
 1190 1374 l 1,2,-1
 1190 939 l 1,3,-1
 1769 939 l 1,4,-1
 1769 742 l 1,5,-1
 1190 742 l 1,6,-1
 1190 223 l 1,7,-1
 1869 223 l 1,8,-1
 1869 0 l 1,9,-1
 829 0 l 1,10,-1
 829 350 l 1,11,-1
 488 350 l 1,12,-1
 366 0 l 1,13,-1
 7 0 l 1,14,-1
 627 1577 l 1,15,-1
 1859 1577 l 1,0,-1
829 520 m 1,16,-1
 829 1343 l 1,17,-1
 535 520 l 1,18,-1
 829 520 l 1,16,-1
EndSplineSet
EndChar

StartChar: Ccedilla
Encoding: 199 199 137
Width: 1271
GlyphClass: 2
Flags: W
HStem: -694 148<656.729 935.5> -268 88<809 887.999> -26.9873 265.987<630.809 707.398 826.518 1024.34> 1336 266<620.232 1032.63>
VStem: 76 367<472.35 1113.69> 949 194<-530.953 -324.48>
LayerCount: 2
Fore
SplineSet
639 -640 m 1,0,-1
 639 -503 l 1,1,-1
 647 -507 l 2,2,3
 656 -511 656 -511 673 -517.5 c 128,-1,4
 690 -524 690 -524 710 -530.5 c 128,-1,5
 730 -537 730 -537 757.5 -541.5 c 128,-1,6
 785 -546 785 -546 811 -546 c 0,7,8
 846 -546 846 -546 868.5 -542.5 c 128,-1,9
 891 -539 891 -539 911 -527.5 c 128,-1,10
 931 -516 931 -516 940 -492 c 128,-1,11
 949 -468 949 -468 949 -430 c 0,12,13
 949 -268 949 -268 689 -268 c 1,14,-1
 707.398 -26.9873 l 1,15,16
 427.086 -8.27034 427.086 -8.27034 260.5 184.5 c 0,17,18
 76 398 76 398 76 791.5 c 128,-1,19
 76 1185 76 1185 257 1393.5 c 128,-1,20
 438 1602 438 1602 769 1602 c 0,21,22
 989 1602 989 1602 1168 1528 c 0,23,24
 1207 1511 1207 1511 1225 1499 c 2,25,-1
 1243 1487 l 1,26,-1
 1143 1227 l 1,27,-1
 1125 1240 l 1,28,-1
 1102 1255 l 2,29,30
 976 1336 976 1336 795.5 1336 c 128,-1,31
 615 1336 615 1336 529 1204 c 128,-1,32
 443 1072 443 1072 443 782 c 0,33,34
 443 239 443 239 803 239 c 0,35,36
 984 239 984 239 1143 348 c 1,37,-1
 1243 88 l 1,38,39
 1158 17 1158 17 942 -16 c 0,40,41
 884.88 -24.724 884.88 -24.724 826.518 -27.5934 c 1,42,-1
 809 -180 l 1,43,44
 836 -180 836 -180 868 -185 c 128,-1,45
 900 -190 900 -190 938.5 -200 c 128,-1,46
 977 -210 977 -210 1012 -229 c 128,-1,47
 1047 -248 1047 -248 1077 -273.5 c 128,-1,48
 1107 -299 1107 -299 1124.5 -338 c 128,-1,49
 1142 -377 1142 -377 1143 -424 c 1,50,51
 1143 -556 1143 -556 1069 -625 c 128,-1,52
 995 -694 995 -694 853 -694 c 0,53,54
 740 -694 740 -694 646 -644 c 1,55,-1
 639 -640 l 1,0,-1
EndSplineSet
EndChar

StartChar: Egrave
Encoding: 200 200 138
Width: 1368
GlyphClass: 2
Flags: W
HStem: 0 266<557 1269> 703 226<557 1169> 1309 269<557 1259> 1727 21G<658.79 714.432>
VStem: 189 368<266 703 929 1309>
LayerCount: 2
Fore
SplineSet
1269 0 m 1,0,-1
 189 0 l 1,1,-1
 189 1578 l 1,2,-1
 1259 1578 l 1,3,-1
 1259 1309 l 1,4,-1
 557 1309 l 1,5,-1
 557 929 l 1,6,-1
 1169 929 l 1,7,-1
 1169 703 l 1,8,-1
 557 703 l 1,9,-1
 557 266 l 1,10,-1
 1269 266 l 1,11,-1
 1269 0 l 1,0,-1
672 1727 m 1,12,-1
 314 2269 l 1,13,-1
 626 2414 l 1,14,-1
 829 1801 l 1,15,-1
 672 1727 l 1,12,-1
EndSplineSet
EndChar

StartChar: Eacute
Encoding: 201 201 139
Width: 1368
GlyphClass: 2
Flags: W
HStem: 0 266<557 1269> 703 226<557 1169> 1309 269<557 1259> 1727 21G<629.568 685.21>
VStem: 189 368<266 703 929 1309>
LayerCount: 2
Fore
SplineSet
1269 0 m 1,0,-1
 189 0 l 1,1,-1
 189 1578 l 1,2,-1
 1259 1578 l 1,3,-1
 1259 1309 l 1,4,-1
 557 1309 l 1,5,-1
 557 929 l 1,6,-1
 1169 929 l 1,7,-1
 1169 703 l 1,8,-1
 557 703 l 1,9,-1
 557 266 l 1,10,-1
 1269 266 l 1,11,-1
 1269 0 l 1,0,-1
672 1727 m 1,12,-1
 515 1801 l 1,13,-1
 718 2414 l 1,14,-1
 1030 2269 l 1,15,-1
 672 1727 l 1,12,-1
EndSplineSet
EndChar

StartChar: Ecircumflex
Encoding: 202 202 140
Width: 1368
GlyphClass: 2
Flags: W
HStem: 0 266<557 1269> 703 226<557 1169> 1309 269<557 1259> 1727 21G<347 624.833 837.167 1117>
VStem: 189 368<266 703 929 1309>
LayerCount: 2
Fore
SplineSet
1269 0 m 1,0,-1
 189 0 l 1,1,-1
 189 1578 l 1,2,-1
 1259 1578 l 1,3,-1
 1259 1309 l 1,4,-1
 557 1309 l 1,5,-1
 557 929 l 1,6,-1
 1169 929 l 1,7,-1
 1169 703 l 1,8,-1
 557 703 l 1,9,-1
 557 266 l 1,10,-1
 1269 266 l 1,11,-1
 1269 0 l 1,0,-1
605 2346 m 5,12,-1
 859 2346 l 5,13,-1
 1117 1727 l 5,14,-1
 843 1727 l 5,15,-1
 731 2111 l 5,16,-1
 619 1727 l 5,17,-1
 347 1727 l 5,18,-1
 605 2346 l 5,12,-1
EndSplineSet
EndChar

StartChar: Edieresis
Encoding: 203 203 141
Width: 1368
GlyphClass: 2
Flags: W
HStem: 0 266<557 1269> 703 226<557 1169> 1309 269<557 1259> 1739 388<214.958 466.232 884.958 1136.23>
VStem: 147 389<1808.8 2057.2> 189 368<266 703 929 1309> 817 389<1808.8 2057.2>
LayerCount: 2
Fore
SplineSet
1269 0 m 1,0,-1
 189 0 l 1,1,-1
 189 1578 l 1,2,-1
 1259 1578 l 1,3,-1
 1259 1309 l 1,4,-1
 557 1309 l 1,5,-1
 557 929 l 1,6,-1
 1169 929 l 1,7,-1
 1169 703 l 1,8,-1
 557 703 l 1,9,-1
 557 266 l 1,10,-1
 1269 266 l 1,11,-1
 1269 0 l 1,0,-1
817 1933 m 128,-1,13
 817 2016 817 2016 872.5 2071.5 c 128,-1,14
 928 2127 928 2127 1010 2127 c 128,-1,15
 1092 2127 1092 2127 1149 2071.5 c 128,-1,16
 1206 2016 1206 2016 1206 1933 c 128,-1,17
 1206 1850 1206 1850 1149 1794.5 c 128,-1,18
 1092 1739 1092 1739 1010 1739 c 128,-1,19
 928 1739 928 1739 872.5 1794.5 c 128,-1,12
 817 1850 817 1850 817 1933 c 128,-1,13
147 1933 m 128,-1,21
 147 2016 147 2016 202.5 2071.5 c 128,-1,22
 258 2127 258 2127 340 2127 c 128,-1,23
 422 2127 422 2127 479 2071.5 c 128,-1,24
 536 2016 536 2016 536 1933 c 128,-1,25
 536 1850 536 1850 479 1794.5 c 128,-1,26
 422 1739 422 1739 340 1739 c 128,-1,27
 258 1739 258 1739 202.5 1794.5 c 128,-1,20
 147 1850 147 1850 147 1933 c 128,-1,21
EndSplineSet
EndChar

StartChar: Igrave
Encoding: 204 204 142
Width: 864
GlyphClass: 2
Flags: W
HStem: 0 170<77 247 616 787> 1407 171<77 247 616 787> 1727 21G<433.79 489.432>
VStem: 247 369<170 1407>
LayerCount: 2
Fore
SplineSet
77 170 m 1,0,-1
 247 170 l 1,1,-1
 247 1407 l 1,2,-1
 77 1407 l 1,3,-1
 77 1578 l 1,4,-1
 787 1578 l 1,5,-1
 787 1407 l 1,6,-1
 616 1407 l 1,7,-1
 616 170 l 1,8,-1
 787 170 l 1,9,-1
 787 0 l 1,10,-1
 77 0 l 1,11,-1
 77 170 l 1,0,-1
447 1727 m 1,12,-1
 89 2269 l 1,13,-1
 401 2414 l 1,14,-1
 604 1801 l 1,15,-1
 447 1727 l 1,12,-1
EndSplineSet
EndChar

StartChar: Iacute
Encoding: 205 205 143
Width: 864
GlyphClass: 2
Flags: W
HStem: 0 170<77 247 616 787> 1407 171<77 247 616 787> 1727 21G<404.568 460.21>
VStem: 247 369<170 1407>
LayerCount: 2
Fore
SplineSet
77 170 m 1,0,-1
 247 170 l 1,1,-1
 247 1407 l 1,2,-1
 77 1407 l 1,3,-1
 77 1578 l 1,4,-1
 787 1578 l 1,5,-1
 787 1407 l 1,6,-1
 616 1407 l 1,7,-1
 616 170 l 1,8,-1
 787 170 l 1,9,-1
 787 0 l 1,10,-1
 77 0 l 1,11,-1
 77 170 l 1,0,-1
447 1727 m 1,12,-1
 290 1801 l 1,13,-1
 493 2414 l 1,14,-1
 805 2269 l 1,15,-1
 447 1727 l 1,12,-1
EndSplineSet
EndChar

StartChar: Icircumflex
Encoding: 206 206 144
Width: 864
GlyphClass: 2
Flags: W
HStem: 0 170<77 247 616 787> 1407 171<77 247 616 787> 1727 21G<52 329.833 542.167 822>
VStem: 247 369<170 1407>
LayerCount: 2
Fore
SplineSet
77 170 m 1,0,-1
 247 170 l 1,1,-1
 247 1407 l 1,2,-1
 77 1407 l 1,3,-1
 77 1578 l 1,4,-1
 787 1578 l 1,5,-1
 787 1407 l 1,6,-1
 616 1407 l 1,7,-1
 616 170 l 1,8,-1
 787 170 l 1,9,-1
 787 0 l 1,10,-1
 77 0 l 1,11,-1
 77 170 l 1,0,-1
310 2346 m 5,12,-1
 564 2346 l 5,13,-1
 822 1727 l 5,14,-1
 548 1727 l 5,15,-1
 436 2111 l 5,16,-1
 324 1727 l 5,17,-1
 52 1727 l 5,18,-1
 310 2346 l 5,12,-1
EndSplineSet
EndChar

StartChar: Idieresis
Encoding: 207 207 145
Width: 864
GlyphClass: 2
Flags: W
HStem: 0 170<77 247 616 787> 1407 171<77 247 616 787> 1739 388<-10.0424 241.232 659.958 911.232>
VStem: -78 389<1808.8 2057.2> 247 369<170 1407> 592 389<1808.8 2057.2>
LayerCount: 2
Fore
SplineSet
77 170 m 1,0,-1
 247 170 l 1,1,-1
 247 1407 l 1,2,-1
 77 1407 l 1,3,-1
 77 1578 l 1,4,-1
 787 1578 l 1,5,-1
 787 1407 l 1,6,-1
 616 1407 l 1,7,-1
 616 170 l 1,8,-1
 787 170 l 1,9,-1
 787 0 l 1,10,-1
 77 0 l 1,11,-1
 77 170 l 1,0,-1
592 1933 m 128,-1,13
 592 2016 592 2016 647.5 2071.5 c 128,-1,14
 703 2127 703 2127 785 2127 c 128,-1,15
 867 2127 867 2127 924 2071.5 c 128,-1,16
 981 2016 981 2016 981 1933 c 128,-1,17
 981 1850 981 1850 924 1794.5 c 128,-1,18
 867 1739 867 1739 785 1739 c 128,-1,19
 703 1739 703 1739 647.5 1794.5 c 128,-1,12
 592 1850 592 1850 592 1933 c 128,-1,13
-78 1933 m 128,-1,21
 -78 2016 -78 2016 -22.5 2071.5 c 128,-1,22
 33 2127 33 2127 115 2127 c 128,-1,23
 197 2127 197 2127 254 2071.5 c 128,-1,24
 311 2016 311 2016 311 1933 c 128,-1,25
 311 1850 311 1850 254 1794.5 c 128,-1,26
 197 1739 197 1739 115 1739 c 128,-1,27
 33 1739 33 1739 -22.5 1794.5 c 128,-1,20
 -78 1850 -78 1850 -78 1933 c 128,-1,21
EndSplineSet
EndChar

StartChar: Eth
Encoding: 208 208 146
Width: 1477
GlyphClass: 2
Flags: W
HStem: 0 254<508 865.226> 684 232<-20 139 508 771> 1326 252<508 871.773>
VStem: 139 369<254 684 916 1326> 1077 370<465.689 1111.4>
LayerCount: 2
Fore
SplineSet
1447 782 m 0,0,1
 1447 403 1447 403 1249.5 201.5 c 128,-1,2
 1052 0 1052 0 639 0 c 2,3,-1
 139 0 l 1,4,-1
 139 684 l 1,5,-1
 -20 684 l 1,6,-1
 -20 916 l 1,7,-1
 139 916 l 1,8,-1
 139 1578 l 1,9,-1
 639 1578 l 2,10,11
 1447 1578 1447 1578 1447 782 c 0,0,1
1077 784 m 0,12,13
 1077 862 1077 862 1073 919.5 c 128,-1,14
 1069 977 1069 977 1056.5 1036.5 c 128,-1,15
 1044 1096 1044 1096 1022.5 1137.5 c 128,-1,16
 1001 1179 1001 1179 965.5 1217 c 128,-1,17
 930 1255 930 1255 880 1277.5 c 128,-1,18
 830 1300 830 1300 760 1313 c 128,-1,19
 690 1326 690 1326 600 1326 c 2,20,-1
 508 1326 l 1,21,-1
 508 916 l 1,22,-1
 771 916 l 1,23,-1
 771 684 l 1,24,-1
 508 684 l 1,25,-1
 508 254 l 1,26,-1
 600 254 l 2,27,28
 688 254 688 254 757 266.5 c 128,-1,29
 826 279 826 279 876 300.5 c 128,-1,30
 926 322 926 322 962 358.5 c 128,-1,31
 998 395 998 395 1020 436 c 128,-1,32
 1042 477 1042 477 1055 534.5 c 128,-1,33
 1068 592 1068 592 1072.5 650 c 128,-1,34
 1077 708 1077 708 1077 784 c 0,12,13
EndSplineSet
EndChar

StartChar: Ntilde
Encoding: 209 209 147
Width: 1643
GlyphClass: 2
Flags: W
HStem: 0 21G<149 478 1088.42 1481> 1558 20G<149 554.539 1154 1481> 1727 221<877.659 1048.39> 1753 21G<393 601> 1878 213<614.151 771.531>
VStem: 149 329<0 1074> 393 208<1753 1848.6> 1154 327<519 1578>
DStem2: 543 1578 478 1074 0.501163 -0.865353<403.562 1222.62> 798 2041 785 1825 0.865426 -0.501036<-36.2686 219.733>
LayerCount: 2
Fore
SplineSet
1481 0 m 1,0,-1
 1100 0 l 1,1,-1
 478 1074 l 1,2,-1
 478 0 l 1,3,-1
 149 0 l 1,4,-1
 149 1578 l 1,5,-1
 543 1578 l 1,6,-1
 1154 519 l 1,7,-1
 1154 1578 l 1,8,-1
 1481 1578 l 1,9,-1
 1481 0 l 1,0,-1
1045 1727 m 4,10,11
 998 1727 998 1727 949.5 1742.5 c 4,12,13
 900.392 1758.19 900.392 1758.19 861 1781 c 6,14,-1
 785 1825 l 5,15,16
 749 1847 749 1847 716.5 1862.5 c 132,-1,17
 684 1878 684 1878 661 1878 c 4,18,19
 630 1878 630 1878 615.5 1849.5 c 132,-1,20
 601 1821 601 1821 601 1753 c 5,21,-1
 393 1753 l 5,22,23
 393 1919 393 1919 450.5 2005 c 132,-1,24
 508 2091 508 2091 623 2091 c 4,25,26
 671 2091 671 2091 717 2076.5 c 4,27,28
 765.636 2061.17 765.636 2061.17 798 2041 c 6,29,-1
 867 1998 l 6,30,31
 902.142 1976.1 902.142 1976.1 934.5 1962.5 c 4,32,33
 969 1948 969 1948 999 1948 c 4,34,35
 1034 1948 1034 1948 1045.5 1968.5 c 132,-1,36
 1057 1989 1057 1989 1057 2052 c 5,37,-1
 1277 2052 l 5,38,39
 1277 1904 1277 1904 1214.5 1815.5 c 132,-1,40
 1152 1727 1152 1727 1045 1727 c 4,10,11
EndSplineSet
EndChar

StartChar: Ograve
Encoding: 210 210 148
Width: 1627
GlyphClass: 2
Flags: W
HStem: -28 266<645.946 980.054> 1339 266<644.729 981.271> 1727 21G<777.79 833.432>
VStem: 103 369<457.865 1117.53> 1154 369<457.865 1117.53>
LayerCount: 2
Fore
SplineSet
813 1605 m 128,-1,1
 1170 1605 1170 1605 1346.5 1390.5 c 128,-1,2
 1523 1176 1523 1176 1523 789 c 0,3,4
 1523 599 1523 599 1480.5 449.5 c 128,-1,5
 1438 300 1438 300 1352 193 c 128,-1,6
 1266 86 1266 86 1130 29 c 128,-1,7
 994 -28 994 -28 813 -28 c 128,-1,8
 632 -28 632 -28 496 29 c 128,-1,9
 360 86 360 86 274 193 c 128,-1,10
 188 300 188 300 145.5 449.5 c 128,-1,11
 103 599 103 599 103 789 c 0,12,13
 103 1176 103 1176 279.5 1390.5 c 128,-1,0
 456 1605 456 1605 813 1605 c 128,-1,1
813 1339 m 128,-1,15
 734 1339 734 1339 674 1310.5 c 128,-1,16
 614 1282 614 1282 576 1234 c 128,-1,17
 538 1186 538 1186 514.5 1114.5 c 128,-1,18
 491 1043 491 1043 481.5 964.5 c 128,-1,19
 472 886 472 886 472 789 c 256,20,21
 472 692 472 692 481.5 613.5 c 128,-1,22
 491 535 491 535 514.5 463.5 c 128,-1,23
 538 392 538 392 576 343.5 c 128,-1,24
 614 295 614 295 674 266.5 c 128,-1,25
 734 238 734 238 813 238 c 128,-1,26
 892 238 892 238 952 266.5 c 128,-1,27
 1012 295 1012 295 1050 343.5 c 128,-1,28
 1088 392 1088 392 1111.5 463.5 c 128,-1,29
 1135 535 1135 535 1144.5 613.5 c 128,-1,30
 1154 692 1154 692 1154 789 c 256,31,32
 1154 886 1154 886 1144.5 964.5 c 128,-1,33
 1135 1043 1135 1043 1111.5 1114.5 c 128,-1,34
 1088 1186 1088 1186 1050 1234 c 128,-1,35
 1012 1282 1012 1282 952 1310.5 c 128,-1,14
 892 1339 892 1339 813 1339 c 128,-1,15
791 1727 m 1,36,-1
 433 2269 l 1,37,-1
 745 2414 l 1,38,-1
 948 1801 l 1,39,-1
 791 1727 l 1,36,-1
EndSplineSet
EndChar

StartChar: Oacute
Encoding: 211 211 149
Width: 1627
GlyphClass: 2
Flags: W
HStem: -28 266<645.946 980.054> 1339 266<644.729 981.271> 1727 21G<748.568 804.21>
VStem: 103 369<457.865 1117.53> 1154 369<457.865 1117.53>
LayerCount: 2
Fore
SplineSet
813 1605 m 128,-1,1
 1170 1605 1170 1605 1346.5 1390.5 c 128,-1,2
 1523 1176 1523 1176 1523 789 c 0,3,4
 1523 599 1523 599 1480.5 449.5 c 128,-1,5
 1438 300 1438 300 1352 193 c 128,-1,6
 1266 86 1266 86 1130 29 c 128,-1,7
 994 -28 994 -28 813 -28 c 128,-1,8
 632 -28 632 -28 496 29 c 128,-1,9
 360 86 360 86 274 193 c 128,-1,10
 188 300 188 300 145.5 449.5 c 128,-1,11
 103 599 103 599 103 789 c 0,12,13
 103 1176 103 1176 279.5 1390.5 c 128,-1,0
 456 1605 456 1605 813 1605 c 128,-1,1
813 1339 m 128,-1,15
 734 1339 734 1339 674 1310.5 c 128,-1,16
 614 1282 614 1282 576 1234 c 128,-1,17
 538 1186 538 1186 514.5 1114.5 c 128,-1,18
 491 1043 491 1043 481.5 964.5 c 128,-1,19
 472 886 472 886 472 789 c 256,20,21
 472 692 472 692 481.5 613.5 c 128,-1,22
 491 535 491 535 514.5 463.5 c 128,-1,23
 538 392 538 392 576 343.5 c 128,-1,24
 614 295 614 295 674 266.5 c 128,-1,25
 734 238 734 238 813 238 c 128,-1,26
 892 238 892 238 952 266.5 c 128,-1,27
 1012 295 1012 295 1050 343.5 c 128,-1,28
 1088 392 1088 392 1111.5 463.5 c 128,-1,29
 1135 535 1135 535 1144.5 613.5 c 128,-1,30
 1154 692 1154 692 1154 789 c 256,31,32
 1154 886 1154 886 1144.5 964.5 c 128,-1,33
 1135 1043 1135 1043 1111.5 1114.5 c 128,-1,34
 1088 1186 1088 1186 1050 1234 c 128,-1,35
 1012 1282 1012 1282 952 1310.5 c 128,-1,14
 892 1339 892 1339 813 1339 c 128,-1,15
791 1727 m 1,36,-1
 634 1801 l 1,37,-1
 837 2414 l 1,38,-1
 1149 2269 l 1,39,-1
 791 1727 l 1,36,-1
EndSplineSet
EndChar

StartChar: Ocircumflex
Encoding: 212 212 150
Width: 1627
GlyphClass: 2
Flags: W
HStem: -28 266<645.946 980.054> 1339 266<644.729 981.271> 1727 21G<436 713.833 926.167 1206>
VStem: 103 369<457.865 1117.53> 1154 369<457.865 1117.53>
LayerCount: 2
Fore
SplineSet
813 1605 m 128,-1,1
 1170 1605 1170 1605 1346.5 1390.5 c 128,-1,2
 1523 1176 1523 1176 1523 789 c 0,3,4
 1523 599 1523 599 1480.5 449.5 c 128,-1,5
 1438 300 1438 300 1352 193 c 128,-1,6
 1266 86 1266 86 1130 29 c 128,-1,7
 994 -28 994 -28 813 -28 c 128,-1,8
 632 -28 632 -28 496 29 c 128,-1,9
 360 86 360 86 274 193 c 128,-1,10
 188 300 188 300 145.5 449.5 c 128,-1,11
 103 599 103 599 103 789 c 0,12,13
 103 1176 103 1176 279.5 1390.5 c 128,-1,0
 456 1605 456 1605 813 1605 c 128,-1,1
813 1339 m 128,-1,15
 734 1339 734 1339 674 1310.5 c 128,-1,16
 614 1282 614 1282 576 1234 c 128,-1,17
 538 1186 538 1186 514.5 1114.5 c 128,-1,18
 491 1043 491 1043 481.5 964.5 c 128,-1,19
 472 886 472 886 472 789 c 256,20,21
 472 692 472 692 481.5 613.5 c 128,-1,22
 491 535 491 535 514.5 463.5 c 128,-1,23
 538 392 538 392 576 343.5 c 128,-1,24
 614 295 614 295 674 266.5 c 128,-1,25
 734 238 734 238 813 238 c 128,-1,26
 892 238 892 238 952 266.5 c 128,-1,27
 1012 295 1012 295 1050 343.5 c 128,-1,28
 1088 392 1088 392 1111.5 463.5 c 128,-1,29
 1135 535 1135 535 1144.5 613.5 c 128,-1,30
 1154 692 1154 692 1154 789 c 256,31,32
 1154 886 1154 886 1144.5 964.5 c 128,-1,33
 1135 1043 1135 1043 1111.5 1114.5 c 128,-1,34
 1088 1186 1088 1186 1050 1234 c 128,-1,35
 1012 1282 1012 1282 952 1310.5 c 128,-1,14
 892 1339 892 1339 813 1339 c 128,-1,15
694 2346 m 5,36,-1
 948 2346 l 5,37,-1
 1206 1727 l 5,38,-1
 932 1727 l 5,39,-1
 820 2111 l 5,40,-1
 708 1727 l 5,41,-1
 436 1727 l 5,42,-1
 694 2346 l 5,36,-1
EndSplineSet
EndChar

StartChar: Otilde
Encoding: 213 213 151
Width: 1627
GlyphClass: 2
Flags: W
HStem: -28 266<645.946 980.054> 1339 266<644.729 981.271> 1727 221<873.994 1044.39> 1753 21G<389 597> 1878 213<610.151 767.523>
VStem: 103 369<457.865 1117.53> 389 208<1753 1848.6> 1154 369<457.865 1117.53>
DStem2: 794 2041 781 1825 0.865426 -0.501036<-36.2686 219.733>
LayerCount: 2
Fore
SplineSet
813 1605 m 128,-1,1
 1170 1605 1170 1605 1346.5 1390.5 c 128,-1,2
 1523 1176 1523 1176 1523 789 c 0,3,4
 1523 599 1523 599 1480.5 449.5 c 128,-1,5
 1438 300 1438 300 1352 193 c 128,-1,6
 1266 86 1266 86 1130 29 c 128,-1,7
 994 -28 994 -28 813 -28 c 128,-1,8
 632 -28 632 -28 496 29 c 128,-1,9
 360 86 360 86 274 193 c 128,-1,10
 188 300 188 300 145.5 449.5 c 128,-1,11
 103 599 103 599 103 789 c 0,12,13
 103 1176 103 1176 279.5 1390.5 c 128,-1,0
 456 1605 456 1605 813 1605 c 128,-1,1
813 1339 m 128,-1,15
 734 1339 734 1339 674 1310.5 c 128,-1,16
 614 1282 614 1282 576 1234 c 128,-1,17
 538 1186 538 1186 514.5 1114.5 c 128,-1,18
 491 1043 491 1043 481.5 964.5 c 128,-1,19
 472 886 472 886 472 789 c 256,20,21
 472 692 472 692 481.5 613.5 c 128,-1,22
 491 535 491 535 514.5 463.5 c 128,-1,23
 538 392 538 392 576 343.5 c 128,-1,24
 614 295 614 295 674 266.5 c 128,-1,25
 734 238 734 238 813 238 c 128,-1,26
 892 238 892 238 952 266.5 c 128,-1,27
 1012 295 1012 295 1050 343.5 c 128,-1,28
 1088 392 1088 392 1111.5 463.5 c 128,-1,29
 1135 535 1135 535 1144.5 613.5 c 128,-1,30
 1154 692 1154 692 1154 789 c 256,31,32
 1154 886 1154 886 1144.5 964.5 c 128,-1,33
 1135 1043 1135 1043 1111.5 1114.5 c 128,-1,34
 1088 1186 1088 1186 1050 1234 c 128,-1,35
 1012 1282 1012 1282 952 1310.5 c 128,-1,14
 892 1339 892 1339 813 1339 c 128,-1,15
1041 1727 m 0,36,37
 994 1727 994 1727 945.5 1742.5 c 128,-1,38
 897 1758 897 1758 857 1781 c 2,39,-1
 781 1825 l 1,40,41
 745 1847 745 1847 712.5 1862.5 c 128,-1,42
 680 1878 680 1878 657 1878 c 0,43,44
 626 1878 626 1878 611.5 1849.5 c 128,-1,45
 597 1821 597 1821 597 1753 c 1,46,-1
 389 1753 l 1,47,48
 389 1919 389 1919 446.5 2005 c 128,-1,49
 504 2091 504 2091 619 2091 c 0,50,51
 667 2091 667 2091 713 2076.5 c 128,-1,52
 759 2062 759 2062 794 2041 c 2,53,-1
 863 1998 l 2,54,55
 896 1977 896 1977 930.5 1962.5 c 128,-1,56
 965 1948 965 1948 995 1948 c 0,57,58
 1030 1948 1030 1948 1041.5 1968.5 c 128,-1,59
 1053 1989 1053 1989 1053 2052 c 1,60,-1
 1273 2052 l 1,61,62
 1273 1904 1273 1904 1210.5 1815.5 c 128,-1,63
 1148 1727 1148 1727 1041 1727 c 0,36,37
EndSplineSet
EndChar

StartChar: Odieresis
Encoding: 214 214 152
Width: 1627
GlyphClass: 2
Flags: W
HStem: -28 266<645.946 980.054> 1339 266<644.729 981.271> 1739 388<353.958 605.232 1023.96 1275.23>
VStem: 103 369<457.865 1117.53> 286 389<1808.8 2057.2> 956 389<1808.8 2057.2> 1154 369<457.865 1117.53>
LayerCount: 2
Fore
SplineSet
813 1605 m 128,-1,1
 1170 1605 1170 1605 1346.5 1390.5 c 128,-1,2
 1523 1176 1523 1176 1523 789 c 0,3,4
 1523 599 1523 599 1480.5 449.5 c 128,-1,5
 1438 300 1438 300 1352 193 c 128,-1,6
 1266 86 1266 86 1130 29 c 128,-1,7
 994 -28 994 -28 813 -28 c 128,-1,8
 632 -28 632 -28 496 29 c 128,-1,9
 360 86 360 86 274 193 c 128,-1,10
 188 300 188 300 145.5 449.5 c 128,-1,11
 103 599 103 599 103 789 c 0,12,13
 103 1176 103 1176 279.5 1390.5 c 128,-1,0
 456 1605 456 1605 813 1605 c 128,-1,1
813 1339 m 128,-1,15
 734 1339 734 1339 674 1310.5 c 128,-1,16
 614 1282 614 1282 576 1234 c 128,-1,17
 538 1186 538 1186 514.5 1114.5 c 128,-1,18
 491 1043 491 1043 481.5 964.5 c 128,-1,19
 472 886 472 886 472 789 c 256,20,21
 472 692 472 692 481.5 613.5 c 128,-1,22
 491 535 491 535 514.5 463.5 c 128,-1,23
 538 392 538 392 576 343.5 c 128,-1,24
 614 295 614 295 674 266.5 c 128,-1,25
 734 238 734 238 813 238 c 128,-1,26
 892 238 892 238 952 266.5 c 128,-1,27
 1012 295 1012 295 1050 343.5 c 128,-1,28
 1088 392 1088 392 1111.5 463.5 c 128,-1,29
 1135 535 1135 535 1144.5 613.5 c 128,-1,30
 1154 692 1154 692 1154 789 c 256,31,32
 1154 886 1154 886 1144.5 964.5 c 128,-1,33
 1135 1043 1135 1043 1111.5 1114.5 c 128,-1,34
 1088 1186 1088 1186 1050 1234 c 128,-1,35
 1012 1282 1012 1282 952 1310.5 c 128,-1,14
 892 1339 892 1339 813 1339 c 128,-1,15
956 1933 m 132,-1,37
 956 2016 956 2016 1011.5 2071.5 c 132,-1,38
 1067 2127 1067 2127 1149 2127 c 132,-1,39
 1231 2127 1231 2127 1288 2071.5 c 132,-1,40
 1345 2016 1345 2016 1345 1933 c 132,-1,41
 1345 1850 1345 1850 1288 1794.5 c 132,-1,42
 1231 1739 1231 1739 1149 1739 c 132,-1,43
 1067 1739 1067 1739 1011.5 1794.5 c 132,-1,36
 956 1850 956 1850 956 1933 c 132,-1,37
286 1933 m 132,-1,45
 286 2016 286 2016 341.5 2071.5 c 132,-1,46
 397 2127 397 2127 479 2127 c 132,-1,47
 561 2127 561 2127 618 2071.5 c 132,-1,48
 675 2016 675 2016 675 1933 c 132,-1,49
 675 1850 675 1850 618 1794.5 c 132,-1,50
 561 1739 561 1739 479 1739 c 132,-1,51
 397 1739 397 1739 341.5 1794.5 c 132,-1,44
 286 1850 286 1850 286 1933 c 132,-1,45
EndSplineSet
EndChar

StartChar: multiply
Encoding: 215 215 153
Width: 1318
GlyphClass: 2
Flags: W
DStem2: 390 1012 208 813 0.726854 -0.686792<4.38403 383.562 668.489 1048.35> 208 292 390 93 0.726854 0.686792<0 379.864 664.791 1043.97>
LayerCount: 2
Fore
SplineSet
208 813 m 1,0,-1
 390 1012 l 1,1,-1
 680 738 l 1,2,-1
 970 1012 l 1,3,-1
 1152 813 l 1,4,-1
 876 553 l 1,5,-1
 1152 292 l 1,6,-1
 970 93 l 1,7,-1
 680 367 l 1,8,-1
 390 93 l 1,9,-1
 208 292 l 1,10,-1
 484 553 l 1,11,-1
 208 813 l 1,0,-1
EndSplineSet
EndChar

StartChar: Oslash
Encoding: 216 216 154
Width: 1565
GlyphClass: 2
Flags: W
HStem: -28 266<689.894 958.054> 1339 266<622.729 956.785> 1719 20G<1130.88 1197.22>
VStem: 81 369<457.865 1117.53> 1132 369<457.865 1117.51>
DStem2: 383 -123 519 -168 0.37619 0.926542<9.46745 179.919 487.622 1462.68 1816.78 2009.62>
LayerCount: 2
Fore
SplineSet
791 1339 m 128,-1,1
 712 1339 712 1339 652 1310.5 c 128,-1,2
 592 1282 592 1282 554 1234 c 128,-1,3
 516 1186 516 1186 492.5 1114.5 c 128,-1,4
 469 1043 469 1043 459.5 964.5 c 128,-1,5
 450 886 450 886 450 789 c 128,-1,6
 450 692 450 692 459.5 613.5 c 128,-1,7
 469 535 469 535 492.5 463.5 c 128,-1,8
 516 392 516 392 554 343.5 c 0,9,10
 559.95 335.906 559.95 335.906 566.439 328.803 c 1,11,-1
 958.719 1294.97 l 1,12,13
 945.052 1303.35 945.052 1303.35 930 1310.5 c 0,14,0
 870 1339 870 1339 791 1339 c 128,-1,1
1062.58 1179.73 m 1,15,-1
 688.53 252.326 l 1,16,17
 734.99 238 734.99 238 791 238 c 0,18,19
 870 238 870 238 930 266.5 c 128,-1,20
 990 295 990 295 1028 343.5 c 128,-1,21
 1066 392 1066 392 1089.5 463.5 c 128,-1,22
 1113 535 1113 535 1122.5 613.5 c 128,-1,23
 1132 692 1132 692 1132 789 c 128,-1,24
 1132 886 1132 886 1122.5 964.5 c 128,-1,25
 1113 1043 1113 1043 1089.5 1114.5 c 0,26,27
 1077.83 1150.01 1077.83 1150.01 1062.58 1179.73 c 1,15,-1
449.185 40.0116 m 1,28,29
 330.018 95.9312 330.018 95.9312 252 193 c 0,30,31
 166 300 166 300 123.5 449.5 c 128,-1,32
 81 599 81 599 81 789 c 0,33,34
 81 1176 81 1176 257.5 1390.5 c 128,-1,35
 434 1605 434 1605 791 1605 c 0,36,37
 946.678 1605 946.678 1605 1068.03 1564.21 c 1,38,-1
 1139 1739 l 1,39,-1
 1270 1694 l 1,40,-1
 1193.89 1505.3 l 1,41,42
 1268.33 1458.76 1268.33 1458.76 1324.5 1390.5 c 0,43,44
 1501 1176 1501 1176 1501 789 c 0,45,46
 1501 599 1501 599 1458.5 449.5 c 128,-1,47
 1416 300 1416 300 1330 193 c 128,-1,48
 1244 86 1244 86 1108 29 c 128,-1,49
 972 -28 972 -28 791 -28 c 0,50,51
 679.021 -28 679.021 -28 584.266 -6.18316 c 1,52,-1
 519 -168 l 1,53,-1
 383 -123 l 1,54,-1
 449.185 40.0116 l 1,28,29
EndSplineSet
EndChar

StartChar: Ugrave
Encoding: 217 217 155
Width: 1615
GlyphClass: 2
Flags: W
HStem: -37 266<632.195 981.671> 1558 20G<140 509 1106 1475> 1727 21G<792.79 848.432>
VStem: 140 369<381.672 1578> 1106 369<377.347 1578>
LayerCount: 2
Fore
SplineSet
509 719 m 1,0,1
 512 536 512 536 523 483.5 c 128,-1,2
 534 431 534 431 545 395.5 c 128,-1,3
 556 360 556 360 571.5 337 c 128,-1,4
 587 314 587 314 609 292 c 128,-1,5
 631 270 631 270 660 257 c 0,6,7
 721 229 721 229 790 229 c 128,-1,8
 859 229 859 229 900 237.5 c 128,-1,9
 941 246 941 246 971 265 c 128,-1,10
 1001 284 1001 284 1023.5 307 c 128,-1,11
 1046 330 1046 330 1060.5 366 c 128,-1,12
 1075 402 1075 402 1084.5 436.5 c 128,-1,13
 1094 471 1094 471 1098 521 c 0,14,15
 1106 604 1106 604 1106 719 c 2,16,-1
 1106 1578 l 1,17,-1
 1475 1578 l 1,18,-1
 1475 723 l 2,19,20
 1475 350 1475 350 1315.5 156.5 c 128,-1,21
 1156 -37 1156 -37 808 -37 c 0,22,23
 455 -37 455 -37 294 163 c 0,24,25
 140 355 140 355 140 723 c 2,26,-1
 140 1578 l 1,27,-1
 509 1578 l 1,28,-1
 509 719 l 1,0,1
806 1727 m 1,29,-1
 448 2269 l 1,30,-1
 760 2414 l 1,31,-1
 963 1801 l 1,32,-1
 806 1727 l 1,29,-1
EndSplineSet
EndChar

StartChar: Uacute
Encoding: 218 218 156
Width: 1615
GlyphClass: 2
Flags: W
HStem: -37 266<632.195 981.671> 1558 20G<140 509 1106 1475> 1727 21G<763.568 819.21>
VStem: 140 369<381.672 1578> 1106 369<377.347 1578>
LayerCount: 2
Fore
SplineSet
509 719 m 1,0,1
 512 536 512 536 523 483.5 c 128,-1,2
 534 431 534 431 545 395.5 c 128,-1,3
 556 360 556 360 571.5 337 c 128,-1,4
 587 314 587 314 609 292 c 128,-1,5
 631 270 631 270 660 257 c 0,6,7
 721 229 721 229 790 229 c 128,-1,8
 859 229 859 229 900 237.5 c 128,-1,9
 941 246 941 246 971 265 c 128,-1,10
 1001 284 1001 284 1023.5 307 c 128,-1,11
 1046 330 1046 330 1060.5 366 c 128,-1,12
 1075 402 1075 402 1084.5 436.5 c 128,-1,13
 1094 471 1094 471 1098 521 c 0,14,15
 1106 604 1106 604 1106 719 c 2,16,-1
 1106 1578 l 1,17,-1
 1475 1578 l 1,18,-1
 1475 723 l 2,19,20
 1475 350 1475 350 1315.5 156.5 c 128,-1,21
 1156 -37 1156 -37 808 -37 c 0,22,23
 455 -37 455 -37 294 163 c 0,24,25
 140 355 140 355 140 723 c 2,26,-1
 140 1578 l 1,27,-1
 509 1578 l 1,28,-1
 509 719 l 1,0,1
806 1727 m 1,29,-1
 649 1801 l 1,30,-1
 852 2414 l 1,31,-1
 1164 2269 l 1,32,-1
 806 1727 l 1,29,-1
EndSplineSet
EndChar

StartChar: Ucircumflex
Encoding: 219 219 157
Width: 1615
GlyphClass: 2
Flags: W
HStem: -37 266<632.195 981.671> 1558 20G<140 509 1106 1475> 1727 21G<421 698.833 911.167 1191>
VStem: 140 369<381.672 1578> 1106 369<377.347 1578>
LayerCount: 2
Fore
SplineSet
509 719 m 1,0,1
 512 536 512 536 523 483.5 c 128,-1,2
 534 431 534 431 545 395.5 c 128,-1,3
 556 360 556 360 571.5 337 c 128,-1,4
 587 314 587 314 609 292 c 128,-1,5
 631 270 631 270 660 257 c 0,6,7
 721 229 721 229 790 229 c 128,-1,8
 859 229 859 229 900 237.5 c 128,-1,9
 941 246 941 246 971 265 c 128,-1,10
 1001 284 1001 284 1023.5 307 c 128,-1,11
 1046 330 1046 330 1060.5 366 c 128,-1,12
 1075 402 1075 402 1084.5 436.5 c 128,-1,13
 1094 471 1094 471 1098 521 c 0,14,15
 1106 604 1106 604 1106 719 c 2,16,-1
 1106 1578 l 1,17,-1
 1475 1578 l 1,18,-1
 1475 723 l 2,19,20
 1475 350 1475 350 1315.5 156.5 c 128,-1,21
 1156 -37 1156 -37 808 -37 c 0,22,23
 455 -37 455 -37 294 163 c 0,24,25
 140 355 140 355 140 723 c 2,26,-1
 140 1578 l 1,27,-1
 509 1578 l 1,28,-1
 509 719 l 1,0,1
679 2346 m 1,29,-1
 933 2346 l 1,30,-1
 1191 1727 l 1,31,-1
 917 1727 l 1,32,-1
 805 2111 l 1,33,-1
 693 1727 l 1,34,-1
 421 1727 l 1,35,-1
 679 2346 l 1,29,-1
EndSplineSet
EndChar

StartChar: Udieresis
Encoding: 220 220 158
Width: 1615
GlyphClass: 2
Flags: W
HStem: -37 266<632.195 981.671> 1558 20G<140 509 1106 1475> 1739 388<347.958 599.232 1017.96 1269.23>
VStem: 140 369<381.672 1578> 280 389<1808.8 2057.2> 950 389<1808.8 2057.2> 1106 369<377.347 1578>
LayerCount: 2
Fore
SplineSet
509 719 m 1,0,1
 512 536 512 536 523 483.5 c 128,-1,2
 534 431 534 431 545 395.5 c 128,-1,3
 556 360 556 360 571.5 337 c 128,-1,4
 587 314 587 314 609 292 c 128,-1,5
 631 270 631 270 660 257 c 0,6,7
 721 229 721 229 790 229 c 128,-1,8
 859 229 859 229 900 237.5 c 128,-1,9
 941 246 941 246 971 265 c 128,-1,10
 1001 284 1001 284 1023.5 307 c 128,-1,11
 1046 330 1046 330 1060.5 366 c 128,-1,12
 1075 402 1075 402 1084.5 436.5 c 128,-1,13
 1094 471 1094 471 1098 521 c 0,14,15
 1106 604 1106 604 1106 719 c 2,16,-1
 1106 1578 l 1,17,-1
 1475 1578 l 1,18,-1
 1475 723 l 2,19,20
 1475 350 1475 350 1315.5 156.5 c 128,-1,21
 1156 -37 1156 -37 808 -37 c 0,22,23
 455 -37 455 -37 294 163 c 0,24,25
 140 355 140 355 140 723 c 2,26,-1
 140 1578 l 1,27,-1
 509 1578 l 1,28,-1
 509 719 l 1,0,1
950 1933 m 128,-1,30
 950 2016 950 2016 1005.5 2071.5 c 128,-1,31
 1061 2127 1061 2127 1143 2127 c 128,-1,32
 1225 2127 1225 2127 1282 2071.5 c 128,-1,33
 1339 2016 1339 2016 1339 1933 c 128,-1,34
 1339 1850 1339 1850 1282 1794.5 c 128,-1,35
 1225 1739 1225 1739 1143 1739 c 128,-1,36
 1061 1739 1061 1739 1005.5 1794.5 c 128,-1,29
 950 1850 950 1850 950 1933 c 128,-1,30
280 1933 m 128,-1,38
 280 2016 280 2016 335.5 2071.5 c 128,-1,39
 391 2127 391 2127 473 2127 c 128,-1,40
 555 2127 555 2127 612 2071.5 c 128,-1,41
 669 2016 669 2016 669 1933 c 128,-1,42
 669 1850 669 1850 612 1794.5 c 128,-1,43
 555 1739 555 1739 473 1739 c 128,-1,44
 391 1739 391 1739 335.5 1794.5 c 128,-1,37
 280 1850 280 1850 280 1933 c 128,-1,38
EndSplineSet
EndChar

StartChar: Yacute
Encoding: 221 221 159
Width: 1236
GlyphClass: 2
Flags: W
HStem: 0 21G<442 790> 1558 20G<-62 315.212 916.788 1300> 1727 21G<596.568 652.21>
VStem: 442 348<0 518>
DStem2: 306 1578 -62 1578 0.429404 -0.903112<0 740.91> 616 905 790 518 0.43356 0.901125<0 740.861>
LayerCount: 2
Fore
SplineSet
616 905 m 1,0,-1
 926 1578 l 1,1,-1
 1300 1578 l 1,2,-1
 790 518 l 1,3,-1
 790 0 l 1,4,-1
 442 0 l 1,5,-1
 442 518 l 1,6,-1
 -62 1578 l 1,7,-1
 306 1578 l 1,8,-1
 616 905 l 1,0,-1
639 1727 m 1,9,-1
 482 1801 l 1,10,-1
 685 2414 l 1,11,-1
 997 2269 l 1,12,-1
 639 1727 l 1,9,-1
EndSplineSet
EndChar

StartChar: Thorn
Encoding: 222 222 160
Width: 1289
GlyphClass: 2
Flags: W
HStem: 165 234<540.623 790.994> 1123 236<552.592 771.767> 1558 20G<100 432.053>
VStem: 100 351<-219 291 457.594 1085.19> 100 333<1201 1578> 858 353<479.125 1023.37>
LayerCount: 2
Fore
SplineSet
724 165 m 0,0,1
 543 165 543 165 451 291 c 1,2,-1
 451 -219 l 1,3,-1
 100 -219 l 1,4,-1
 100 1578 l 1,5,-1
 432 1578 l 1,6,-1
 433 1201 l 1,7,8
 478 1278 478 1278 560.5 1318.5 c 128,-1,9
 643 1359 643 1359 736 1359 c 0,10,11
 855 1359 855 1359 947 1313.5 c 128,-1,12
 1039 1268 1039 1268 1096 1186 c 128,-1,13
 1153 1104 1153 1104 1182 993 c 128,-1,14
 1211 882 1211 882 1211 746 c 0,15,16
 1211 467 1211 467 1077 316 c 128,-1,17
 943 165 943 165 724 165 c 0,0,1
858 770 m 0,18,19
 858 1123 858 1123 656 1123 c 0,20,21
 598 1123 598 1123 555 1110 c 128,-1,22
 512 1097 512 1097 493 1083.5 c 128,-1,23
 474 1070 474 1070 451 1046 c 1,24,-1
 451 495 l 1,25,26
 549 399 549 399 687 399 c 0,27,28
 725 399 725 399 754.5 414 c 128,-1,29
 784 429 784 429 802 458 c 128,-1,30
 820 487 820 487 831.5 519.5 c 128,-1,31
 843 552 843 552 848.5 598.5 c 128,-1,32
 854 645 854 645 856 682.5 c 128,-1,33
 858 720 858 720 858 770 c 0,18,19
EndSplineSet
EndChar

StartChar: germandbls
Encoding: 223 223 161
Width: 1564
GlyphClass: 2
Flags: W
HStem: -197 281<630 915.913> 0 21G<139 510> 689 218<660 921.675> 1334 245<598.714 963.058>
VStem: 139 371<0 1237.38> 1021 323<989.5 1276.39> 1137 366<226.709 528.325>
LayerCount: 2
Fore
SplineSet
660 689 m 1,0,1
 658 907 l 1,2,-1
 715 907 l 2,3,4
 862 907 862 907 941.5 959 c 128,-1,5
 1021 1011 1021 1011 1021 1135 c 0,6,7
 1021 1182 1021 1182 1012 1214 c 128,-1,8
 1003 1246 1003 1246 977.5 1275.5 c 128,-1,9
 952 1305 952 1305 899 1319.5 c 128,-1,10
 846 1334 846 1334 764 1334 c 0,11,12
 616 1334 616 1334 563 1254 c 128,-1,13
 510 1174 510 1174 510 980 c 2,14,-1
 510 0 l 1,15,-1
 139 0 l 1,16,-1
 139 980 l 2,17,18
 139 1272 139 1272 287 1425.5 c 128,-1,19
 435 1579 435 1579 764 1579 c 0,20,21
 867 1579 867 1579 952.5 1564 c 128,-1,22
 1038 1549 1038 1549 1097 1524 c 128,-1,23
 1156 1499 1156 1499 1201 1463.5 c 128,-1,24
 1246 1428 1246 1428 1272.5 1391 c 128,-1,25
 1299 1354 1299 1354 1315.5 1310.5 c 128,-1,26
 1332 1267 1332 1267 1338 1231 c 128,-1,27
 1344 1195 1344 1195 1344 1157 c 0,28,29
 1344 1094 1344 1094 1325.5 1040 c 128,-1,30
 1307 986 1307 986 1268.5 939.5 c 128,-1,31
 1230 893 1230 893 1164 861.5 c 128,-1,32
 1098 830 1098 830 1009 819 c 1,33,34
 1503 769 1503 769 1503 355 c 2,35,-1
 1503 352 l 2,36,37
 1503 241 1503 241 1455 148.5 c 128,-1,38
 1407 56 1407 56 1324.5 -7 c 128,-1,39
 1242 -70 1242 -70 1130 -113.5 c 128,-1,40
 1018 -157 1018 -157 892.5 -177 c 128,-1,41
 767 -197 767 -197 630 -197 c 1,42,-1
 629 84 l 1,43,44
 748 93 748 93 836 110 c 128,-1,45
 924 127 924 127 981.5 150.5 c 128,-1,46
 1039 174 1039 174 1074 207.5 c 128,-1,47
 1109 241 1109 241 1123 278.5 c 128,-1,48
 1137 316 1137 316 1137 364 c 0,49,50
 1137 689 1137 689 660 689 c 1,0,1
EndSplineSet
EndChar

StartChar: agrave
Encoding: 224 224 162
Width: 1249
GlyphClass: 2
Flags: W
HStem: -26 243<483.661 684.949> 0 21G<849.6 1127> 547 182<493.109 778.929> 954 242<342.734 727.476>
VStem: 94 350<260.365 502.156> 779 348<267.156 544.45 717 919.029>
LayerCount: 2
Fore
SplineSet
499 511 m 128,-1,1
 444 475 444 475 444 390 c 128,-1,2
 444 305 444 305 483 261 c 128,-1,3
 522 217 522 217 592 217 c 0,4,5
 702 217 702 217 779 310 c 1,6,-1
 779 539 l 1,7,8
 781 541 781 541 740.5 544 c 128,-1,9
 700 547 700 547 683 547 c 0,10,0
 554 547 554 547 499 511 c 128,-1,1
624 954 m 0,11,12
 423 954 423 954 251 873 c 1,13,-1
 168 1082 l 1,14,15
 352 1196 352 1196 636 1196 c 0,16,17
 962 1196 962 1196 1066 988 c 0,18,19
 1127 868 1127 868 1127 674 c 2,20,-1
 1127 0 l 1,21,-1
 856 0 l 1,22,-1
 808 150 l 1,23,24
 757 62 757 62 685 18 c 128,-1,25
 613 -26 613 -26 501 -26 c 0,26,27
 308 -26 308 -26 201 74.5 c 128,-1,28
 94 175 94 175 94 361.5 c 128,-1,29
 94 548 94 548 234 638.5 c 128,-1,30
 374 729 374 729 626 729 c 0,31,32
 714 729 714 729 779 717 c 1,33,34
 779 833 779 833 769 859 c 0,35,36
 748 916 748 916 714.5 935 c 128,-1,37
 681 954 681 954 624 954 c 0,11,12
610 1308 m 1,38,-1
 252 1850 l 1,39,-1
 564 1995 l 1,40,-1
 767 1382 l 1,41,-1
 610 1308 l 1,38,-1
EndSplineSet
EndChar

StartChar: aacute
Encoding: 225 225 163
Width: 1249
GlyphClass: 2
Flags: W
HStem: -26 243<483.661 684.949> 0 21G<849.6 1127> 547 182<493.109 778.929> 954 242<342.734 727.476>
VStem: 94 350<260.365 502.156> 779 348<267.156 544.45 717 919.029>
LayerCount: 2
Fore
SplineSet
499 511 m 128,-1,1
 444 475 444 475 444 390 c 128,-1,2
 444 305 444 305 483 261 c 128,-1,3
 522 217 522 217 592 217 c 0,4,5
 702 217 702 217 779 310 c 1,6,-1
 779 539 l 1,7,8
 781 541 781 541 740.5 544 c 128,-1,9
 700 547 700 547 683 547 c 0,10,0
 554 547 554 547 499 511 c 128,-1,1
624 954 m 0,11,12
 423 954 423 954 251 873 c 1,13,-1
 168 1082 l 1,14,15
 352 1196 352 1196 636 1196 c 0,16,17
 962 1196 962 1196 1066 988 c 0,18,19
 1127 868 1127 868 1127 674 c 2,20,-1
 1127 0 l 1,21,-1
 856 0 l 1,22,-1
 808 150 l 1,23,24
 757 62 757 62 685 18 c 128,-1,25
 613 -26 613 -26 501 -26 c 0,26,27
 308 -26 308 -26 201 74.5 c 128,-1,28
 94 175 94 175 94 361.5 c 128,-1,29
 94 548 94 548 234 638.5 c 128,-1,30
 374 729 374 729 626 729 c 0,31,32
 714 729 714 729 779 717 c 1,33,34
 779 833 779 833 769 859 c 0,35,36
 748 916 748 916 714.5 935 c 128,-1,37
 681 954 681 954 624 954 c 0,11,12
610 1308 m 1,38,-1
 453 1382 l 1,39,-1
 656 1995 l 1,40,-1
 968 1850 l 1,41,-1
 610 1308 l 1,38,-1
EndSplineSet
EndChar

StartChar: acircumflex
Encoding: 226 226 164
Width: 1249
GlyphClass: 2
Flags: W
HStem: -26 243<483.661 684.949> 0 21G<849.6 1127> 547 182<493.109 778.929> 954 242<342.734 727.476>
VStem: 94 350<260.365 502.156> 779 348<267.156 544.45 717 919.029>
LayerCount: 2
Fore
SplineSet
499 511 m 128,-1,1
 444 475 444 475 444 390 c 128,-1,2
 444 305 444 305 483 261 c 128,-1,3
 522 217 522 217 592 217 c 0,4,5
 702 217 702 217 779 310 c 1,6,-1
 779 539 l 1,7,8
 781 541 781 541 740.5 544 c 128,-1,9
 700 547 700 547 683 547 c 0,10,0
 554 547 554 547 499 511 c 128,-1,1
624 954 m 0,11,12
 423 954 423 954 251 873 c 1,13,-1
 168 1082 l 1,14,15
 352 1196 352 1196 636 1196 c 0,16,17
 962 1196 962 1196 1066 988 c 0,18,19
 1127 868 1127 868 1127 674 c 2,20,-1
 1127 0 l 1,21,-1
 856 0 l 1,22,-1
 808 150 l 1,23,24
 757 62 757 62 685 18 c 128,-1,25
 613 -26 613 -26 501 -26 c 0,26,27
 308 -26 308 -26 201 74.5 c 128,-1,28
 94 175 94 175 94 361.5 c 128,-1,29
 94 548 94 548 234 638.5 c 128,-1,30
 374 729 374 729 626 729 c 0,31,32
 714 729 714 729 779 717 c 1,33,34
 779 833 779 833 769 859 c 0,35,36
 748 916 748 916 714.5 935 c 128,-1,37
 681 954 681 954 624 954 c 0,11,12
513 1927 m 5,38,-1
 767 1927 l 5,39,-1
 1025 1308 l 5,40,-1
 751 1308 l 5,41,-1
 639 1692 l 5,42,-1
 527 1308 l 5,43,-1
 255 1308 l 5,44,-1
 513 1927 l 5,38,-1
EndSplineSet
EndChar

StartChar: atilde
Encoding: 227 227 165
Width: 1249
GlyphClass: 2
Flags: W
HStem: -26 243<483.661 684.949> 0 21G<849.6 1127> 547 182<493.109 778.929> 954 242<342.734 727.476> 1308 221<692.994 863.389> 1334 21G<208 416> 1459 213<429.151 586.523>
VStem: 94 350<260.365 502.156> 208 208<1334 1429.6> 779 348<267.156 544.45 717 919.029>
DStem2: 613 1622 600 1406 0.865426 -0.501036<-36.2686 219.733>
LayerCount: 2
Fore
SplineSet
499 511 m 128,-1,1
 444 475 444 475 444 390 c 128,-1,2
 444 305 444 305 483 261 c 128,-1,3
 522 217 522 217 592 217 c 0,4,5
 702 217 702 217 779 310 c 1,6,-1
 779 539 l 1,7,8
 781 541 781 541 740.5 544 c 128,-1,9
 700 547 700 547 683 547 c 0,10,0
 554 547 554 547 499 511 c 128,-1,1
624 954 m 0,11,12
 423 954 423 954 251 873 c 1,13,-1
 168 1082 l 1,14,15
 352 1196 352 1196 636 1196 c 0,16,17
 962 1196 962 1196 1066 988 c 0,18,19
 1127 868 1127 868 1127 674 c 2,20,-1
 1127 0 l 1,21,-1
 856 0 l 1,22,-1
 808 150 l 1,23,24
 757 62 757 62 685 18 c 128,-1,25
 613 -26 613 -26 501 -26 c 0,26,27
 308 -26 308 -26 201 74.5 c 128,-1,28
 94 175 94 175 94 361.5 c 128,-1,29
 94 548 94 548 234 638.5 c 128,-1,30
 374 729 374 729 626 729 c 0,31,32
 714 729 714 729 779 717 c 1,33,34
 779 833 779 833 769 859 c 0,35,36
 748 916 748 916 714.5 935 c 128,-1,37
 681 954 681 954 624 954 c 0,11,12
860 1308 m 0,38,39
 813 1308 813 1308 764.5 1323.5 c 128,-1,40
 716 1339 716 1339 676 1362 c 2,41,-1
 600 1406 l 1,42,43
 564 1428 564 1428 531.5 1443.5 c 128,-1,44
 499 1459 499 1459 476 1459 c 0,45,46
 445 1459 445 1459 430.5 1430.5 c 128,-1,47
 416 1402 416 1402 416 1334 c 1,48,-1
 208 1334 l 1,49,50
 208 1500 208 1500 265.5 1586 c 128,-1,51
 323 1672 323 1672 438 1672 c 0,52,53
 486 1672 486 1672 532 1657.5 c 128,-1,54
 578 1643 578 1643 613 1622 c 2,55,-1
 682 1579 l 2,56,57
 715 1558 715 1558 749.5 1543.5 c 128,-1,58
 784 1529 784 1529 814 1529 c 0,59,60
 849 1529 849 1529 860.5 1549.5 c 128,-1,61
 872 1570 872 1570 872 1633 c 1,62,-1
 1092 1633 l 1,63,64
 1092 1485 1092 1485 1029.5 1396.5 c 128,-1,65
 967 1308 967 1308 860 1308 c 0,38,39
EndSplineSet
EndChar

StartChar: adieresis
Encoding: 228 228 166
Width: 1249
GlyphClass: 2
Flags: W
HStem: -26 243<483.661 684.949> 0 21G<849.6 1127> 547 182<493.109 778.929> 954 242<342.734 727.476> 1320 388<182.958 434.232 852.958 1104.23>
VStem: 94 350<260.365 502.156> 115 389<1389.8 1638.2> 779 348<267.156 544.45 717 919.029> 785 389<1389.8 1638.2>
LayerCount: 2
Fore
SplineSet
499 511 m 128,-1,1
 444 475 444 475 444 390 c 128,-1,2
 444 305 444 305 483 261 c 128,-1,3
 522 217 522 217 592 217 c 0,4,5
 702 217 702 217 779 310 c 1,6,-1
 779 539 l 1,7,8
 781 541 781 541 740.5 544 c 128,-1,9
 700 547 700 547 683 547 c 0,10,0
 554 547 554 547 499 511 c 128,-1,1
624 954 m 0,11,12
 423 954 423 954 251 873 c 1,13,-1
 168 1082 l 1,14,15
 352 1196 352 1196 636 1196 c 0,16,17
 962 1196 962 1196 1066 988 c 0,18,19
 1127 868 1127 868 1127 674 c 2,20,-1
 1127 0 l 1,21,-1
 856 0 l 1,22,-1
 808 150 l 1,23,24
 757 62 757 62 685 18 c 128,-1,25
 613 -26 613 -26 501 -26 c 0,26,27
 308 -26 308 -26 201 74.5 c 128,-1,28
 94 175 94 175 94 361.5 c 128,-1,29
 94 548 94 548 234 638.5 c 128,-1,30
 374 729 374 729 626 729 c 0,31,32
 714 729 714 729 779 717 c 1,33,34
 779 833 779 833 769 859 c 0,35,36
 748 916 748 916 714.5 935 c 128,-1,37
 681 954 681 954 624 954 c 0,11,12
785 1514 m 132,-1,39
 785 1597 785 1597 840.5 1652.5 c 132,-1,40
 896 1708 896 1708 978 1708 c 132,-1,41
 1060 1708 1060 1708 1117 1652.5 c 132,-1,42
 1174 1597 1174 1597 1174 1514 c 132,-1,43
 1174 1431 1174 1431 1117 1375.5 c 132,-1,44
 1060 1320 1060 1320 978 1320 c 132,-1,45
 896 1320 896 1320 840.5 1375.5 c 132,-1,38
 785 1431 785 1431 785 1514 c 132,-1,39
115 1514 m 132,-1,47
 115 1597 115 1597 170.5 1652.5 c 132,-1,48
 226 1708 226 1708 308 1708 c 132,-1,49
 390 1708 390 1708 447 1652.5 c 132,-1,50
 504 1597 504 1597 504 1514 c 132,-1,51
 504 1431 504 1431 447 1375.5 c 132,-1,52
 390 1320 390 1320 308 1320 c 132,-1,53
 226 1320 226 1320 170.5 1375.5 c 132,-1,46
 115 1431 115 1431 115 1514 c 132,-1,47
EndSplineSet
EndChar

StartChar: aring
Encoding: 229 229 167
Width: 1249
GlyphClass: 2
Flags: W
HStem: -26 243<483.661 684.949> 0 21G<849.6 1127> 547 182<493.109 778.929> 954 242<342.734 727.476> 1308 163<530.324 769.48> 1824 163<530.324 769.48>
VStem: 94 350<260.365 502.156> 285 185<1531.55 1763.45> 779 348<267.156 544.45 717 919.029> 830 185<1530.76 1764.64>
LayerCount: 2
Fore
SplineSet
499 511 m 128,-1,1
 444 475 444 475 444 390 c 128,-1,2
 444 305 444 305 483 261 c 128,-1,3
 522 217 522 217 592 217 c 0,4,5
 702 217 702 217 779 310 c 1,6,-1
 779 539 l 1,7,8
 781 541 781 541 740.5 544 c 128,-1,9
 700 547 700 547 683 547 c 0,10,0
 554 547 554 547 499 511 c 128,-1,1
624 954 m 0,11,12
 423 954 423 954 251 873 c 1,13,-1
 168 1082 l 1,14,15
 352 1196 352 1196 636 1196 c 0,16,17
 962 1196 962 1196 1066 988 c 0,18,19
 1127 868 1127 868 1127 674 c 2,20,-1
 1127 0 l 1,21,-1
 856 0 l 1,22,-1
 808 150 l 1,23,24
 757 62 757 62 685 18 c 128,-1,25
 613 -26 613 -26 501 -26 c 0,26,27
 308 -26 308 -26 201 74.5 c 128,-1,28
 94 175 94 175 94 361.5 c 128,-1,29
 94 548 94 548 234 638.5 c 128,-1,30
 374 729 374 729 626 729 c 0,31,32
 714 729 714 729 779 717 c 1,33,34
 779 833 779 833 769 859 c 0,35,36
 748 916 748 916 714.5 935 c 128,-1,37
 681 954 681 954 624 954 c 0,11,12
470 1647.5 m 132,-1,39
 470 1572 470 1572 523.5 1521.5 c 132,-1,40
 577 1471 577 1471 650.5 1471 c 132,-1,41
 724 1471 724 1471 777 1521.5 c 132,-1,42
 830 1572 830 1572 830 1647.5 c 132,-1,43
 830 1723 830 1723 777 1773.5 c 132,-1,44
 724 1824 724 1824 650.5 1824 c 132,-1,45
 577 1824 577 1824 523.5 1773.5 c 132,-1,38
 470 1723 470 1723 470 1647.5 c 132,-1,39
285 1647.5 m 132,-1,47
 285 1743 285 1743 336.5 1822 c 132,-1,48
 388 1901 388 1901 471.5 1944 c 132,-1,49
 555 1987 555 1987 651 1987 c 260,50,51
 747 1987 747 1987 830 1944 c 132,-1,52
 913 1901 913 1901 964 1822.5 c 132,-1,53
 1015 1744 1015 1744 1015 1648 c 132,-1,54
 1015 1552 1015 1552 964 1473 c 132,-1,55
 913 1394 913 1394 830 1351 c 132,-1,56
 747 1308 747 1308 651 1308 c 260,57,58
 555 1308 555 1308 471.5 1351 c 132,-1,59
 388 1394 388 1394 336.5 1473 c 132,-1,46
 285 1552 285 1552 285 1647.5 c 132,-1,47
EndSplineSet
EndChar

StartChar: ae
Encoding: 230 230 168
Width: 1840
GlyphClass: 2
Flags: W
HStem: -18 235<445.59 694.153 1200.34 1540.51> 502 174<1085 1475> 547 182<447.963 757> 936 250<318.235 720.432 1151.99 1418.39>
VStem: 72 328<262.705 499.796> 757 328<337.979 502 717 861.718> 1475 284<676 871.337>
DStem2: 359 1155 223 864 0.961912 0.273358<-224.417 168.585>
LayerCount: 2
Fore
SplineSet
400 385 m 0,0,1
 400 306 400 306 442.5 261.5 c 128,-1,2
 485 217 485 217 556 217 c 0,3,4
 612 217 612 217 660.5 242 c 128,-1,5
 709 267 709 267 757 310 c 1,6,-1
 757 539 l 1,7,8
 695 547 695 547 647 547 c 0,9,10
 517 547 517 547 458.5 510.5 c 128,-1,11
 400 474 400 474 400 385 c 0,0,1
1635 314 m 1,12,-1
 1701 80 l 1,13,14
 1515 -15 1515 -15 1293 -16 c 0,15,16
 1142 -17 1142 -17 1049.5 34.5 c 128,-1,17
 957 86 957 86 898 200 c 1,18,19
 862 139 862 139 811.5 95 c 128,-1,20
 761 51 761 51 703.5 27 c 128,-1,21
 646 3 646 3 589.5 -7.5 c 128,-1,22
 533 -18 533 -18 471 -18 c 0,23,24
 279 -18 279 -18 175.5 82 c 128,-1,25
 72 182 72 182 72 373 c 0,26,27
 72 458 72 458 101 521.5 c 128,-1,28
 130 585 130 585 178 624 c 128,-1,29
 226 663 226 663 297 687 c 128,-1,30
 368 711 368 711 441 720 c 128,-1,31
 514 729 514 729 604 729 c 0,32,33
 693 729 693 729 757 717 c 1,34,35
 757 749 757 749 756 769.5 c 128,-1,36
 755 790 755 790 751.5 815.5 c 128,-1,37
 748 841 748 841 741.5 857 c 128,-1,38
 735 873 735 873 723.5 889.5 c 128,-1,39
 712 906 712 906 695.5 915 c 128,-1,40
 679 924 679 924 654.5 930 c 128,-1,41
 630 936 630 936 598 936 c 0,42,43
 550 936 550 936 490 927.5 c 128,-1,44
 430 919 430 919 383.5 908 c 128,-1,45
 337 897 337 897 288 883 c 2,46,-1
 223 864 l 1,47,-1
 197 855 l 1,48,-1
 149 1073 l 1,49,50
 229 1124 229 1124 359 1155 c 128,-1,51
 489 1186 489 1186 610 1186 c 0,52,53
 860 1186 860 1186 951 1038 c 1,54,55
 1002 1114 1002 1114 1092 1150 c 128,-1,56
 1182 1186 1182 1186 1290 1186 c 0,57,58
 1512 1186 1512 1186 1635.5 1043 c 128,-1,59
 1759 900 1759 900 1759 666 c 2,60,-1
 1759 502 l 1,61,-1
 1085 502 l 1,62,-1
 1085 499 l 1,63,64
 1089 377 1089 377 1157.5 299 c 128,-1,65
 1226 221 1226 221 1349 222 c 0,66,67
 1510 223 1510 223 1635 314 c 1,12,-1
1475 676 m 1,68,69
 1476 801 1476 801 1430 875.5 c 128,-1,70
 1384 950 1384 950 1284 950 c 0,71,72
 1236 950 1236 950 1198.5 929.5 c 128,-1,73
 1161 909 1161 909 1137.5 874 c 128,-1,74
 1114 839 1114 839 1101 795.5 c 128,-1,75
 1088 752 1088 752 1085 702 c 1,76,-1
 1085 676 l 1,77,-1
 1475 676 l 1,68,69
EndSplineSet
EndChar

StartChar: ccedilla
Encoding: 231 231 169
Width: 1127
GlyphClass: 2
Flags: W
HStem: -679 148<528.729 807.5> -253 88<681 759.999> -18.3509 229.351<697.565 923.611> 960 236<555.328 923.033>
VStem: 100 352<355.998 844.054> 821 194<-515.953 -309.48>
LayerCount: 2
Fore
SplineSet
511 -625 m 1,0,-1
 511 -488 l 1,1,-1
 519 -492 l 2,2,3
 528 -496 528 -496 545 -502.5 c 128,-1,4
 562 -509 562 -509 582 -515.5 c 128,-1,5
 602 -522 602 -522 629.5 -526.5 c 128,-1,6
 657 -531 657 -531 683 -531 c 0,7,8
 718 -531 718 -531 740.5 -527.5 c 128,-1,9
 763 -524 763 -524 783 -512.5 c 128,-1,10
 803 -501 803 -501 812 -477 c 128,-1,11
 821 -453 821 -453 821 -415 c 0,12,13
 821 -253 821 -253 561 -253 c 1,14,-1
 578.912 -18.3509 l 1,15,16
 503.414 -8.69164 503.414 -8.69164 443 15 c 0,17,18
 341 55 341 55 264.5 129 c 128,-1,19
 188 203 188 203 144 318 c 128,-1,20
 100 433 100 433 100 571.5 c 128,-1,21
 100 710 100 710 131 808.5 c 128,-1,22
 162 907 162 907 216 977 c 128,-1,23
 270 1047 270 1047 342 1097 c 0,24,25
 485 1196 485 1196 664 1196 c 0,26,27
 797 1196 797 1196 884.5 1170.5 c 128,-1,28
 972 1145 972 1145 1065 1096 c 1,29,-1
 1000 871 l 1,30,31
 973 897 973 897 889 928.5 c 128,-1,32
 805 960 805 960 724 960 c 0,33,34
 575 960 575 960 513.5 873.5 c 128,-1,35
 452 787 452 787 452 586 c 0,36,37
 452 211 452 211 751 211 c 0,38,39
 862 211 862 211 986 291 c 0,40,41
 999 299 999 299 999 300 c 2,42,-1
 1064 75 l 1,43,44
 1004 44 1004 44 958 25 c 0,45,46
 837.067 -23.7662 837.067 -23.7662 697.095 -24.9696 c 1,47,-1
 681 -165 l 1,48,49
 708 -165 708 -165 740 -170 c 128,-1,50
 772 -175 772 -175 810.5 -185 c 128,-1,51
 849 -195 849 -195 884 -214 c 128,-1,52
 919 -233 919 -233 949 -258.5 c 128,-1,53
 979 -284 979 -284 996.5 -323 c 128,-1,54
 1014 -362 1014 -362 1015 -409 c 1,55,56
 1015 -541 1015 -541 941 -610 c 128,-1,57
 867 -679 867 -679 725 -679 c 0,58,59
 612 -679 612 -679 518 -629 c 1,60,-1
 511 -625 l 1,0,-1
EndSplineSet
EndChar

StartChar: egrave
Encoding: 232 232 170
Width: 1233
GlyphClass: 2
Flags: W
HStem: -26 238<577.027 944.383> 502 174<457 867> 960 236<545.329 794.254>
VStem: 97 360<333.25 502 676 838.37> 867 284<676 876.953>
LayerCount: 2
Fore
SplineSet
867 676 m 1,0,1
 870 960 870 960 666 960 c 0,2,3
 598 960 598 960 549 920 c 0,4,5
 456 843 456 843 456 676 c 1,6,-1
 867 676 l 1,0,1
1027 304 m 1,7,-1
 1093 70 l 1,8,9
 907 -25 907 -25 704 -26 c 1,10,11
 314 -26 314 -26 164 258 c 1,12,13
 93 395 93 395 97 566 c 128,-1,14
 101 737 101 737 145 849 c 128,-1,15
 189 961 189 961 266 1037 c 0,16,17
 426 1196 426 1196 672 1196 c 0,18,19
 821 1196 821 1196 930 1130 c 0,20,21
 1153 994 1153 994 1151 666 c 1,22,-1
 1151 502 l 1,23,-1
 457 502 l 1,24,25
 461 370 461 370 534 290 c 0,26,27
 607 211 607 211 731 212 c 0,28,29
 902 213 902 213 1027 304 c 1,7,-1
653 1308 m 1,30,-1
 295 1850 l 1,31,-1
 607 1995 l 1,32,-1
 810 1382 l 1,33,-1
 653 1308 l 1,30,-1
EndSplineSet
EndChar

StartChar: eacute
Encoding: 233 233 171
Width: 1233
GlyphClass: 2
Flags: W
HStem: -26 238<577.027 944.383> 502 174<457 867> 960 236<545.329 794.254>
VStem: 97 360<333.25 502 676 838.37> 867 284<676 876.953>
LayerCount: 2
Fore
SplineSet
867 676 m 1,0,1
 870 960 870 960 666 960 c 0,2,3
 598 960 598 960 549 920 c 0,4,5
 456 843 456 843 456 676 c 1,6,-1
 867 676 l 1,0,1
1027 304 m 1,7,-1
 1093 70 l 1,8,9
 907 -25 907 -25 704 -26 c 1,10,11
 314 -26 314 -26 164 258 c 1,12,13
 93 395 93 395 97 566 c 128,-1,14
 101 737 101 737 145 849 c 128,-1,15
 189 961 189 961 266 1037 c 0,16,17
 426 1196 426 1196 672 1196 c 0,18,19
 821 1196 821 1196 930 1130 c 0,20,21
 1153 994 1153 994 1151 666 c 1,22,-1
 1151 502 l 1,23,-1
 457 502 l 1,24,25
 461 370 461 370 534 290 c 0,26,27
 607 211 607 211 731 212 c 0,28,29
 902 213 902 213 1027 304 c 1,7,-1
653 1308 m 1,30,-1
 496 1382 l 1,31,-1
 699 1995 l 1,32,-1
 1011 1850 l 1,33,-1
 653 1308 l 1,30,-1
EndSplineSet
EndChar

StartChar: ecircumflex
Encoding: 234 234 172
Width: 1233
GlyphClass: 2
Flags: W
HStem: -26 238<577.027 944.383> 502 174<457 867> 960 236<545.329 794.254>
VStem: 97 360<333.25 502 676 838.37> 867 284<676 876.953>
LayerCount: 2
Fore
SplineSet
867 676 m 1,0,1
 870 960 870 960 666 960 c 0,2,3
 598 960 598 960 549 920 c 0,4,5
 456 843 456 843 456 676 c 1,6,-1
 867 676 l 1,0,1
1027 304 m 1,7,-1
 1093 70 l 1,8,9
 907 -25 907 -25 704 -26 c 1,10,11
 314 -26 314 -26 164 258 c 1,12,13
 93 395 93 395 97 566 c 128,-1,14
 101 737 101 737 145 849 c 128,-1,15
 189 961 189 961 266 1037 c 0,16,17
 426 1196 426 1196 672 1196 c 0,18,19
 821 1196 821 1196 930 1130 c 0,20,21
 1153 994 1153 994 1151 666 c 1,22,-1
 1151 502 l 1,23,-1
 457 502 l 1,24,25
 461 370 461 370 534 290 c 0,26,27
 607 211 607 211 731 212 c 0,28,29
 902 213 902 213 1027 304 c 1,7,-1
546 1927 m 5,30,-1
 800 1927 l 5,31,-1
 1058 1308 l 5,32,-1
 784 1308 l 5,33,-1
 672 1692 l 5,34,-1
 560 1308 l 5,35,-1
 288 1308 l 5,36,-1
 546 1927 l 5,30,-1
EndSplineSet
EndChar

StartChar: edieresis
Encoding: 235 235 173
Width: 1233
GlyphClass: 2
Flags: W
HStem: -26 238<577.027 944.383> 502 174<457 867> 960 236<545.329 794.254> 1320 388<195.958 447.232 865.958 1117.23>
VStem: 97 360<333.25 502 676 838.37> 128 389<1389.8 1638.2> 798 389<1389.8 1638.2> 867 284<676 876.953>
LayerCount: 2
Fore
SplineSet
867 676 m 1,0,1
 870 960 870 960 666 960 c 0,2,3
 598 960 598 960 549 920 c 0,4,5
 456 843 456 843 456 676 c 1,6,-1
 867 676 l 1,0,1
1027 304 m 1,7,-1
 1093 70 l 1,8,9
 907 -25 907 -25 704 -26 c 1,10,11
 314 -26 314 -26 164 258 c 1,12,13
 93 395 93 395 97 566 c 128,-1,14
 101 737 101 737 145 849 c 128,-1,15
 189 961 189 961 266 1037 c 0,16,17
 426 1196 426 1196 672 1196 c 0,18,19
 821 1196 821 1196 930 1130 c 0,20,21
 1153 994 1153 994 1151 666 c 1,22,-1
 1151 502 l 1,23,-1
 457 502 l 1,24,25
 461 370 461 370 534 290 c 0,26,27
 607 211 607 211 731 212 c 0,28,29
 902 213 902 213 1027 304 c 1,7,-1
798 1514 m 128,-1,31
 798 1597 798 1597 853.5 1652.5 c 128,-1,32
 909 1708 909 1708 991 1708 c 128,-1,33
 1073 1708 1073 1708 1130 1652.5 c 128,-1,34
 1187 1597 1187 1597 1187 1514 c 128,-1,35
 1187 1431 1187 1431 1130 1375.5 c 128,-1,36
 1073 1320 1073 1320 991 1320 c 128,-1,37
 909 1320 909 1320 853.5 1375.5 c 128,-1,30
 798 1431 798 1431 798 1514 c 128,-1,31
128 1514 m 128,-1,39
 128 1597 128 1597 183.5 1652.5 c 128,-1,40
 239 1708 239 1708 321 1708 c 128,-1,41
 403 1708 403 1708 460 1652.5 c 128,-1,42
 517 1597 517 1597 517 1514 c 128,-1,43
 517 1431 517 1431 460 1375.5 c 128,-1,44
 403 1320 403 1320 321 1320 c 128,-1,45
 239 1320 239 1320 183.5 1375.5 c 128,-1,38
 128 1431 128 1431 128 1514 c 128,-1,39
EndSplineSet
EndChar

StartChar: igrave
Encoding: 236 236 174
Width: 680
GlyphClass: 2
Flags: W
HStem: 0 21G<180 530> 1140 20G<180 530>
VStem: 180 350<0 1160>
LayerCount: 2
Fore
SplineSet
530 0 m 1,0,-1
 180 0 l 1,1,-1
 180 1160 l 1,2,-1
 530 1160 l 1,3,-1
 530 0 l 1,0,-1
342 1308 m 1,4,-1
 -16 1850 l 1,5,-1
 296 1995 l 1,6,-1
 499 1382 l 1,7,-1
 342 1308 l 1,4,-1
EndSplineSet
EndChar

StartChar: iacute
Encoding: 237 237 175
Width: 677
GlyphClass: 2
Flags: W
HStem: 0 21G<170 520> 1140 20G<170 520>
VStem: 170 350<0 1160>
LayerCount: 2
Fore
SplineSet
347 1308 m 1,0,-1
 190 1382 l 1,1,-1
 393 1995 l 1,2,-1
 705 1850 l 1,3,-1
 347 1308 l 1,0,-1
520 0 m 1,4,-1
 170 0 l 1,5,-1
 170 1160 l 1,6,-1
 520 1160 l 1,7,-1
 520 0 l 1,4,-1
EndSplineSet
EndChar

StartChar: icircumflex
Encoding: 238 238 176
Width: 675
GlyphClass: 2
Flags: W
HStem: 0 21G<150 500> 1140 20G<150 500>
VStem: 150 350<0 1160>
LayerCount: 2
Fore
SplineSet
204 1927 m 5,0,-1
 458 1927 l 5,1,-1
 716 1308 l 5,2,-1
 442 1308 l 5,3,-1
 330 1692 l 5,4,-1
 218 1308 l 5,5,-1
 -54 1308 l 5,6,-1
 204 1927 l 5,0,-1
500 0 m 1,7,-1
 150 0 l 1,8,-1
 150 1160 l 1,9,-1
 500 1160 l 1,10,-1
 500 0 l 1,7,-1
EndSplineSet
EndChar

StartChar: idieresis
Encoding: 239 239 177
Width: 718
GlyphClass: 2
Flags: W
HStem: 0 21G<160 510> 1140 20G<160 510> 1320 388<-125.456 121.456 544.544 791.456>
VStem: -191 378<1386.15 1641.85> 160 350<0 1160> 479 378<1386.15 1641.85>
LayerCount: 2
Fore
SplineSet
510 0 m 1,0,-1
 160 0 l 1,1,-1
 160 1160 l 1,2,-1
 510 1160 l 1,3,-1
 510 0 l 1,0,-1
-191 1514 m 128,-1,5
 -191 1597 -191 1597 -137.5 1652.5 c 128,-1,6
 -84 1708 -84 1708 -2 1708 c 128,-1,7
 80 1708 80 1708 133.5 1652.5 c 128,-1,8
 187 1597 187 1597 187 1514 c 128,-1,9
 187 1431 187 1431 133.5 1375.5 c 128,-1,10
 80 1320 80 1320 -2 1320 c 128,-1,11
 -84 1320 -84 1320 -137.5 1375.5 c 128,-1,4
 -191 1431 -191 1431 -191 1514 c 128,-1,5
479 1514 m 128,-1,13
 479 1597 479 1597 532.5 1652.5 c 128,-1,14
 586 1708 586 1708 668 1708 c 128,-1,15
 750 1708 750 1708 803.5 1652.5 c 128,-1,16
 857 1597 857 1597 857 1514 c 128,-1,17
 857 1431 857 1431 803.5 1375.5 c 128,-1,18
 750 1320 750 1320 668 1320 c 128,-1,19
 586 1320 586 1320 532.5 1375.5 c 128,-1,12
 479 1431 479 1431 479 1514 c 128,-1,13
EndSplineSet
EndChar

StartChar: eth
Encoding: 240 240 178
Width: 1262
GlyphClass: 2
Flags: W
HStem: -16 236<516.404 744.244> 952 234<494.985 723.61> 1732 20G<514.051 568>
VStem: 78 350<327.836 876.225> 834 350<328.024 892.84>
DStem2: 383 1413 425 1263 0.951946 0.306267<0 159.935 520.896 748.286>
LayerCount: 2
Fore
SplineSet
428 586 m 0,0,1
 428 514 428 514 437 453.5 c 128,-1,2
 446 393 446 393 467.5 338 c 128,-1,3
 489 283 489 283 530.5 251.5 c 128,-1,4
 572 220 572 220 630 220 c 0,5,6
 684 220 684 220 725 248.5 c 128,-1,7
 766 277 766 277 789 326 c 128,-1,8
 812 375 812 375 823 432.5 c 128,-1,9
 834 490 834 490 834 555 c 2,10,-1
 834 856 l 1,11,12
 736 952 736 952 599 952 c 0,13,14
 553 952 553 952 520.5 929.5 c 128,-1,15
 488 907 488 907 470.5 873.5 c 128,-1,16
 453 840 453 840 443 787.5 c 128,-1,17
 433 735 433 735 430.5 691 c 128,-1,18
 428 647 428 647 428 586 c 0,0,1
1184 612 m 0,19,20
 1184 449 1184 449 1142.5 328 c 128,-1,21
 1101 207 1101 207 1022 132 c 128,-1,22
 943 57 943 57 834 20.5 c 128,-1,23
 725 -16 725 -16 585 -16 c 0,24,25
 453 -16 453 -16 353.5 31.5 c 128,-1,26
 254 79 254 79 195 163.5 c 128,-1,27
 136 248 136 248 107 354 c 128,-1,28
 78 460 78 460 78 586 c 0,29,30
 78 763 78 763 130 897.5 c 128,-1,31
 182 1032 182 1032 284 1109 c 128,-1,32
 386 1186 386 1186 525 1186 c 0,33,34
 732 1186 732 1186 834 1046 c 1,35,36
 822 1120 822 1120 748 1226 c 0,37,38
 707.68 1283.76 707.68 1283.76 659.344 1338.39 c 1,39,-1
 425 1263 l 1,40,-1
 383 1413 l 1,41,-1
 535.25 1461.98 l 1,42,43
 454.833 1532.81 454.833 1532.81 381 1575 c 1,44,-1
 531 1752 l 1,45,46
 605 1706 605 1706 661 1667 c 128,-1,47
 717 1628 717 1628 788.5 1566 c 2,48,-1
 807.206 1549.48 l 1,49,-1
 1101 1644 l 1,50,-1
 1143 1494 l 1,51,-1
 926.537 1424.36 l 1,52,53
 972.205 1367.19 972.205 1367.19 1019 1290.5 c 0,54,55
 1073 1202 1073 1202 1107 1105 c 128,-1,56
 1141 1008 1141 1008 1162.5 881 c 128,-1,57
 1184 754 1184 754 1184 612 c 0,19,20
EndSplineSet
EndChar

StartChar: ntilde
Encoding: 241 241 179
Width: 1363
GlyphClass: 2
Flags: W
HStem: 0 21G<183 534 882 1233> 961.5 234.5<642.179 841.445> 1140 20G<183 457.993> 1308 221<751.659 922.389> 1334 21G<267 475> 1459 213<488.151 645.531>
VStem: 183 351<0 908.582> 267 208<1334 1429.6> 882 351<0 909.999>
DStem2: 672 1622 659 1406 0.865426 -0.501036<-36.2686 219.733>
LayerCount: 2
Fore
SplineSet
516 1011 m 1,0,1
 606 1196 606 1196 821.5 1196 c 128,-1,2
 1037 1196 1037 1196 1135 1078.5 c 128,-1,3
 1233 961 1233 961 1233 721 c 2,4,-1
 1233 0 l 1,5,-1
 882 0 l 1,6,-1
 882 747 l 2,7,8
 882 864 882 864 846.5 911.5 c 128,-1,9
 811 959 811 959 735.5 961.5 c 128,-1,10
 660 964 660 964 609.5 932 c 128,-1,11
 559 900 559 900 534 856 c 1,12,-1
 534 0 l 1,13,-1
 183 0 l 1,14,-1
 183 1160 l 1,15,-1
 449 1160 l 1,16,-1
 516 1011 l 1,0,1
919 1308 m 4,17,18
 872 1308 872 1308 823.5 1323.5 c 4,19,20
 774.392 1339.19 774.392 1339.19 735 1362 c 6,21,-1
 659 1406 l 5,22,23
 623 1428 623 1428 590.5 1443.5 c 132,-1,24
 558 1459 558 1459 535 1459 c 4,25,26
 504 1459 504 1459 489.5 1430.5 c 132,-1,27
 475 1402 475 1402 475 1334 c 5,28,-1
 267 1334 l 5,29,30
 267 1500 267 1500 324.5 1586 c 132,-1,31
 382 1672 382 1672 497 1672 c 4,32,33
 545 1672 545 1672 591 1657.5 c 4,34,35
 639.636 1642.17 639.636 1642.17 672 1622 c 6,36,-1
 741 1579 l 6,37,38
 776.142 1557.1 776.142 1557.1 808.5 1543.5 c 4,39,40
 843 1529 843 1529 873 1529 c 4,41,42
 908 1529 908 1529 919.5 1549.5 c 132,-1,43
 931 1570 931 1570 931 1633 c 5,44,-1
 1151 1633 l 5,45,46
 1151 1485 1151 1485 1088.5 1396.5 c 132,-1,47
 1026 1308 1026 1308 919 1308 c 4,17,18
EndSplineSet
EndChar

StartChar: ograve
Encoding: 242 242 180
Width: 1281
GlyphClass: 2
Flags: W
HStem: -26 234<514.829 765.143> 960 236<514.536 768.257>
VStem: 70 350<317.683 849.348> 860 348<317.683 849.348>
LayerCount: 2
Fore
SplineSet
640 208 m 128,-1,1
 752 208 752 208 806 299 c 128,-1,2
 860 390 860 390 860 584 c 128,-1,3
 860 778 860 778 806 869 c 128,-1,4
 752 960 752 960 640 960 c 128,-1,5
 528 960 528 960 474 869 c 128,-1,6
 420 778 420 778 420 584 c 128,-1,7
 420 390 420 390 474 299 c 128,-1,0
 528 208 528 208 640 208 c 128,-1,1
639 1196 m 128,-1,9
 912 1196 912 1196 1060 1034.5 c 128,-1,10
 1208 873 1208 873 1208 582 c 0,11,12
 1208 293 1208 293 1061 133.5 c 128,-1,13
 914 -26 914 -26 640 -26 c 128,-1,14
 366 -26 366 -26 218 133.5 c 128,-1,15
 70 293 70 293 70 582 c 0,16,17
 70 873 70 873 218 1034.5 c 128,-1,8
 366 1196 366 1196 639 1196 c 128,-1,9
670 1308 m 1,18,-1
 312 1850 l 1,19,-1
 624 1995 l 1,20,-1
 827 1382 l 1,21,-1
 670 1308 l 1,18,-1
EndSplineSet
EndChar

StartChar: oacute
Encoding: 243 243 181
Width: 1281
GlyphClass: 2
Flags: W
HStem: -26 234<514.829 765.143> 960 236<514.536 768.257>
VStem: 70 350<317.683 849.348> 860 348<317.683 849.348>
LayerCount: 2
Fore
SplineSet
640 208 m 128,-1,1
 752 208 752 208 806 299 c 128,-1,2
 860 390 860 390 860 584 c 128,-1,3
 860 778 860 778 806 869 c 128,-1,4
 752 960 752 960 640 960 c 128,-1,5
 528 960 528 960 474 869 c 128,-1,6
 420 778 420 778 420 584 c 128,-1,7
 420 390 420 390 474 299 c 128,-1,0
 528 208 528 208 640 208 c 128,-1,1
639 1196 m 128,-1,9
 912 1196 912 1196 1060 1034.5 c 128,-1,10
 1208 873 1208 873 1208 582 c 0,11,12
 1208 293 1208 293 1061 133.5 c 128,-1,13
 914 -26 914 -26 640 -26 c 128,-1,14
 366 -26 366 -26 218 133.5 c 128,-1,15
 70 293 70 293 70 582 c 0,16,17
 70 873 70 873 218 1034.5 c 128,-1,8
 366 1196 366 1196 639 1196 c 128,-1,9
670 1308 m 1,18,-1
 513 1382 l 1,19,-1
 716 1995 l 1,20,-1
 1028 1850 l 1,21,-1
 670 1308 l 1,18,-1
EndSplineSet
EndChar

StartChar: ocircumflex
Encoding: 244 244 182
Width: 1281
GlyphClass: 2
Flags: W
HStem: -26 234<514.829 765.143> 960 236<514.536 768.257>
VStem: 70 350<317.683 849.348> 860 348<317.683 849.348>
LayerCount: 2
Fore
SplineSet
640 208 m 128,-1,1
 752 208 752 208 806 299 c 128,-1,2
 860 390 860 390 860 584 c 128,-1,3
 860 778 860 778 806 869 c 128,-1,4
 752 960 752 960 640 960 c 128,-1,5
 528 960 528 960 474 869 c 128,-1,6
 420 778 420 778 420 584 c 128,-1,7
 420 390 420 390 474 299 c 128,-1,0
 528 208 528 208 640 208 c 128,-1,1
639 1196 m 128,-1,9
 912 1196 912 1196 1060 1034.5 c 128,-1,10
 1208 873 1208 873 1208 582 c 0,11,12
 1208 293 1208 293 1061 133.5 c 128,-1,13
 914 -26 914 -26 640 -26 c 128,-1,14
 366 -26 366 -26 218 133.5 c 128,-1,15
 70 293 70 293 70 582 c 0,16,17
 70 873 70 873 218 1034.5 c 128,-1,8
 366 1196 366 1196 639 1196 c 128,-1,9
523 1927 m 5,18,-1
 777 1927 l 5,19,-1
 1035 1308 l 5,20,-1
 761 1308 l 5,21,-1
 649 1692 l 5,22,-1
 537 1308 l 5,23,-1
 265 1308 l 5,24,-1
 523 1927 l 5,18,-1
EndSplineSet
EndChar

StartChar: otilde
Encoding: 245 245 183
Width: 1281
GlyphClass: 2
Flags: W
HStem: -26 234<514.829 765.143> 960 236<514.536 768.257> 1308 221<692.659 863.389> 1334 21G<208 416> 1459 213<429.151 586.531>
VStem: 70 350<317.683 849.348> 208 208<1334 1429.6> 860 348<317.683 849.348>
DStem2: 613 1622 600 1406 0.865426 -0.501036<-36.2686 219.733>
LayerCount: 2
Fore
SplineSet
640 208 m 128,-1,1
 752 208 752 208 806 299 c 128,-1,2
 860 390 860 390 860 584 c 128,-1,3
 860 778 860 778 806 869 c 128,-1,4
 752 960 752 960 640 960 c 128,-1,5
 528 960 528 960 474 869 c 128,-1,6
 420 778 420 778 420 584 c 128,-1,7
 420 390 420 390 474 299 c 128,-1,0
 528 208 528 208 640 208 c 128,-1,1
639 1196 m 128,-1,9
 912 1196 912 1196 1060 1034.5 c 128,-1,10
 1208 873 1208 873 1208 582 c 0,11,12
 1208 293 1208 293 1061 133.5 c 128,-1,13
 914 -26 914 -26 640 -26 c 128,-1,14
 366 -26 366 -26 218 133.5 c 128,-1,15
 70 293 70 293 70 582 c 0,16,17
 70 873 70 873 218 1034.5 c 128,-1,8
 366 1196 366 1196 639 1196 c 128,-1,9
860 1308 m 4,18,19
 813 1308 813 1308 764.5 1323.5 c 4,20,21
 715.392 1339.19 715.392 1339.19 676 1362 c 6,22,-1
 600 1406 l 5,23,24
 564 1428 564 1428 531.5 1443.5 c 132,-1,25
 499 1459 499 1459 476 1459 c 4,26,27
 445 1459 445 1459 430.5 1430.5 c 132,-1,28
 416 1402 416 1402 416 1334 c 5,29,-1
 208 1334 l 5,30,31
 208 1500 208 1500 265.5 1586 c 132,-1,32
 323 1672 323 1672 438 1672 c 4,33,34
 486 1672 486 1672 532 1657.5 c 4,35,36
 580.636 1642.17 580.636 1642.17 613 1622 c 6,37,-1
 682 1579 l 6,38,39
 717.142 1557.1 717.142 1557.1 749.5 1543.5 c 4,40,41
 784 1529 784 1529 814 1529 c 4,42,43
 849 1529 849 1529 860.5 1549.5 c 132,-1,44
 872 1570 872 1570 872 1633 c 5,45,-1
 1092 1633 l 5,46,47
 1092 1485 1092 1485 1029.5 1396.5 c 132,-1,48
 967 1308 967 1308 860 1308 c 4,18,19
EndSplineSet
EndChar

StartChar: odieresis
Encoding: 246 246 184
Width: 1281
GlyphClass: 2
Flags: W
HStem: -26 234<514.829 765.143> 960 236<514.536 768.257> 1320 388<184.958 436.232 854.958 1106.23>
VStem: 70 350<317.683 849.348> 117 389<1389.8 1638.2> 787 389<1389.8 1638.2> 860 348<317.683 849.348>
LayerCount: 2
Fore
SplineSet
640 208 m 128,-1,1
 752 208 752 208 806 299 c 128,-1,2
 860 390 860 390 860 584 c 128,-1,3
 860 778 860 778 806 869 c 128,-1,4
 752 960 752 960 640 960 c 128,-1,5
 528 960 528 960 474 869 c 128,-1,6
 420 778 420 778 420 584 c 128,-1,7
 420 390 420 390 474 299 c 128,-1,0
 528 208 528 208 640 208 c 128,-1,1
639 1196 m 128,-1,9
 912 1196 912 1196 1060 1034.5 c 128,-1,10
 1208 873 1208 873 1208 582 c 0,11,12
 1208 293 1208 293 1061 133.5 c 128,-1,13
 914 -26 914 -26 640 -26 c 128,-1,14
 366 -26 366 -26 218 133.5 c 128,-1,15
 70 293 70 293 70 582 c 0,16,17
 70 873 70 873 218 1034.5 c 128,-1,8
 366 1196 366 1196 639 1196 c 128,-1,9
787 1514 m 132,-1,19
 787 1597 787 1597 842.5 1652.5 c 132,-1,20
 898 1708 898 1708 980 1708 c 132,-1,21
 1062 1708 1062 1708 1119 1652.5 c 132,-1,22
 1176 1597 1176 1597 1176 1514 c 132,-1,23
 1176 1431 1176 1431 1119 1375.5 c 132,-1,24
 1062 1320 1062 1320 980 1320 c 132,-1,25
 898 1320 898 1320 842.5 1375.5 c 132,-1,18
 787 1431 787 1431 787 1514 c 132,-1,19
117 1514 m 132,-1,27
 117 1597 117 1597 172.5 1652.5 c 132,-1,28
 228 1708 228 1708 310 1708 c 132,-1,29
 392 1708 392 1708 449 1652.5 c 132,-1,30
 506 1597 506 1597 506 1514 c 132,-1,31
 506 1431 506 1431 449 1375.5 c 132,-1,32
 392 1320 392 1320 310 1320 c 132,-1,33
 228 1320 228 1320 172.5 1375.5 c 132,-1,26
 117 1431 117 1431 117 1514 c 132,-1,27
EndSplineSet
EndChar

StartChar: divide
Encoding: 247 247 185
Width: 1190
GlyphClass: 2
Flags: W
HStem: 112 388<477.544 724.456> 593 262<94 1098> 950 388<474.544 721.456>
VStem: 412 378<178.148 433.852 1019.8 1268.2>
LayerCount: 2
Fore
SplineSet
1098 593 m 1,0,-1
 94 593 l 1,1,-1
 94 855 l 1,2,-1
 1098 855 l 1,3,-1
 1098 593 l 1,0,-1
412 306 m 128,-1,5
 412 389 412 389 465.5 444.5 c 128,-1,6
 519 500 519 500 601 500 c 128,-1,7
 683 500 683 500 736.5 444.5 c 128,-1,8
 790 389 790 389 790 306 c 128,-1,9
 790 223 790 223 736.5 167.5 c 128,-1,10
 683 112 683 112 601 112 c 128,-1,11
 519 112 519 112 465.5 167.5 c 128,-1,4
 412 223 412 223 412 306 c 128,-1,5
409 1144 m 128,-1,13
 409 1227 409 1227 462.5 1282.5 c 128,-1,14
 516 1338 516 1338 598 1338 c 128,-1,15
 680 1338 680 1338 733.5 1282.5 c 128,-1,16
 787 1227 787 1227 787 1144 c 128,-1,17
 787 1061 787 1061 733.5 1005.5 c 128,-1,18
 680 950 680 950 598 950 c 128,-1,19
 516 950 516 950 462.5 1005.5 c 128,-1,12
 409 1061 409 1061 409 1144 c 128,-1,13
EndSplineSet
EndChar

StartChar: oslash
Encoding: 248 248 186
Width: 1294
GlyphClass: 2
Flags: W
HStem: -16 204<574 791.007> 980 206<503.286 716>
VStem: 78 308<332.509 697 698 704 705 717 718 722 723 733 734 737> 925 291<346.15 826.331>
DStem2: 343 -141 449 -177 0.315282 0.948998<0 180.364 423.43 1144 1389.14 1584.51>
LayerCount: 2
Fore
SplineSet
647 188 m 0,0,1
 796 188 796 188 870 323 c 0,2,3
 925 423 925 423 925 584 c 0,4,5
 925 640 925 640 918.5 688 c 128,-1,6
 912 736 912 736 902 768.5 c 128,-1,7
 892 801 892 801 880 827 c 128,-1,8
 868 853 868 853 855.5 867.5 c 128,-1,9
 843 882 843 882 833 892 c 128,-1,10
 823 902 823 902 817 906 c 2,11,-1
 811 909 l 1,12,-1
 574 195 l 1,13,14
 601 188 601 188 647 188 c 0,0,1
507 -4 m 1,15,-1
 449 -177 l 1,16,-1
 343 -141 l 1,17,-1
 400 26 l 1,18,19
 243 88 243 88 160.5 231.5 c 128,-1,20
 78 375 78 375 78 582 c 0,21,22
 78 863 78 863 226 1024.5 c 128,-1,23
 374 1186 374 1186 647 1186 c 0,24,25
 716 1186 716 1186 779 1175 c 1,26,-1
 843 1364 l 1,27,-1
 947 1328 l 1,28,-1
 886 1146 l 1,29,30
 1047 1085 1047 1085 1131.5 939 c 128,-1,31
 1216 793 1216 793 1216 582 c 0,32,33
 1216 303 1216 303 1068.5 143.5 c 128,-1,34
 921 -16 921 -16 647 -16 c 0,35,36
 573 -16 573 -16 507 -4 c 1,15,-1
476 261 m 2,37,-1
 716 973 l 1,38,39
 687 980 687 980 647 980 c 0,40,41
 487 980 487 980 420 823 c 1,42,-1
 419 822 l 1,43,-1
 419 821 l 1,44,-1
 419 820 l 1,45,-1
 418 820 l 1,46,-1
 418 819 l 1,47,-1
 418 818 l 1,48,-1
 417 817 l 1,49,-1
 417 816 l 1,50,-1
 416 815 l 1,51,-1
 416 814 l 1,52,-1
 416 813 l 1,53,-1
 415 812 l 1,54,-1
 415 811 l 1,55,-1
 415 810 l 1,56,-1
 414 809 l 1,57,-1
 414 808 l 1,58,-1
 413 807 l 1,59,-1
 413 806 l 1,60,-1
 413 805 l 1,61,-1
 412 805 l 1,62,-1
 412 804 l 1,63,-1
 412 803 l 1,64,-1
 412 802 l 1,65,-1
 411 801 l 1,66,-1
 411 800 l 1,67,-1
 410 799 l 1,68,-1
 410 798 l 1,69,-1
 410 797 l 1,70,-1
 410 796 l 1,71,-1
 409 796 l 1,72,-1
 409 795 l 1,73,-1
 409 794 l 1,74,-1
 408 793 l 1,75,-1
 408 792 l 1,76,-1
 408 791 l 1,77,-1
 407 790 l 1,78,-1
 407 789 l 1,79,-1
 407 788 l 1,80,-1
 406 787 l 1,81,-1
 406 786 l 1,82,-1
 406 785 l 1,83,-1
 406 784 l 1,84,-1
 405 783 l 1,85,-1
 405 782 l 1,86,-1
 405 781 l 1,87,-1
 404 780 l 1,88,-1
 404 779 l 1,89,-1
 404 778 l 1,90,-1
 403 777 l 1,91,-1
 403 776 l 1,92,-1
 403 775 l 1,93,-1
 403 774 l 1,94,-1
 402 773 l 1,95,-1
 402 772 l 1,96,-1
 402 771 l 1,97,-1
 401 770 l 1,98,-1
 401 769 l 1,99,-1
 401 768 l 1,100,-1
 400 767 l 1,101,-1
 400 766 l 1,102,-1
 400 765 l 1,103,-1
 400 764 l 1,104,-1
 400 763 l 1,105,-1
 399 762 l 1,106,-1
 399 761 l 1,107,-1
 399 760 l 1,108,-1
 398 759 l 1,109,-1
 398 758 l 1,110,-1
 398 757 l 1,111,-1
 398 756 l 1,112,-1
 397 755 l 1,113,-1
 397 754 l 1,114,-1
 397 753 l 1,115,-1
 397 752 l 1,116,-1
 397 751 l 1,117,-1
 396 750 l 1,118,-1
 396 749 l 1,119,-1
 396 748 l 1,120,-1
 395 747 l 1,121,-1
 395 746 l 1,122,-1
 395 745 l 1,123,-1
 395 744 l 1,124,-1
 395 743 l 1,125,-1
 394 742 l 1,126,-1
 394 741 l 1,127,-1
 394 740 l 1,128,-1
 394 739 l 1,129,-1
 394 738 l 1,130,-1
 393 737 l 1,131,-1
 393 736 l 1,132,-1
 393 735 l 1,133,-1
 393 734 l 1,134,-1
 392 733 l 1,135,-1
 392 732 l 1,136,-1
 392 731 l 1,137,-1
 392 730 l 1,138,-1
 392 729 l 1,139,-1
 392 728 l 1,140,-1
 391 728 l 1,141,-1
 391 727 l 1,142,-1
 391 726 l 1,143,-1
 391 725 l 1,144,-1
 391 724 l 1,145,-1
 391 723 l 1,146,-1
 390 722 l 1,147,-1
 390 721 l 1,148,-1
 390 720 l 1,149,-1
 390 719 l 1,150,-1
 390 718 l 1,151,-1
 389 717 l 1,152,-1
 389 716 l 1,153,-1
 389 715 l 1,154,-1
 389 714 l 1,155,-1
 389 713 l 1,156,-1
 389 712 l 1,157,-1
 389 711 l 1,158,-1
 388 711 l 1,159,-1
 388 710 l 1,160,-1
 388 709 l 1,161,-1
 388 708 l 1,162,-1
 388 707 l 1,163,-1
 388 706 l 1,164,-1
 388 705 l 1,165,-1
 387 704 l 1,166,-1
 387 703 l 1,167,-1
 387 702 l 1,168,-1
 387 701 l 1,169,-1
 387 700 l 1,170,-1
 387 699 l 1,171,-1
 387 698 l 1,172,-1
 386 697 l 1,173,-1
 386 696 l 1,174,-1
 386 695 l 1,175,-1
 386 694 l 1,176,-1
 386 693 l 1,177,-1
 386 692 l 1,178,-1
 386 691 l 1,179,-1
 386 690 l 1,180,-1
 385 690 l 1,181,-1
 385 689 l 1,182,-1
 385 688 l 1,183,-1
 385 687 l 1,184,-1
 385 686 l 1,185,-1
 385 685 l 1,186,-1
 379 605 l 1,187,-1
 379 584 l 2,188,189
 379 519 379 519 389 462 c 128,-1,190
 399 405 399 405 413 369.5 c 128,-1,191
 427 334 427 334 441.5 308.5 c 128,-1,192
 456 283 456 283 465.5 272 c 128,-1,193
 475 261 475 261 476 261 c 2,37,-1
EndSplineSet
EndChar

